<svg xmlns="http://www.w3.org/2000/svg" xmlns:xlink="http://www.w3.org/1999/xlink" width="54px" height="48px" viewBox="0 0 54 48"><title>coins</title><g id="Page-" stroke="none" stroke-width="1" fill="none" fill-rule="evenodd"><g id="Home-Ecommerce-Platform-Light" transform="translate(-134.000000, -3376.000000)" fill="#0057FC" fill-rule="nonzero"><g id="body" transform="translate(0.000000, 905.000000)"><g id="design" transform="translate(134.000000, 2071.000000)"><g id="text" transform="translate(0.000000, 176.000000)"><g id="coins" transform="translate(0.000000, 224.000000)"><path d="M36.2044688,9.28905451 L34.6794961,9.28905451 C34.9484414,8.83764927 35.1032695,8.31534374 35.1032695,7.75860383 L35.1032695,3.08497496 C35.1032695,1.38387603 33.6663633,0 31.9000781,0 L3.20319141,0 C1.43690625,0.000609458027 0,1.38448548 0,3.08548284 L0,7.75911171 C0,9.46021064 1.43690625,10.8440867 3.20319141,10.8440867 L4.72795313,10.8440867 C4.45900781,11.2954919 4.30417969,11.8177974 4.30417969,12.3745374 L4.30417969,17.0481662 C4.30417969,17.6050077 4.45890234,18.1272117 4.72795313,18.5786169 L3.20319141,18.5786169 C1.43690625,18.5785153 0,19.9623914 0,21.6633887 L0,26.3370176 C0,27.6820915 0.898910156,28.8282789 2.1481875,29.2492112 C1.81110938,29.7375902 1.61409375,30.3230762 1.61409375,30.9523417 L1.61409375,35.6259705 C1.61409375,36.2552359 1.81110938,36.840722 2.1481875,37.329101 C0.898910156,37.7500333 0,38.8962207 0,40.2412946 L0,44.9149235 C0,46.6159208 1.43690625,47.9997968 3.20319141,47.9997968 L27.8110547,47.9997968 C28.2568711,47.9997968 28.6181016,47.6517963 28.6181016,47.2225347 C28.6181016,46.7932731 28.2567656,46.4452726 27.8110547,46.4452726 L3.20319141,46.4452726 C2.32685156,46.4452726 1.61409375,45.7587181 1.61409375,44.9149235 L1.61409375,40.2412946 C1.61409375,39.3973984 2.32695703,38.7108439 3.20319141,38.7108439 L4.81728516,38.7108439 L9.10100391,38.7108439 L18.8087695,38.7108439 C19.2545859,38.7108439 19.6158164,38.3628434 19.6158164,37.9335818 C19.6158164,37.5043202 19.2545859,37.1563196 18.8087695,37.1563196 L9.10089844,37.1563196 L4.81728516,37.1563196 C3.94094531,37.1563196 3.2281875,36.4697652 3.2281875,35.625869 L3.2281875,30.9522401 C3.2281875,30.1083439 3.94105078,29.4217894 4.81728516,29.4217894 L17.3382188,29.4217894 C17.7840352,29.4217894 18.1452656,29.0737889 18.1452656,28.6445273 C18.1452656,28.2152657 17.7840352,27.8672651 17.3382188,27.8672651 L3.20319141,27.8672651 C2.32685156,27.8672651 1.61409375,27.1807107 1.61409375,26.3368144 L1.61409375,21.6631856 C1.61409375,20.8192893 2.32695703,20.1327349 3.20319141,20.1327349 L7.50737109,20.1327349 L13.9669102,20.1327349 L21.9112383,20.1327349 C22.3570547,20.1327349 22.7182852,19.7847343 22.7182852,19.3554727 C22.7182852,18.9262111 22.3570547,18.5782106 21.9112383,18.5782106 L13.9669102,18.5782106 L7.50737109,18.5782106 C6.63103125,18.5782106 5.91827344,17.8916561 5.91827344,17.0477599 L5.91827344,12.374131 C5.91827344,11.5302348 6.63113672,10.8436804 7.50737109,10.8436804 L31.9001836,10.8436804 L36.2044688,10.8436804 C37.0808086,10.8436804 37.7935664,11.5302348 37.7935664,12.374131 L37.7935664,12.9538272 C37.7935664,13.3830888 38.1547969,13.7310893 38.6006133,13.7310893 C39.0464297,13.7310893 39.4076602,13.3830888 39.4076602,12.9538272 L39.4076602,12.374131 C39.4076602,10.6729305 37.9707539,9.28905451 36.2044688,9.28905451 Z M33.4892812,7.75911171 C33.4892812,8.60300793 32.776418,9.2895624 31.9001836,9.2895624 L7.50737109,9.2895624 L3.20319141,9.2895624 C2.32685156,9.28946082 1.61409375,8.60290635 1.61409375,7.75911171 L1.61409375,3.08548284 C1.61409375,2.24158662 2.32695703,1.55503216 3.20319141,1.55503216 L31.9001836,1.55503216 C32.7765234,1.55503216 33.4892812,2.24158662 33.4892812,3.08548284 L33.4892812,7.75911171 L33.4892812,7.75911171 Z" id="Shape"></path><path d="M46.0191797,16.9243447 C45.6459258,16.6900081 45.145793,16.7914828 44.9024766,17.1511646 C44.6590547,17.5107449 44.7645234,17.9923183 45.1378828,18.2266549 C49.6764141,21.0751601 52.3859062,25.8862218 52.3859062,31.0961737 C52.3859062,39.5598189 45.2362852,46.4455773 36.4483125,46.4455773 C27.6602344,46.4455773 20.5106133,39.5598189 20.5106133,31.0961737 C20.5106133,22.6325286 27.6602344,15.7467702 36.4483125,15.7467702 C38.7556523,15.7467702 40.981043,16.2109741 43.0623633,17.1265832 C43.4681016,17.3050528 43.9466133,17.1328809 44.1317109,16.742523 C44.3169141,16.3520636 44.1383555,15.8910086 43.7329336,15.7126405 C41.4396211,14.7037844 38.9887383,14.1923475 36.4483125,14.1923475 C26.7703945,14.1923475 18.896625,21.7754274 18.896625,31.0961737 C18.896625,40.4169201 26.7703945,48 36.4483125,48 C46.1262305,48 54,40.4170217 54,31.0962753 C54,25.3587359 51.0166055,20.0608188 46.0191797,16.9243447 Z" id="Path"></path><path d="M37.2554648,30.3809748 L37.2554648,26.100751 C38.4320742,26.3647479 39.2931211,27.1901573 39.2931211,28.1654932 C39.2931211,28.5947549 39.6543516,28.9427554 40.100168,28.9427554 C40.5459844,28.9427554 40.9072148,28.5947549 40.9072148,28.1654932 C40.9072148,26.3501209 39.3300352,24.8364304 37.2555703,24.5196138 L37.2555703,24.0625202 C37.2555703,23.6332586 36.8943398,23.2852581 36.4485234,23.2852581 C36.002707,23.2852581 35.6414766,23.6332586 35.6414766,24.0625202 L35.6414766,24.5196138 C33.5670117,24.8365319 31.9897266,26.3502225 31.9897266,28.1654932 C31.9897266,29.980764 33.5670117,31.4945561 35.6414766,31.8113727 L35.6414766,36.0915965 C34.4647617,35.8275996 33.6037148,35.0021902 33.6037148,34.0268542 C33.6037148,33.5975926 33.2424844,33.2495921 32.796668,33.2495921 C32.3508516,33.2495921 31.9896211,33.5975926 31.9896211,34.0268542 C31.9896211,35.8422266 33.5669063,37.3559171 35.6413711,37.6727337 L35.6413711,38.1298273 C35.6413711,38.5590889 36.0026016,38.9070894 36.448418,38.9070894 C36.8942344,38.9070894 37.2554648,38.5590889 37.2554648,38.1298273 L37.2554648,37.6727337 C39.3299297,37.3559171 40.9071094,35.842125 40.9071094,34.0268542 C40.9071094,32.2115835 39.3299297,30.6977913 37.2554648,30.3809748 Z M35.6414766,30.2302355 C34.4647617,29.9662386 33.6037148,29.1408292 33.6037148,28.1654932 C33.6037148,27.1901573 34.4647617,26.3648495 35.6414766,26.100751 L35.6414766,30.2302355 Z M37.2553594,36.0915965 L37.2553594,31.9622136 C38.4319688,32.2262105 39.2930156,33.0517214 39.2930156,34.0269558 C39.2930156,35.0020887 38.4319688,35.827498 37.2553594,36.0915965 Z" id="Shape"></path></g></g></g></g></g></g></svg>