<svg xmlns="http://www.w3.org/2000/svg" xmlns:xlink="http://www.w3.org/1999/xlink" width="37px" height="36px" viewBox="0 0 37 36"><title></title><g id="Page-" stroke="none" stroke-width="1" fill="none" fill-rule="evenodd"><g id="Home-Fintech-Light" transform="translate(-142.000000, -600.000000)" fill="#111111" fill-rule="nonzero"><g id="slide" transform="translate(135.000000, 0.000000)"><g id="content" transform="translate(0.000000, 262.000000)"><g id="Group-7" transform="translate(0.000000, 330.000000)"><path d="M24.5605469,44 L24.8046875,42.7304688 L26.4160156,35.2109375 L30.6152344,35.2109375 C32.5683594,35.2109375 34.4075521,34.8040365 36.1328125,33.9902344 C37.8580729,33.1764323 39.3066406,32.0371094 40.4785156,30.5722656 C41.7154948,29.0423177 42.5455729,27.2682292 42.96875,25.25 C43.2942708,23.6875 43.3105469,22.2063802 43.0175781,20.8066406 C42.7246094,19.5371094 42.1875,18.4140625 41.40625,17.4375 C40.234375,16.0377604 38.688151,15.09375 36.7675781,14.6054688 C36.4420573,13.0755208 35.7747396,11.7897135 34.765625,10.7480469 C33.9192708,9.86914062 32.8938802,9.18554688 31.6894531,8.69726562 C30.5826823,8.27408854 29.4270833,8.0625 28.2226562,8.0625 L13.9160156,8.0625 L13.6230469,9.28320312 L7.86132812,35.8457031 L7.421875,37.75 L15.0390625,37.75 L14.1113281,42.0957031 L13.671875,44 L24.5605469,44 Z M15.7714844,34.625 L11.328125,34.625 L16.4550781,11.1875 L28.2226562,11.1875 C29.0039062,11.1875 29.7851562,11.3339844 30.5664062,11.6269531 C31.3476562,11.9199219 31.9986979,12.343099 32.5195312,12.8964844 C33.1054688,13.514974 33.4960938,14.2148438 33.6914062,14.9960938 C33.9192708,15.9401042 33.9029948,17.046875 33.6425781,18.3164062 C33.1217448,20.6927083 32.03125,22.5400391 30.3710938,23.8583984 C28.7109375,25.1767578 26.7089844,25.8359375 24.3652344,25.8359375 L17.6269531,25.8359375 L15.7714844,34.625 Z M23.5839844,23.8339844 C24.9511719,23.8339844 26.180013,23.3863932 27.2705078,22.4912109 C28.3610026,21.5960286 29.0852865,20.4648438 29.4433594,19.0976562 L29.4921875,19.0976562 L29.4921875,19 C29.6549479,18.3164062 29.6875,17.6409505 29.5898438,16.9736328 C29.4921875,16.3063151 29.2480469,15.7122396 28.8574219,15.1914062 C28.4667969,14.6705729 27.9622396,14.2555339 27.34375,13.9462891 C26.7252604,13.6370443 26.0742188,13.4824219 25.390625,13.4824219 L20.4101562,13.4824219 L20.1171875,14.703125 L18.0664062,23.8339844 L23.5839844,23.8339844 Z M23.5839844,20.7089844 L21.9726562,20.7089844 L22.9003906,16.6074219 L25.390625,16.6074219 C25.8138021,16.6074219 26.1230469,16.7376302 26.3183594,16.9980469 C26.546224,17.3235677 26.5950521,17.7467448 26.4648438,18.2675781 L26.4648438,18.3164062 C26.3346354,18.9348958 25.9602865,19.4882812 25.3417969,19.9765625 C24.7233073,20.4648438 24.1373698,20.7089844 23.5839844,20.7089844 Z M22.0214844,40.875 L17.578125,40.875 L18.2617188,37.75 L18.3105469,37.75 L18.5546875,36.4804688 L20.1660156,28.9609375 L24.3652344,28.9609375 C26.3183594,28.9609375 28.1575521,28.5540365 29.8828125,27.7402344 C31.6080729,26.9264323 33.0566406,25.7871094 34.2285156,24.3222656 C35.4654948,22.7923177 36.2955729,21.0182292 36.71875,19 C36.7513021,18.8046875 36.7838542,18.5279948 36.8164062,18.1699219 L36.8652344,17.9746094 C37.8092448,18.3652344 38.5253906,18.8535156 39.0136719,19.4394531 C40.0553385,20.7089844 40.3483073,22.4179688 39.8925781,24.5664062 C39.3717448,26.9427083 38.28125,28.7900391 36.6210938,30.1083984 C34.9609375,31.4267578 32.9589844,32.0859375 30.6152344,32.0859375 L23.8769531,32.0859375 L22.0214844,40.875 Z" id="&#xF1ED;"></path></g></g></g></g></g></svg>