<svg width="40" height="46" xmlns="http://www.w3.org/2000/svg">
    <path d="M22.98 42C12.498 42 4 33.493 4 23S12.498 4 22.98 4c3.048 0 5.995.72 8.649 2.083a.834.834 0 0 1-.76 1.483 17.222 17.222 0 0 0-7.889-1.9C13.417 5.667 5.665 13.428 5.665 23s7.752 17.333 17.315 17.333a.833.833 0 0 1 0 1.667zm12.731-4.414C32.247 40.415 27.816 42 23.127 42c-.465 0-.841-.353-.841-.788 0-.436.376-.788.84-.788 4.28 0 8.32-1.446 11.48-4.027a.88.88 0 0 1 1.187.077.754.754 0 0 1-.082 1.112z" fill-rule="nonzero" stroke="#0057FC" stroke-width="8" fill="none"/>
</svg>
