<svg width="59" height="69" xmlns="http://www.w3.org/2000/svg">
    <path d="M34.064 64C18.012 64 5 50.792 5 34.5S18.012 5 34.064 5c4.667 0 9.179 1.119 13.243 3.234.626.326.874 1.106.552 1.741a1.266 1.266 0 0 1-1.716.561 26.078 26.078 0 0 0-12.08-2.948C19.42 7.588 7.55 19.637 7.55 34.5S19.42 61.412 34.064 61.412c.704 0 1.274.58 1.274 1.294 0 .715-.57 1.294-1.274 1.294zm19.494-6.853C48.253 61.539 41.468 64 34.288 64 33.576 64 33 63.452 33 62.776c0-.676.576-1.224 1.288-1.224 6.553 0 12.738-2.244 17.579-6.251a1.335 1.335 0 0 1 1.816.12c.467.509.411 1.282-.125 1.726z" fill-rule="nonzero" stroke="#FF1F25" stroke-width="10" fill="none"/>
</svg>
