<svg xmlns="http://www.w3.org/2000/svg" xmlns:xlink="http://www.w3.org/1999/xlink" width="30px" height="38px" viewBox="0 0 30 38"><title></title><g id="Page-" stroke="none" stroke-width="1" fill="none" fill-rule="evenodd"><g id="Home-Fintech-Light" transform="translate(-227.000000, -598.000000)" fill="#111111" fill-rule="nonzero"><g id="slide" transform="translate(135.000000, 0.000000)"><g id="content" transform="translate(0.000000, 262.000000)"><g id="Group-7" transform="translate(7.421875, 330.000000)"><path d="M92.546875,8.03808594 C90.3007812,9.06347656 88.5673828,10.5039062 87.3466797,12.359375 C86.1259766,14.2148438 85.515625,16.3958333 85.515625,18.9023438 C85.515625,21.1809896 86.1503906,23.1341146 87.4199219,24.7617188 C88.4290365,26.0638021 89.8938802,27.203125 91.8144531,28.1796875 C92.8170573,28.6657986 94.2875434,29.2369792 96.2259115,29.8932292 L96.6484375,30.0351562 C98.0807292,30.5234375 99.0735677,30.8977865 99.6269531,31.1582031 C100.636068,31.5813802 101.140625,31.9720052 101.140625,32.3300781 C101.140625,32.8183594 100.343099,33.0625 98.7480469,33.0625 C97.2832031,33.0625 95.5253906,32.7858073 93.4746094,32.2324219 C91.4238281,31.6790365 89.5195312,30.9628906 87.7617187,30.0839844 L85.515625,28.9609375 L85.515625,41.1679688 L86.4921875,41.5585938 C88.3151042,42.3398438 90.2519531,42.9420573 92.3027344,43.3652344 C94.3535156,43.7884115 96.3391927,44 98.2597656,44 C101.44987,44 104.200521,43.5279948 106.511719,42.5839844 C108.822917,41.639974 110.588867,40.2727865 111.80957,38.4824219 C113.030273,36.6920573 113.640625,34.5598958 113.640625,32.0859375 C113.640625,29.6119792 112.989583,27.5123698 111.6875,25.7871094 C110.645833,24.3873698 109.148437,23.2154948 107.195312,22.2714844 C106.131944,21.7246094 104.614873,21.1351997 102.644097,20.5032552 L102.214844,20.3671875 C100.945312,19.9440104 100.033854,19.6184896 99.4804687,19.390625 C98.5039062,18.9674479 98.015625,18.617513 98.015625,18.3408203 C98.015625,18.0641276 98.0970052,17.8606771 98.2597656,17.7304688 C98.5527344,17.5351562 99.1061198,17.4375 99.9199219,17.4375 C101.384766,17.4375 103.028646,17.7060547 104.851562,18.2431641 C106.674479,18.7802734 108.302083,19.4720052 109.734375,20.3183594 L112.078125,21.734375 L112.078125,8.89257812 L111.101562,8.55078125 C109.408854,7.8671875 107.642904,7.35449219 105.803711,7.01269531 C104.194417,6.71362305 102.603816,6.5453949 101.031906,6.50801086 L100.382125,6.5 L99.8835964,6.5053221 C97.1064194,6.56209113 94.6608456,7.07301241 92.546875,8.03808594 Z M98.2597656,40.875 C96.7298177,40.875 95.1266276,40.7203776 93.4501953,40.4111328 C91.773763,40.101888 90.1705729,39.6542969 88.640625,39.0683594 L88.640625,33.8925781 C90.3333333,34.5761719 92.0097656,35.1132812 93.6699219,35.5039062 C95.5904948,35.9596354 97.2832031,36.1875 98.7480469,36.1875 C100.863932,36.1875 102.377604,35.7317708 103.289062,34.8203125 C103.885851,34.2235243 104.209111,33.4762958 104.258843,32.5786268 L104.265625,32.3300781 C104.265625,31.3860677 103.940104,30.5559896 103.289062,29.8398438 C102.768229,29.2864583 101.954427,28.765625 100.847656,28.2773438 C100.243118,28.0053013 99.2736966,27.6490553 97.9393933,27.2086057 L97.625,27.1054688 C95.5742187,26.3893229 94.0279948,25.7708333 92.9863281,25.25 C91.5540365,24.5338542 90.4960937,23.703776 89.8125,22.7597656 C89.03125,21.718099 88.640625,20.4322917 88.640625,18.9023438 C88.640625,17.0143229 89.1126302,15.3704427 90.0566406,13.9707031 C91.000651,12.5709635 92.3597005,11.4967448 94.1337891,10.7480469 C95.9078776,9.99934896 97.9830729,9.625 100.359375,9.625 L100.408203,9.625 C103.272786,9.625 106.121094,10.1132812 108.953125,11.0898438 L108.953125,16.4609375 C107.455729,15.7773438 105.909505,15.2483724 104.314453,14.8740234 C102.719401,14.4996745 101.254557,14.3125 99.9199219,14.3125 C97.9667969,14.3125 96.5670573,14.8333333 95.7207031,15.875 C95.1673177,16.5585938 94.890625,17.3723958 94.890625,18.3164062 C94.890625,19.2604167 95.1998698,20.0579427 95.8183594,20.7089844 C96.3391927,21.2623698 97.1204427,21.7669271 98.1621094,22.2226562 C98.780599,22.4830729 99.8059896,22.8574219 101.238281,23.3457031 C103.386719,24.0292969 104.998047,24.6315104 106.072266,25.1523438 C107.537109,25.9335938 108.611328,26.828776 109.294922,27.8378906 C110.108724,28.9772135 110.515625,30.4095052 110.515625,32.1347656 C110.515625,35.5527344 108.936849,37.9941406 105.779297,39.4589844 C103.728516,40.4029948 101.222005,40.875 98.2597656,40.875 Z" id="&#xF42A;"></path></g></g></g></g></g></svg>