<svg xmlns="http://www.w3.org/2000/svg" xmlns:xlink="http://www.w3.org/1999/xlink" width="39px" height="42px" viewBox="0 0 39 42"><title></title><g id="Page-" stroke="none" stroke-width="1" fill="none" fill-rule="evenodd"><g id="Home-Fintech-Light" transform="translate(-303.000000, -597.000000)" fill="#111111" fill-rule="nonzero"><g id="slide" transform="translate(135.000000, 0.000000)"><g id="content" transform="translate(0.000000, 262.000000)"><g id="Group-7" transform="translate(7.421875, 330.000000)"><path d="M190.953125,46.34375 C192.027344,46.34375 193.020182,46.0507812 193.931641,45.4648438 C194.843099,44.8789062 195.510417,44.0976562 195.933594,43.1210938 C196.64974,41.5260417 197.300781,39.6380208 197.886719,37.4570312 C198.99349,33.3554688 199.546875,29.3352865 199.546875,25.3964844 C199.546875,21.360026 198.960937,17.4375 197.789062,13.6289062 C197.138021,11.5455729 196.454427,9.85286458 195.738281,8.55078125 C195.25,7.671875 194.582682,6.98014323 193.736328,6.47558594 C192.889974,5.97102865 191.96224,5.71875 190.953125,5.71875 C190.074219,5.71875 189.203451,5.9547526 188.34082,6.42675781 C187.47819,6.89876302 186.802734,7.54166667 186.314453,8.35546875 C185.826172,9.16927083 185.565755,10.0563151 185.533203,11.0166016 C185.504268,11.8701895 185.668234,12.6916273 186.025101,13.4809148 L186.167969,13.7753906 C186.65625,14.8821615 187.111979,16.1679688 187.535156,17.6328125 C186.135417,15.6145833 184.572917,13.7916667 182.847656,12.1640625 C181.871094,11.2851562 181.089844,10.6341146 180.503906,10.2109375 L180.259766,10.0644531 C179.250651,9.25065104 178.127604,8.84375 176.890625,8.84375 C175.783854,8.84375 174.758464,9.16927083 173.814453,9.8203125 C173.000651,10.3736979 172.390299,11.0898438 171.983398,11.96875 C171.576497,12.8476562 171.405599,13.7672526 171.470703,14.7275391 C171.535807,15.6878255 171.845052,16.5748698 172.398437,17.3886719 L172.642578,17.8769531 C172.837891,18.2675781 173.033203,18.6744792 173.228516,19.0976562 C172.642578,18.6419271 172.089193,18.2513021 171.568359,17.9257812 C169.354818,16.5585938 167.483073,15.875 165.953125,15.875 C164.683594,15.875 163.584961,16.3388672 162.657227,17.2666016 C161.729492,18.1943359 161.265625,19.3092448 161.265625,20.6113281 C161.265625,21.9134115 161.932943,23.1178385 163.267578,24.2246094 C163.755859,24.6477865 164.585937,25.233724 165.757812,25.9824219 L166.783203,26.6660156 C168.215495,27.610026 169.338542,28.5214844 170.152344,29.4003906 C171.291667,30.6373698 172.154297,32.0533854 172.740234,33.6484375 L172.105469,35.1132812 C171.617187,35.9596354 171.389323,36.8629557 171.421875,37.8232422 C171.454427,38.7835286 171.714844,39.6787109 172.203125,40.5087891 C172.691406,41.3388672 173.358724,41.9980469 174.205078,42.4863281 C175.051432,42.9746094 175.954753,43.21875 176.915039,43.21875 C177.875326,43.21875 178.778646,42.9664714 179.625,42.4619141 C180.471354,41.9573568 181.138672,41.281901 181.626953,40.4355469 C181.952474,39.8496094 182.310547,39.1009115 182.701172,38.1894531 C183.384766,36.594401 183.954427,34.9505208 184.410156,33.2578125 C185.25651,35.7643229 185.614583,38.2708333 185.484375,40.7773438 C185.419271,41.1028646 185.451823,41.4121094 185.582031,41.7050781 L185.582031,41.8027344 C185.744792,42.6816406 186.094727,43.4791667 186.631836,44.1953125 C187.168945,44.9114583 187.860677,45.4648438 188.707031,45.8554688 C189.423177,46.1809896 190.171875,46.34375 190.953125,46.34375 Z M190.953125,43.21875 C190.595052,43.21875 190.269531,43.1536458 189.976562,43.0234375 C189.390625,42.7630208 188.983724,42.3235677 188.755859,41.7050781 C188.527995,41.0865885 188.544271,40.484375 188.804687,39.8984375 C189.227865,38.8893229 189.667318,37.6035156 190.123047,36.0410156 C191.034505,32.9160156 191.555339,29.8561198 191.685547,26.8613281 C191.783203,26.6009115 191.799479,26.3242188 191.734375,26.03125 L191.734375,25.3964844 C191.734375,23.1178385 191.490234,20.8391927 191.001953,18.5605469 C190.64388,16.9654948 190.188151,15.4518229 189.634766,14.0195312 C189.341797,13.2382812 189.097656,12.6686198 188.902344,12.3105469 C188.609375,11.7571615 188.552409,11.1630859 188.731445,10.5283203 C188.910482,9.89355469 189.276693,9.4296875 189.830078,9.13671875 C190.188151,8.94140625 190.5625,8.84375 190.953125,8.84375 C191.376302,8.84375 191.775065,8.94954427 192.149414,9.16113281 C192.523763,9.37272135 192.808594,9.67382812 193.003906,10.0644531 C193.622396,11.171224 194.208333,12.6360677 194.761719,14.4589844 C195.86849,17.9746094 196.421875,21.6041667 196.421875,25.3476562 C196.421875,29.0911458 195.884766,32.9322917 194.810547,36.8710938 C194.257161,38.8242188 193.6875,40.484375 193.101562,41.8515625 C192.90625,42.2747396 192.613281,42.6083984 192.222656,42.8525391 C191.832031,43.0966797 191.408854,43.21875 190.953125,43.21875 Z M176.890625,40.09375 C176.467448,40.09375 176.076823,39.9960938 175.71875,39.8007812 C175.165365,39.4752604 174.799154,38.9951172 174.620117,38.3603516 C174.441081,37.7255859 174.514323,37.1315104 174.839844,36.578125 C175.295573,35.796875 175.767578,34.6901042 176.255859,33.2578125 C177.19987,30.5885417 177.671875,28.0169271 177.671875,25.5429688 C177.671875,23.1666667 177.248698,20.8391927 176.402344,18.5605469 C176.003581,17.5351562 175.592356,16.6593018 175.168671,15.9329834 L174.986328,15.6308594 C174.628255,15.110026 174.506185,14.5322266 174.620117,13.8974609 C174.734049,13.2626953 175.051432,12.766276 175.572266,12.4082031 C175.995443,12.1152344 176.434896,11.96875 176.890625,11.96875 C177.44401,11.96875 177.948568,12.1640625 178.404297,12.5546875 L178.453125,12.6035156 C178.615885,12.733724 178.729818,12.8639323 178.794922,12.9941406 C179.413411,13.8730469 180.031901,15.077474 180.650391,16.6074219 C181.789714,19.4720052 182.359375,22.4342448 182.359375,25.4941406 C182.359375,28.5540365 181.80599,31.6790365 180.699219,34.8691406 C180.113281,36.561849 179.527344,37.9127604 178.941406,38.921875 C178.713542,39.2799479 178.420573,39.5647786 178.0625,39.7763672 C177.704427,39.9879557 177.313802,40.09375 176.890625,40.09375 Z M187.632812,33.2578125 C187.014323,31.0442708 186.265625,29.2539062 185.386719,27.8867188 C185.451823,27.1380208 185.484375,26.3567708 185.484375,25.5429688 C185.484375,23.3619792 185.207682,21.1647135 184.654297,18.9511719 C186.379557,21.327474 187.681641,23.8339844 188.560547,26.4707031 C188.495443,28.7167969 188.186198,30.9791667 187.632812,33.2578125 Z M174.107422,29.4492188 C172.837891,27.4960938 170.982422,25.7057292 168.541016,24.078125 L167.417969,23.3457031 C166.34375,22.6295573 165.627604,22.125 165.269531,21.8320312 C164.911458,21.5390625 164.675456,21.3030599 164.561523,21.1240234 C164.447591,20.944987 164.390625,20.7578125 164.390625,20.5625 C164.390625,20.1067708 164.537109,19.7324219 164.830078,19.4394531 C165.123047,19.1464844 165.497396,19 165.953125,19 C166.148437,19 166.604167,19.1302083 167.320312,19.390625 C168.264323,19.7161458 169.126953,20.1230469 169.908203,20.6113281 C171.958984,21.8808594 173.505208,23.4433594 174.546875,25.2988281 L174.546875,25.5429688 C174.546875,26.7799479 174.400391,28.0820312 174.107422,29.4492188 Z" id="&#xF1EE;"></path></g></g></g></g></g></svg>