<svg xmlns="http://www.w3.org/2000/svg" width="67" height="65" viewBox="0 0 67 65">
    <g fill="none" fill-rule="evenodd">
        <g>
            <g>
                <g>
                    <g>
                        <g>
                            <path fill="#FFDD0F" d="M39.457 57.373l.386.002v-.009C54.35 57.014 66 45.088 66 30.428V14.306c0-.589-.475-1.067-1.062-1.067-11.964 0-22.023 8.243-24.838 19.4l.011-1.103C40.291 14.173 26.334 0 9.053 0c-.705 0-1.28.57-1.287 1.28l-.242 23.28c-.185 17.846 13.984 32.453 31.66 32.808v.006l.273-.001z" transform="translate(-934.000000, -1008.000000) translate(0.000000, 900.000000) translate(135.000000, 0.000000) translate(800.000000, 108.000000) translate(0.000000, 0.000000)"/>
                            <path stroke="#111" stroke-linecap="round" stroke-linejoin="round" stroke-width="2" d="M30.742 39.092L30.484 64C13.44 63.51-.177 49.38.002 32.135l.241-23.28c.003-.2.165-.361.364-.361 16.767 0 30.31 13.75 30.135 30.598zM31.166 46.376l-.126 17.62c13.87-.491 24.963-11.945 24.963-26.001V21.873c0-.077-.062-.139-.138-.139-13.573 0-24.602 11.004-24.7 24.642z" transform="translate(-934.000000, -1008.000000) translate(0.000000, 900.000000) translate(135.000000, 0.000000) translate(800.000000, 108.000000) translate(0.000000, 0.000000)"/>
                        </g>
                    </g>
                </g>
            </g>
        </g>
    </g>
</svg>
