<svg xmlns="http://www.w3.org/2000/svg" width="56" height="64" viewBox="0 0 56 64">
    <g fill="none" fill-rule="evenodd">
        <g>
            <g>
                <g>
                    <g>
                        <g>
                            <path fill="#0057FC" fill-rule="nonzero" d="M7.625 1.855C7.625.831 8.46 0 9.487 0h44.651C55.167 0 56 .83 56 1.855v53.347c0 1.025-.833 1.855-1.862 1.855H46.72c-21.591 0-39.095-17.441-39.095-38.956V1.855z" transform="translate(-135.000000, -1008.000000) translate(0.000000, 900.000000) translate(135.000000, 0.000000) translate(0.000000, 108.000000) translate(0.000000, 0.000000)"/>
                            <path stroke="#111" stroke-width="2" d="M45.513 9.798V63c-12.284-.019-23.403-4.988-31.456-13.012C5.99 41.949 1 30.844 1 18.578h0v-8.78h44.513z" transform="translate(-135.000000, -1008.000000) translate(0.000000, 900.000000) translate(135.000000, 0.000000) translate(0.000000, 108.000000) translate(0.000000, 0.000000)"/>
                            <path stroke="#111" stroke-width="2" d="M25.686 38.067l-.507 19.667c-8.426-4.06-15.262-10.805-19.42-19.17h0l19.927-.497z" transform="translate(-135.000000, -1008.000000) translate(0.000000, 900.000000) translate(135.000000, 0.000000) translate(0.000000, 108.000000) translate(0.000000, 0.000000)"/>
                        </g>
                    </g>
                </g>
            </g>
        </g>
    </g>
</svg>
