<svg xmlns="http://www.w3.org/2000/svg" width="188" height="27" viewBox="0 0 188 27">
    <g fill="none" fill-rule="evenodd">
        <g fill="#999">
            <g>
                <g>
                    <g>
                        <path fill-rule="nonzero" d="M25.821 18.756c.733 0 1.328-.595 1.328-1.328 0-.733-.595-1.327-1.328-1.327-.733 0-1.327.594-1.327 1.327s.594 1.328 1.327 1.328z" transform="translate(-290.000000, -1149.000000) translate(290.000000, 1096.000000) translate(-0.000000, 0.000000) translate(0.000000, 48.000000) translate(0.000000, 5.721680)"/>
                        <path d="M16.225 8.367c.517-.52.517-1.36-.002-1.877-.518-.518-1.358-.518-1.876 0-.519.518-.52 1.358-.002 1.877.52.515 1.36.515 1.88 0z" transform="translate(-290.000000, -1149.000000) translate(290.000000, 1096.000000) translate(-0.000000, 0.000000) translate(0.000000, 48.000000) translate(0.000000, 5.721680)"/>
                        <path fill-rule="nonzero" d="M27.006 3.769L29.323 0H12.768L0 21.197h13.873l-2.192 3.769h16.581L40.986 3.769h-13.98zM11.716 7.1c.19-1.954 1.923-3.387 3.878-3.206 1.955.182 3.395 1.91 3.22 3.866-.175 1.956-1.898 3.402-3.854 3.234-.949-.081-1.825-.539-2.434-1.27-.61-.732-.9-1.676-.81-2.624zm2.157 14.096L24.324 3.769h2.673L16.555 21.197h-2.682zM25.456 21c-1.944-.217-3.35-1.96-3.15-3.906.2-1.945 1.93-3.366 3.877-3.185 1.947.182 3.384 1.899 3.22 3.848-.081.951-.541 1.83-1.276 2.44-.736.61-1.685.9-2.636.803h-.035zM53.985 17.286h-3.457v7.707H46.19V3.93h7.823c2.053-.126 4.087.463 5.756 1.666 1.378 1.162 2.13 2.904 2.031 4.704.054 1.25-.256 2.487-.89 3.564-.7 1.026-1.685 1.822-2.834 2.29l4.562 8.607v.205h-4.723l-3.929-7.68zm-3.457-3.564h3.502c.919.06 1.825-.236 2.53-.829.613-.6.938-1.434.891-2.29.047-.863-.258-1.709-.846-2.343-.713-.633-1.65-.954-2.602-.891h-3.475v6.353zM73.89 24.992c-.213-.44-.355-.913-.418-1.399-1.008 1.127-2.464 1.747-3.974 1.693-1.394.052-2.756-.426-3.814-1.336-.983-.832-1.54-2.062-1.514-3.35-.07-1.504.623-2.942 1.844-3.823 1.6-.991 3.468-1.461 5.346-1.345h1.925v-.891c.03-.624-.166-1.238-.553-1.729-.464-.475-1.12-.715-1.782-.65-.594-.038-1.182.14-1.657.499-.405.345-.629.858-.606 1.39h-4.143c-.003-.907.291-1.79.838-2.513.615-.8 1.438-1.416 2.378-1.782 1.09-.452 2.26-.676 3.44-.659 1.655-.09 3.286.426 4.588 1.452 1.162 1.015 1.798 2.504 1.729 4.045v6.78c-.054 1.16.16 2.315.624 3.378v.24h-4.25zm-3.457-2.904c.604.009 1.201-.132 1.738-.41.491-.244.895-.633 1.158-1.114v-2.673h-1.595c-2.094 0-3.207.73-3.341 2.174v.25c-.011.487.19.956.552 1.283.416.347.948.522 1.488.49zM97.92 25.286c-2.08.084-4.104-.678-5.613-2.111-1.47-1.496-2.252-3.536-2.156-5.631v-.401c-.032-1.458.273-2.903.89-4.224.562-1.187 1.46-2.182 2.585-2.86 1.153-.681 2.473-1.03 3.813-1.007 1.899-.096 3.745.643 5.052 2.023 1.319 1.614 1.977 3.667 1.844 5.747v1.702h-9.952c.096.942.534 1.816 1.23 2.459.71.618 1.633.937 2.575.89 1.474.06 2.885-.606 3.777-1.781l2.059 2.299c-.652.904-1.531 1.62-2.549 2.076-1.109.533-2.324.813-3.555.82zm-.48-12.866c-.764-.028-1.5.282-2.015.847-.563.687-.904 1.529-.98 2.414h5.819v-.338c.032-.788-.235-1.559-.749-2.156-.549-.544-1.306-.823-2.076-.767z" transform="translate(-290.000000, -1149.000000) translate(290.000000, 1096.000000) translate(-0.000000, 0.000000) translate(0.000000, 48.000000) translate(0.000000, 5.721680)"/>
                        <path d="M117.923 19.469c.037-.74-.298-1.448-.891-1.89-.968-.615-2.022-1.083-3.127-1.39-1.229-.37-2.421-.85-3.564-1.434-2.397-1.292-3.564-3.038-3.564-5.221-.015-1.093.322-2.161.962-3.047.705-.937 1.654-1.662 2.744-2.094 1.286-.515 2.661-.77 4.045-.749 1.384-.027 2.757.253 4.019.82 1.118.488 2.071 1.29 2.744 2.308.655 1.003.997 2.179.98 3.377h-4.339c.056-.845-.272-1.669-.891-2.246-.724-.573-1.635-.859-2.557-.801-.876-.053-1.746.182-2.477.668-.573.41-.906 1.077-.891 1.782.001.726.393 1.397 1.025 1.755.95.576 1.975 1.017 3.047 1.31 1.991.485 3.84 1.431 5.399 2.762 1.115 1.071 1.73 2.561 1.693 4.107.064 1.683-.71 3.289-2.067 4.286-1.638 1.117-3.598 1.665-5.578 1.56-1.531.021-3.049-.283-4.455-.892-1.214-.513-2.258-1.36-3.011-2.441-.705-1.054-1.071-2.297-1.052-3.564h4.366c0 2.317 1.39 3.484 4.161 3.484.854.048 1.702-.173 2.424-.633.584-.414.909-1.103.855-1.817z" transform="translate(-290.000000, -1149.000000) translate(290.000000, 1096.000000) translate(-0.000000, 0.000000) translate(0.000000, 48.000000) translate(0.000000, 5.721680)"/>
                        <path fill-rule="nonzero" d="M132.144 25.286c-2.083.089-4.113-.674-5.623-2.111-1.47-1.495-2.249-3.537-2.147-5.631v-.401c-.031-1.458.274-2.903.891-4.224.564-1.185 1.462-2.18 2.584-2.86 1.154-.68 2.474-1.028 3.813-1.007 1.899-.096 3.745.643 5.052 2.023 1.319 1.614 1.978 3.667 1.845 5.747v1.702h-9.944c.093.94.528 1.815 1.221 2.459.714.62 1.64.938 2.584.89 1.475.06 2.885-.606 3.778-1.781l2.049 2.299c-.649.907-1.529 1.624-2.548 2.076-1.11.533-2.324.813-3.555.82zm-.482-12.866c-.762-.025-1.498.284-2.013.847-.57.684-.916 1.527-.989 2.414h5.809v-.338c.033-.788-.235-1.559-.748-2.156-.545-.539-1.294-.818-2.059-.767zM170.287 25.269c-2.076.077-4.096-.691-5.595-2.13-1.462-1.486-2.24-3.513-2.148-5.595v-.446c-.03-1.454.275-2.896.891-4.214.565-1.185 1.467-2.177 2.593-2.851 1.155-.678 2.475-1.023 3.814-.998 1.901-.091 3.747.655 5.052 2.04 1.293 1.625 1.929 3.676 1.782 5.747v1.71h-9.971c.096.941.53 1.815 1.221 2.46.706.63 1.628.966 2.575.935 1.468.065 2.878-.582 3.787-1.737l2.129 2.272c-.648.907-1.528 1.624-2.548 2.076-1.127.501-2.349.75-3.582.73zm-.436-12.857c-.763-.032-1.502.27-2.023.828-.569.686-.917 1.528-.998 2.415h5.818v-.339c.033-.787-.234-1.558-.748-2.156-.546-.53-1.291-.802-2.049-.748z" transform="translate(-290.000000, -1149.000000) translate(290.000000, 1096.000000) translate(-0.000000, 0.000000) translate(0.000000, 48.000000) translate(0.000000, 5.721680)"/>
                        <path d="M187.929 13.302c-.499-.076-1.002-.117-1.506-.124-1.577 0-2.62.525-3.11 1.595v10.246h-4.223l.045-15.655h3.956l.107 1.871c.657-1.324 2.013-2.158 3.492-2.147.441-.003.879.06 1.301.187l-.062 4.027zM86.026 21.464c-.251-.365-.368-.806-.33-1.248v-7.805h2.067l1.845-3.065h-3.912V5.497h-4.179v3.85H80.43l-1.844 3.055h2.931v8.438c.054 2.97 1.539 4.455 4.455 4.455.859.003 1.712-.126 2.53-.383V21.74c-.405.072-.817.105-1.229.098-.449.048-.898-.087-1.247-.374zM158.285 21.464c-.258-.362-.378-.805-.338-1.248v-7.805h2.076l1.844-3.065h-3.92V5.497h-4.179v3.85h-1.087l-1.836 3.055h2.923v8.438c.059 2.97 1.544 4.455 4.455 4.455.858.003 1.711-.127 2.53-.383V21.74c-.406.072-.817.105-1.229.098-.447.046-.893-.089-1.239-.374zM146.961 21.464c-.255-.364-.371-.806-.33-1.248v-7.805h2.067l1.88-3.065h-3.911V5.497h-4.179v3.85h-1.096l-1.835 3.055h2.931v8.438c.053 2.97 1.538 4.455 4.455 4.455.858.003 1.711-.127 2.53-.383V21.74c-.405.072-.817.105-1.229.098-.461.058-.926-.078-1.283-.374z" transform="translate(-290.000000, -1149.000000) translate(290.000000, 1096.000000) translate(-0.000000, 0.000000) translate(0.000000, 48.000000) translate(0.000000, 5.721680)"/>
                    </g>
                </g>
            </g>
        </g>
    </g>
</svg>
