<svg xmlns="http://www.w3.org/2000/svg" width="180" height="32" viewBox="0 0 180 32">
    <g fill="none" fill-rule="evenodd">
        <g fill="#999">
            <g>
                <g>
                    <g>
                        <path fill-rule="nonzero" d="M59.37 2.63v23.552h-3.23V23.43c-.473.96-1.183 1.696-2.13 2.208-.926.512-2.013.768-3.262.768-1.4 0-2.648-.352-3.745-1.056-1.098-.704-1.96-1.685-2.584-2.944-.602-1.28-.904-2.752-.904-4.416 0-1.664.301-3.125.904-4.384.603-1.259 1.443-2.23 2.519-2.912 1.098-.683 2.368-1.024 3.81-1.024 1.227 0 2.303.256 3.23.768.946.512 1.657 1.237 2.13 2.176V2.63h3.262zm-7.88 21.216c1.486 0 2.627-.501 3.424-1.504.818-1.024 1.227-2.453 1.227-4.288 0-1.835-.41-3.253-1.227-4.256-.797-1.024-1.927-1.536-3.39-1.536-1.486 0-2.649.501-3.488 1.504-.818 1.003-1.227 2.41-1.227 4.224 0 1.835.409 3.275 1.227 4.32.84 1.024 1.991 1.536 3.455 1.536zM78.724 10.054v16.128h-3.23V23.43c-.473.96-1.183 1.696-2.13 2.208-.926.512-2.013.768-3.262.768-1.442 0-2.712-.341-3.81-1.024-1.076-.683-1.916-1.643-2.519-2.88-.603-1.259-.904-2.72-.904-4.384 0-1.664.301-3.136.904-4.416.625-1.28 1.486-2.272 2.583-2.976 1.098-.704 2.347-1.056 3.746-1.056 1.249 0 2.336.267 3.261.8.926.512 1.636 1.248 2.132 2.208v-2.624h3.229zm-7.847 13.792c1.464 0 2.594-.501 3.39-1.504.819-1.024 1.228-2.453 1.228-4.288 0-1.856-.41-3.285-1.227-4.288-.797-1.003-1.938-1.504-3.423-1.504-1.464 0-2.616.523-3.455 1.568-.818 1.024-1.227 2.453-1.227 4.288 0 1.813.409 3.221 1.227 4.224.84 1.003 2.002 1.504 3.487 1.504zM87.422 12.55v8.096c0 1.11.237 1.899.71 2.368.495.448 1.173.672 2.035.672.56 0 1.13-.085 1.711-.256v2.624c-.71.235-1.518.352-2.422.352-1.679 0-2.981-.47-3.907-1.408-.926-.939-1.388-2.304-1.388-4.096V12.55h-3.165v-2.496h3.165V6.022l3.26-1.12v5.152h4.49v2.496h-4.49zM109.485 10.054v16.128h-3.229V23.43c-.473.96-1.184 1.696-2.131 2.208-.926.512-2.013.768-3.261.768-1.443 0-2.713-.341-3.81-1.024-1.077-.683-1.916-1.643-2.52-2.88-.602-1.259-.903-2.72-.903-4.384 0-1.664.301-3.136.904-4.416.624-1.28 1.485-2.272 2.583-2.976 1.098-.704 2.347-1.056 3.746-1.056 1.248 0 2.335.267 3.261.8.926.512 1.636 1.248 2.131 2.208v-2.624h3.229zm-7.846 13.792c1.464 0 2.594-.501 3.39-1.504.818-1.024 1.227-2.453 1.227-4.288 0-1.856-.409-3.285-1.227-4.288-.796-1.003-1.937-1.504-3.423-1.504-1.463 0-2.615.523-3.455 1.568-.818 1.024-1.227 2.453-1.227 4.288 0 1.813.41 3.221 1.227 4.224.84 1.003 2.002 1.504 3.488 1.504zM120.831 5.222c-1.786 0-2.68 1.013-2.68 3.04v1.792h3.81v2.496h-3.81v13.632h-3.261V12.55h-3.132v-2.496h3.132V8.006c0-1.792.452-3.157 1.356-4.096.926-.939 2.217-1.408 3.875-1.408.861 0 1.647.107 2.357.32v2.656c-.581-.17-1.13-.256-1.647-.256zM131.8 26.406c-1.593 0-2.992-.341-4.197-1.024-1.206-.683-2.142-1.653-2.81-2.912-.645-1.259-.968-2.73-.968-4.416 0-1.685.323-3.157.968-4.416.668-1.28 1.604-2.261 2.81-2.944 1.205-.683 2.604-1.024 4.197-1.024 1.572 0 2.96.341 4.166 1.024 1.205.683 2.131 1.664 2.777 2.944.667 1.259 1.001 2.73 1.001 4.416 0 1.685-.334 3.157-1.001 4.416-.646 1.259-1.572 2.23-2.777 2.912-1.206.683-2.594 1.024-4.166 1.024zm-.032-2.56c1.507 0 2.659-.49 3.455-1.472.797-.981 1.195-2.421 1.195-4.32 0-1.856-.409-3.285-1.227-4.288-.797-1.003-1.927-1.504-3.391-1.504-1.485 0-2.637.501-3.455 1.504-.818 1.003-1.227 2.432-1.227 4.288 0 1.899.399 3.339 1.195 4.32.818.981 1.97 1.472 3.455 1.472zM151.338 9.67c.495 0 1.012.075 1.55.224l-.065 2.944c-.581-.213-1.216-.32-1.905-.32-1.485 0-2.605.448-3.358 1.344-.732.875-1.098 1.984-1.098 3.328v8.992h-3.229V14.598c0-1.685-.086-3.2-.258-4.544h3.035l.291 2.912c.43-1.067 1.097-1.877 2.002-2.432.904-.576 1.915-.864 3.035-.864zM173.617 9.67c3.617 0 5.425 2.155 5.425 6.464v10.048h-3.261v-9.888c0-1.387-.248-2.4-.743-3.04-.473-.64-1.248-.96-2.325-.96-1.248 0-2.239.427-2.97 1.28-.711.853-1.066 2.016-1.066 3.488v9.12h-3.261v-9.888c0-1.387-.248-2.4-.743-3.04-.474-.64-1.249-.96-2.325-.96-1.249 0-2.239.427-2.971 1.28-.732.853-1.098 2.016-1.098 3.488v9.12h-3.229V14.598c0-1.685-.086-3.2-.258-4.544h3.035l.291 2.688c.474-.981 1.152-1.739 2.034-2.272.883-.533 1.916-.8 3.1-.8 2.519 0 4.166 1.035 4.941 3.104.495-.96 1.216-1.717 2.163-2.272.969-.555 2.056-.832 3.261-.832z" transform="translate(-765.000000, -1146.000000) translate(290.000000, 1096.000000) translate(-0.000000, 0.000000) translate(0.000000, 48.000000) translate(475.000000, 2.000000)"/>
                        <path d="M19.15 32c8.879 0 16.076-7.163 16.076-16S28.029 0 19.15 0H0v32h7.339v-4.364h2.935v-7.272H5.871V13.09h2.935V5.818h14.678v7.273H13.21v7.273h7.338v7.272h-5.87V32h4.473z" transform="translate(-765.000000, -1146.000000) translate(290.000000, 1096.000000) translate(-0.000000, 0.000000) translate(0.000000, 48.000000) translate(475.000000, 2.000000)"/>
                    </g>
                </g>
            </g>
        </g>
    </g>
</svg>
