<svg xmlns="http://www.w3.org/2000/svg" width="146" height="25" viewBox="0 0 146 25">
    <g fill="none" fill-rule="evenodd">
        <g fill="#999" fill-rule="nonzero">
            <g>
                <g>
                    <g>
                        <path d="M0 24.565L0 .399 5.904.399 5.904 24.565zM38.377 12.5c0-4.492-1.75-6.992-5.03-6.992h-2.66v13.95h2.66c3.171 0 5.03-2.719 5.03-6.957zM24.783 24.566V.4h8.528C40.345.4 44.39 5.363 44.39 12.501c0 7.137-4.009 12.064-11.043 12.064h-8.564zM47.27 15.942V.399h5.94v15.58c0 2.463 1.275 3.876 3.644 3.876 2.296 0 3.608-1.413 3.608-3.877V.398h5.94v15.508c0 5.797-3.79 9.094-9.548 9.094s-9.584-3.297-9.584-9.058zM68.736 21.811l2.77-4.564c1.421 1.521 3.571 2.572 5.977 2.572 1.822 0 2.842-.87 2.842-2.03 0-3.477-10.86-1.956-10.86-10.361C69.465 3.55 72.49 0 78.029 0c3.098 0 5.831.978 7.836 2.754L83.168 7.21c-1.53-1.376-3.463-2.029-5.321-2.029-1.567 0-2.37.761-2.37 1.848 0 3.189 10.825 2.102 10.825 10.253 0 4.53-3.208 7.718-8.747 7.718-3.972 0-6.778-1.196-8.819-3.189zM93.082 24.565L93.082 5.508 87.834 5.508 87.834.399 104.234.399 104.234 5.508 98.986 5.508 98.986 24.565zM118.666 8.334c0-1.775-1.13-2.826-2.734-2.826h-3.134v5.652h3.134c1.604 0 2.734-1.05 2.734-2.826zm-.365 16.231l-3.28-8.296h-2.223v8.296h-5.903V.4h9.912c4.774 0 7.872 3.37 7.872 7.826 0 4.131-2.187 6.196-4.009 6.993l4.155 9.347h-6.524zM132.114 24.565L132.114 14.747 124.533.399 130.984.399 135.066 9.385 139.111.399 145.561.399 138.018 14.747 138.018 24.565zM11.902.419L18.979 12.681 18.979.419 11.822.419M11.815 24.565L19.293 24.565 11.823 11.681 11.823 24.565" transform="translate(-1005.000000, -1150.000000) translate(290.000000, 1096.000000) translate(-0.000000, 0.000000) translate(0.000000, 48.000000) translate(715.000000, 6.000107)"/>
                    </g>
                </g>
            </g>
        </g>
    </g>
</svg>
