<svg xmlns="http://www.w3.org/2000/svg" width="167" height="37" viewBox="0 0 167 37">
    <g fill="none" fill-rule="evenodd">
        <g fill="#999" fill-rule="nonzero">
            <g>
                <g>
                    <g>
                        <path d="M15.164 10.229V8.713h4.546v18.942h-4.546V26.14c-1.641 1.39-3.662 2.02-5.809 2.02-1.262 0-2.525-.252-3.662-.757-1.136-.505-2.147-1.263-3.03-2.147C.894 23.236.01 20.71.01 18.058c-.127-2.652.884-5.177 2.651-7.072.884-.884 1.895-1.641 3.031-2.146 1.137-.505 2.4-.758 3.662-.758 2.147.126 4.168.758 5.81 2.147zm-5.177 2.525c-.632 0-1.39.127-2.02.38-.632.252-1.137.63-1.642 1.136-1.01 1.01-1.516 2.4-1.516 3.914 0 1.39.505 2.905 1.516 3.915.505.505 1.01.884 1.641 1.137.632.252 1.263.378 2.02.378.632 0 1.39-.126 2.021-.378.632-.253 1.137-.632 1.642-1.137 1.01-1.01 1.515-2.4 1.515-3.915 0-1.389-.505-2.904-1.515-3.914-.505-.505-1.01-.884-1.642-1.137-.757-.252-1.389-.379-2.02-.379zM37.01 10.229V.379h4.547v27.403H37.01v-1.516c-1.642 1.39-3.662 2.02-5.81 2.02-1.262 0-2.525-.252-3.661-.757-1.137-.505-2.147-1.263-3.031-2.147-1.768-2.02-2.652-4.546-2.652-7.198-.126-2.652.884-5.177 2.652-7.071.884-1.01 1.894-1.768 3.03-2.273 1.137-.505 2.4-.758 3.663-.758 2.147.126 4.167.758 5.809 2.147zm-5.177 2.525c-.631 0-1.389.127-2.02.38-.632.252-1.137.63-1.642 1.136-1.01 1.01-1.515 2.399-1.515 3.914 0 1.39.505 2.905 1.515 3.915.505.505 1.01.884 1.642 1.137.631.252 1.262.378 2.02.378.632 0 1.39-.126 2.02-.378.632-.253 1.137-.632 1.642-1.137 1.01-1.01 1.516-2.4 1.516-3.915 0-1.389-.506-2.904-1.516-3.914-.505-.505-1.01-.884-1.641-1.137-.758-.252-1.39-.379-2.02-.379zM43.198 8.713L47.871 8.713 53.174 21.972 58.352 8.713 63.024 8.713 55.195 27.655 50.901 27.655zM67.444 19.826c.379 1.263 1.01 2.273 2.02 3.03 1.01.758 2.273 1.137 3.536 1.137.884 0 1.642-.126 2.526-.505.758-.379 1.515-.884 2.02-1.515l4.42 1.263c-.884 1.262-1.894 2.399-3.283 3.283-1.263.884-2.778 1.389-4.294 1.515-1.515.253-3.157 0-4.546-.379-1.515-.505-2.904-1.262-4.04-2.273-1.011-.884-1.642-2.02-2.147-3.283-.506-1.263-.758-2.526-.758-3.915 0-1.262.252-2.652.631-3.914.505-1.263 1.263-2.4 2.147-3.284.884-.884 2.02-1.641 3.283-2.146 1.263-.505 2.526-.758 3.915-.758 1.263 0 2.652.253 3.788.758 1.263.505 2.273 1.262 3.284 2.146.884.884 1.641 2.02 2.146 3.284.505 1.263.758 2.525.758 3.914 0 .505 0 1.137-.126 1.642h-15.28zM78.05 16.29c-.378-1.136-1.01-2.146-2.02-2.904s-2.147-1.137-3.283-1.137c-1.137 0-2.273.38-3.284 1.137-.884.758-1.641 1.768-1.894 2.904h10.481zM89.29 11.112c1.263-1.894 3.41-2.904 6.188-2.904v5.051c-.631-.252-1.263-.379-1.894-.379s-1.136.127-1.642.253c-.505.253-1.01.505-1.389 1.01-.379.379-.757.884-.884 1.39-.252.504-.252 1.136-.252 1.64v10.482H84.87V8.713h4.546v2.4h-.126zM107.348 14.017c-.378-1.263-1.515-1.894-3.283-1.894-1.515 0-2.652.631-2.652 1.642 0 .631.505 1.136 1.642 1.515l3.915 1.263c3.535 1.263 4.925 2.904 4.925 5.682 0 3.915-3.157 5.935-7.451 5.935-4.546 0-7.324-2.146-7.83-5.556l4.294-.631c.379 1.389 1.642 2.273 3.662 2.273 1.768 0 3.03-.631 3.03-1.894 0-.758-.63-1.39-2.146-1.768l-3.914-1.263c-3.158-1.01-4.547-2.652-4.547-5.304 0-3.915 3.031-5.935 7.325-5.935 4.167 0 6.819 1.894 7.324 5.051l-4.294.884zM114.04 8.713h4.548v9.976c0 2.778 1.894 4.925 4.419 4.925 2.526 0 4.42-2.147 4.42-4.925V8.713h4.546v10.481c0 1.263-.126 2.4-.631 3.536-.505 1.136-1.137 2.147-2.021 3.03-.884.885-1.768 1.516-2.904 1.895-1.137.505-2.273.631-3.41.631-1.136 0-2.4-.126-3.536-.631-1.136-.505-2.146-1.137-2.904-1.894-.884-.884-1.515-1.895-1.894-3.031-.38-1.137-.632-2.273-.632-3.536V8.713zM144.727 14.017c-.378-1.263-1.515-1.894-3.283-1.894-1.515 0-2.652.631-2.652 1.642 0 .631.505 1.136 1.642 1.515l3.915 1.263c3.535 1.263 4.925 2.904 4.925 5.682 0 3.915-3.157 5.935-7.451 5.935-4.546 0-7.324-2.146-7.83-5.556l4.294-.631c.379 1.389 1.642 2.273 3.662 2.273 1.768 0 3.03-.631 3.03-1.894 0-.758-.757-1.39-2.146-1.768l-3.914-1.263c-3.157-1.01-4.546-2.652-4.546-5.304 0-3.915 3.03-5.935 7.324-5.935 4.167 0 6.819 1.894 7.324 5.051l-4.294.884zM157.987 37l-3.157-3.157c2.02-2.02 3.662-4.42 4.672-7.072 1.137-2.652 1.642-5.43 1.642-8.334 0-2.905-.505-5.683-1.642-8.335-1.136-2.651-2.652-5.05-4.672-7.071L157.987 0c4.925 4.925 7.703 11.492 7.703 18.437S162.912 32.075 157.987 37z" transform="translate(-538.000000, -1144.000000) translate(290.000000, 1096.000000) translate(-0.000000, 0.000000) translate(0.000000, 48.000000) translate(248.863159, 0.000000)"/>
                    </g>
                </g>
            </g>
        </g>
    </g>
</svg>
