<svg xmlns="http://www.w3.org/2000/svg" width="1021" height="762" viewBox="0 0 1021 762">
    <defs>
        <linearGradient id="bni9ypxhta" x1="50%" x2="50%" y1="0%" y2="100%">
            <stop offset="0%" stop-color="#E1E1E1"/>
            <stop offset="100%" stop-color="#E1E1E1" stop-opacity="0"/>
        </linearGradient>
        <linearGradient id="4wyahcxb6b" x1="50%" x2="50%" y1="0%" y2="100%">
            <stop offset="0%" stop-color="#E1E1E1"/>
            <stop offset="100%" stop-color="#E1E1E1" stop-opacity="0"/>
        </linearGradient>
        <linearGradient id="mwhwyfjknc" x1="50%" x2="50%" y1="0%" y2="100%">
            <stop offset="0%" stop-color="#E1E1E1"/>
            <stop offset="100%" stop-color="#E1E1E1" stop-opacity="0"/>
        </linearGradient>
        <linearGradient id="izjkylq24d" x1="50%" x2="50%" y1="0%" y2="100%">
            <stop offset="0%" stop-color="#E1E1E1"/>
            <stop offset="100%" stop-color="#E1E1E1" stop-opacity="0"/>
        </linearGradient>
        <linearGradient id="n0vfaii6ke" x1="50%" x2="50%" y1="0%" y2="100%">
            <stop offset="0%" stop-color="#E1E1E1"/>
            <stop offset="100%" stop-color="#E1E1E1" stop-opacity="0"/>
        </linearGradient>
    </defs>
    <g fill="none" fill-rule="evenodd" opacity=".5">
        <g>
            <g>
                <g>
                    <g>
                        <path stroke="url(#bni9ypxhta)" d="M993.117 393.012c49.144 70.423 13.548 119.099 11.705 177.547-1.96 62.186 37.494 146.484-22.817 174.939-61.473 29.014-177.357 12.106-285.264-29.546-98.5-38.005-159.561-126.429-254.459-178.739-115.175-63.491-258.098-72.11-348.372-153.554-90.646-81.775-110.037-176.15-82.093-234.775 26.482-55.555 151.01-36.311 223.02-60.874 72.88-24.854 89.645-107.95 200.519-83.587 110.707 24.325 209.37 125.066 311.247 196.044 89.634 62.447 196.583 120.98 246.514 192.545z" transform="translate(-419.000000, -3538.000000) translate(-1.000000, 1277.000000) translate(0.000000, 2262.000000) translate(930.500000, 380.000000) scale(-1, 1) translate(-930.500000, -380.000000) translate(421.000000, 0.000000)"/>
                        <path stroke="url(#4wyahcxb6b)" d="M942.024 391.056c43.63 62.545 12.02 105.78 10.384 157.69-1.742 55.234 33.306 130.097-20.262 155.38-54.592 25.76-157.517 10.742-253.356-26.244-87.476-33.762-141.707-112.293-225.988-158.747-102.29-56.397-229.223-64.054-309.398-136.383-80.506-72.627-97.726-156.445-72.908-208.516 23.518-49.341 134.115-32.25 198.069-54.065 64.727-22.078 79.618-95.881 178.087-74.243 98.322 21.605 185.946 111.078 276.43 174.118 79.603 55.462 174.59 107.45 218.942 171.01z" transform="translate(-419.000000, -3538.000000) translate(-1.000000, 1277.000000) translate(0.000000, 2262.000000) translate(930.500000, 380.000000) scale(-1, 1) translate(-930.500000, -380.000000) translate(421.000000, 0.000000)"/>
                        <path stroke="url(#mwhwyfjknc)" d="M888.017 389.55c37.944 54.39 10.456 91.984 9.033 137.126-1.52 48.033 28.958 113.142-17.625 135.125-47.469 22.408-136.978 9.345-220.319-22.824-76.068-29.36-123.23-97.65-196.521-138.046-88.953-49.04-199.336-55.704-269.055-118.603-70.009-63.158-84.985-136.053-63.403-181.332 20.454-42.908 116.629-28.045 172.244-47.016 56.288-19.2 69.236-83.381 154.866-64.564 85.502 18.788 161.7 96.597 240.379 151.418 69.233 48.232 151.832 93.441 190.401 148.715z" transform="translate(-419.000000, -3538.000000) translate(-1.000000, 1277.000000) translate(0.000000, 2262.000000) translate(930.500000, 380.000000) scale(-1, 1) translate(-930.500000, -380.000000) translate(421.000000, 0.000000)"/>
                        <path stroke="url(#izjkylq24d)" d="M838.81 388.146c32.64 46.792 8.995 79.137 7.772 117.97-1.302 41.33 24.915 97.338-15.156 116.251-40.844 19.276-117.84 8.035-189.533-19.633-65.435-25.259-106.002-84.012-169.051-118.773-76.517-42.183-171.473-47.916-231.45-102.027-60.223-54.333-73.105-117.047-54.542-156.001 17.594-36.915 100.328-24.128 148.17-40.449 48.42-16.518 59.558-71.733 133.217-55.546 73.555 16.165 139.102 83.104 206.788 130.267 59.553 41.494 130.61 80.388 163.785 127.94z" transform="translate(-419.000000, -3538.000000) translate(-1.000000, 1277.000000) translate(0.000000, 2262.000000) translate(930.500000, 380.000000) scale(-1, 1) translate(-930.500000, -380.000000) translate(421.000000, 0.000000)"/>
                        <path stroke="url(#n0vfaii6ke)" d="M786.706 386.193c27.141 38.916 7.481 65.818 6.462 98.117-1.084 34.373 20.716 80.947-12.61 96.68-33.955 16.029-97.985 6.682-157.609-16.328-54.417-21.01-88.155-69.87-140.585-98.778-63.636-35.087-142.598-39.853-192.477-84.858-50.083-45.19-60.797-97.346-45.359-129.744 14.631-30.7 83.434-20.066 123.22-33.642 40.266-13.738 49.529-59.66 110.785-46.196 61.167 13.443 115.681 69.115 171.965 108.34 49.53 34.513 108.621 66.86 136.208 106.409z" transform="translate(-419.000000, -3538.000000) translate(-1.000000, 1277.000000) translate(0.000000, 2262.000000) translate(930.500000, 380.000000) scale(-1, 1) translate(-930.500000, -380.000000) translate(421.000000, 0.000000)"/>
                    </g>
                </g>
            </g>
        </g>
    </g>
</svg>
