<svg xmlns="http://www.w3.org/2000/svg" width="28" height="28" viewBox="0 0 28 28" fill="none"><g clip-path="url(#clip0_154_591)"><path d="M14 0C6.268 0 0 6.268 0 14C0 21.732 6.268 28 14 28C21.732 28 28 21.732 28 14C28 6.268 21.7319 0 14 0ZM25.3218 12.9932C23.8358 12.9335 21.0238 12.932 17.8285 13.4907C17.5399 12.7987 17.245 12.135 16.9488 11.5018C17.1338 11.4154 17.3174 11.3276 17.4975 11.2368C19.6922 10.1308 21.5147 8.69998 22.9352 6.97281C24.3046 8.70702 25.1293 10.7845 25.3218 12.9932ZM21.0659 5.09579C19.7401 6.78464 17.9729 8.14054 15.7775 9.15394C15.5305 8.68859 15.2871 8.24595 15.0509 7.83043C13.8424 5.7052 12.6894 4.01378 11.8268 2.84039C12.5355 2.70397 13.2623 2.63358 14 2.63358C16.5984 2.63358 19.0633 3.5003 21.0659 5.09579ZM5.9627 5.9627C6.91098 5.01441 7.99747 4.25469 9.17659 3.7015C10.0044 4.77653 11.3677 6.67304 12.7962 9.19331C12.9595 9.48143 13.1266 9.78403 13.2957 10.0976C12.1981 10.437 11.0195 10.7101 9.75973 10.9153C6.9335 11.3755 4.38643 11.3615 2.95593 11.2961C3.44229 9.29385 4.4686 7.45686 5.9627 5.9627ZM2.63358 14C2.63358 13.9731 2.63437 13.9462 2.63457 13.9193C3.12027 13.9452 3.73844 13.9664 4.45905 13.9664C5.98153 13.9664 7.96152 13.8716 10.1151 13.5257C11.6687 13.2761 13.1329 12.9239 14.4957 12.4728C14.7366 12.9832 14.9768 13.5151 15.2135 14.067C13.4678 14.5366 11.8652 15.1509 10.4277 15.9036C8.09537 17.1249 6.19551 18.7118 4.76514 20.6298C3.38099 18.7104 2.63358 16.4128 2.63358 14ZM6.58324 22.6141C8.58324 19.685 11.8074 17.6444 16.1894 16.5311C17.0682 18.9475 17.8201 21.6496 18.2537 24.5463C16.9197 25.0841 15.4817 25.3664 14 25.3664C11.2479 25.3664 8.64507 24.3949 6.58324 22.6141ZM22.0372 22.0372C21.6177 22.4568 21.1709 22.8388 20.7012 23.1831C20.2515 20.61 19.5752 18.1968 18.7962 15.9997C21.5569 15.5667 23.9859 15.5775 25.2508 15.6281C24.9061 18.0464 23.7954 20.2792 22.0372 22.0372Z" fill="#A6285F"></path></g><defs><clipPath id="clip0_154_591"><rect width="28" height="28" fill="white"></rect></clipPath></defs></svg>