<svg xmlns="http://www.w3.org/2000/svg" width="29" height="29" viewBox="0 0 29 29" fill="none"><g clip-path="url(#clip0_154_711)"><path d="M14.4564 0.922363C6.75526 0.922363 0.510498 7.34061 0.510498 15.2582C0.510498 21.5922 4.5064 26.9658 10.0476 28.8614C10.7445 28.9941 11.0004 28.5505 11.0004 28.1718C11.0004 27.83 10.9874 26.7006 10.9815 25.5027C7.10165 26.3699 6.28298 23.8113 6.28298 23.8113C5.64861 22.1542 4.73456 21.7137 4.73456 21.7137C3.46931 20.8239 4.82994 20.8421 4.82994 20.8421C6.23037 20.9433 6.96778 22.3195 6.96778 22.3195C8.21159 24.5112 10.2302 23.8775 11.026 23.5113C11.1512 22.5846 11.5126 21.9523 11.9114 21.5943C8.81392 21.2317 5.55761 20.0025 5.55761 14.5095C5.55761 12.9444 6.1024 11.6655 6.99458 10.6616C6.84976 10.3004 6.37245 8.84238 7.12965 6.86772C7.12965 6.86772 8.30073 6.48241 10.9658 8.33722C12.0781 8.01948 13.2712 7.86028 14.4564 7.85488C15.6415 7.86028 16.8355 8.01948 17.95 8.33722C20.6119 6.48241 21.7813 6.86772 21.7813 6.86772C22.5404 8.84238 22.0628 10.3004 21.918 10.6616C22.8122 11.6655 23.3532 12.9443 23.3532 14.5095C23.3532 20.0155 20.0908 21.228 16.9854 21.5829C17.4856 22.0278 17.9313 22.9002 17.9313 24.2376C17.9313 26.1557 17.9151 27.6996 17.9151 28.1718C17.9151 28.5533 18.1661 29.0003 18.8731 28.8595C24.4112 26.9618 28.4021 21.5901 28.4021 15.2582C28.4021 7.34061 22.1582 0.922363 14.4564 0.922363Z" fill="#161614"></path><path d="M5.73369 21.3442C5.70307 21.4153 5.59391 21.4367 5.49471 21.3879C5.39353 21.3411 5.33666 21.244 5.36947 21.1725C5.39955 21.0992 5.50871 21.0787 5.60966 21.128C5.71105 21.1746 5.7688 21.2727 5.73369 21.3442ZM6.41969 21.9733C6.35319 22.0368 6.22314 22.0073 6.13488 21.9071C6.04366 21.8072 6.0266 21.6736 6.09408 21.6092C6.16266 21.5459 6.28877 21.5754 6.38021 21.6755C6.47142 21.7766 6.48914 21.9094 6.41958 21.9735M6.89033 22.7784C6.8048 22.8394 6.66502 22.7822 6.57872 22.6547C6.4933 22.5273 6.4933 22.3744 6.58058 22.3131C6.66721 22.2518 6.8048 22.3069 6.8923 22.4334C6.97761 22.5631 6.97761 22.716 6.89022 22.7785M7.68614 23.7108C7.60969 23.7974 7.44694 23.7742 7.32772 23.6559C7.20588 23.5403 7.17186 23.3763 7.24853 23.2896C7.32586 23.2028 7.4896 23.2272 7.60969 23.3445C7.73077 23.4598 7.76763 23.6251 7.68614 23.7108ZM8.71471 24.0256C8.68113 24.1378 8.52428 24.1888 8.36635 24.1412C8.20863 24.092 8.10538 23.9605 8.13721 23.847C8.17002 23.7341 8.32752 23.6809 8.48666 23.7319C8.64416 23.7808 8.74752 23.9114 8.71471 24.0256ZM9.88546 24.159C9.88939 24.2773 9.75541 24.3754 9.5896 24.3775C9.4228 24.3812 9.28794 24.2855 9.28619 24.1693C9.28619 24.0499 9.41711 23.9527 9.5838 23.9499C9.74961 23.9465 9.88546 24.0416 9.88546 24.159ZM11.0354 24.1137C11.0553 24.2291 10.94 24.3476 10.7754 24.3791C10.6136 24.4094 10.4637 24.3383 10.443 24.2239C10.4229 24.1056 10.5404 23.9873 10.7019 23.9566C10.8669 23.9271 11.0144 23.9965 11.0354 24.1137Z" fill="#161614"></path></g><defs><clipPath id="clip0_154_711"><rect width="28" height="28" fill="white" transform="translate(0.510498 0.922363)"></rect></clipPath></defs></svg>