<svg xmlns="http://www.w3.org/2000/svg" width="28" height="28" viewBox="0 0 28 28" fill="none"><g clip-path="url(#clip0_154_702)"><path d="M28 14.3101C28 13.1623 27.9047 12.3247 27.6984 11.4561H14.2857V16.6367H22.1587C22 17.9242 21.1428 19.8631 19.238 21.1659L19.2113 21.3394L23.4522 24.5498L23.746 24.5785C26.4444 22.1432 28 18.5601 28 14.3101Z" fill="#4285F4"></path><path d="M14.2857 27.9602C18.1428 27.9602 21.3809 26.7193 23.746 24.5788L19.2381 21.1663C18.0317 21.9884 16.4127 22.5623 14.2857 22.5623C10.508 22.5623 7.30164 20.1271 6.15867 16.7612L5.99114 16.7751L1.58144 20.11L1.52377 20.2667C3.87296 24.8269 8.69836 27.9602 14.2857 27.9602Z" fill="#34A853"></path><path d="M6.15867 16.761C5.85709 15.8924 5.68255 14.9616 5.68255 14C5.68255 13.0382 5.85709 12.1076 6.1428 11.239L6.13481 11.054L1.66986 7.66553L1.52377 7.73343C0.555562 9.62581 0 11.7509 0 14C0 16.2491 0.555562 18.374 1.52377 20.2664L6.15867 16.761Z" fill="#FBBC05"></path><path d="M14.2857 5.43787C16.9682 5.43787 18.7777 6.57018 19.8095 7.51642L23.8412 3.66964C21.3651 1.42053 18.1428 0.0400391 14.2857 0.0400391C8.69836 0.0400391 3.87296 3.17326 1.52377 7.73349L6.1428 11.239C7.30164 7.87314 10.508 5.43787 14.2857 5.43787Z" fill="#EB4335"></path></g><defs><clipPath id="clip0_154_702"><rect width="28" height="28" fill="white"></rect></clipPath></defs></svg>