<svg xmlns="http://www.w3.org/2000/svg" width="606" height="661" viewBox="0 0 606 661" fill="none"><path opacity="0.5" d="M489.351 292.763C484.385 290.653 479.368 288.849 474.32 287.34C449.347 279.879 429.711 260.334 422.386 235.285C405.744 178.369 364.83 129.053 306.225 103.787C201.994 58.8496 80.6227 107.259 35.7951 211.67C-9.17663 316.415 39.2877 437.785 143.908 482.607C181.883 498.88 222.03 502.822 259.904 496.23C285.629 491.751 311.758 500.932 329.445 520.168C342.626 534.501 358.977 546.337 378.022 554.499C450.203 585.425 533.76 551.835 564.545 479.473C595.397 406.963 561.796 323.547 489.351 292.763Z" fill="#00379E"></path><g filter="url(#filter0_f_114_6370)"><circle cx="135.5" cy="135.5" r="135.5" transform="matrix(-1 0 0 1 438.464 55)" fill="#A6A6A6"></circle></g><rect width="70" height="70" transform="matrix(-1 0 0 1 546.464 220)" fill="#43629E"></rect><rect width="70" height="70" transform="matrix(-1 0 0 1 546.464 308)" fill="#43629E"></rect><rect width="70" height="70" transform="matrix(-1 0 0 1 546.464 396)" fill="#43629E"></rect><rect width="70" height="70" transform="matrix(-1 0 0 1 546.464 484)" fill="#43629E"></rect><rect width="70" height="70" transform="matrix(-1 0 0 1 204.464 133)" fill="#43629E"></rect><rect width="70" height="70" transform="matrix(-1 0 0 1 204.464 221)" fill="#43629E"></rect><path d="M151 264.383L141.918 252L132.842 264.383H151Z" fill="#6FA0FC"></path><path d="M151 288.219L141.918 275.836L132.842 288.219H151Z" fill="#6FA0FC"></path><path d="M151 312.666L141.918 300.284L132.842 312.666H151Z" fill="#6FA0FC"></path><path d="M151 336.502L141.918 324.12L132.842 336.502H151Z" fill="#6FA0FC"></path><path d="M151 360.95L141.918 348.567L132.842 360.95H151Z" fill="#6FA0FC"></path><path d="M98.968 271C98.9856 269.348 97.6516 268 96 268C94.3484 268 93.0144 269.348 93.032 271L96 549L98.968 271Z" fill="url(#paint0_linear_114_6370)"></path><path d="M303.48 222.123C338.368 222.123 366.65 193.218 366.65 157.561C366.65 121.905 338.368 92.9999 303.48 92.9999C268.592 92.9999 240.31 121.905 240.31 157.561C240.31 193.218 268.592 222.123 303.48 222.123Z" fill="#FCFCFC"></path><path d="M284.257 233.731C284.011 233.673 283.775 233.557 283.576 233.379C282.916 232.803 282.851 231.799 283.431 231.139C284.123 230.349 284.583 229.903 284.605 229.885C285.236 229.276 286.24 229.295 286.848 229.925C287.457 230.556 287.439 231.56 286.809 232.169C286.79 232.183 286.403 232.564 285.816 233.234C285.413 233.687 284.812 233.857 284.257 233.731Z" fill="#242669"></path><path d="M289.632 265.16L289.527 265.134C288.675 264.931 288.15 264.076 288.352 263.221C288.555 262.369 289.411 261.854 290.266 262.047L290.357 262.068C291.194 262.264 292.075 262.416 292.977 262.525C293.847 262.626 294.47 263.416 294.369 264.286C294.267 265.156 293.477 265.779 292.607 265.678C291.585 265.558 290.585 265.384 289.632 265.16ZM285.652 263.797C285.547 263.772 285.439 263.735 285.337 263.688C284.34 263.217 283.402 262.67 282.554 262.057C281.843 261.546 281.684 260.553 282.195 259.843C282.706 259.133 283.699 258.97 284.409 259.484C285.102 259.984 285.87 260.434 286.689 260.818C287.483 261.191 287.823 262.137 287.446 262.931C287.124 263.616 286.366 263.964 285.652 263.797ZM280.176 259.455C279.828 259.376 279.506 259.176 279.274 258.868C278.625 258.009 278.056 257.071 277.589 256.07C277.215 255.277 277.56 254.331 278.353 253.961C279.147 253.591 280.093 253.932 280.463 254.726C280.836 255.523 281.289 256.273 281.804 256.951C282.333 257.65 282.195 258.643 281.499 259.173C281.108 259.473 280.622 259.56 280.176 259.455ZM277.426 253.033C276.828 252.892 276.342 252.413 276.226 251.772C276.037 250.725 275.94 249.648 275.94 248.565C275.94 247.687 276.65 246.977 277.527 246.977C278.4 246.977 279.114 247.687 279.114 248.565C279.114 249.456 279.194 250.348 279.35 251.207C279.506 252.069 278.933 252.895 278.071 253.051C277.85 253.088 277.632 253.08 277.426 253.033ZM277.632 246.028C276.784 245.828 276.255 244.984 276.447 244.136L276.487 243.962C276.708 243.023 276.994 242.066 277.346 241.117C277.65 240.294 278.564 239.877 279.383 240.178C280.205 240.483 280.622 241.396 280.321 242.215C280.017 243.041 279.763 243.871 279.575 244.679L279.542 244.824C279.35 245.68 278.502 246.216 277.647 246.024C277.643 246.031 277.636 246.031 277.632 246.028ZM280.198 239.482C280.057 239.45 279.919 239.399 279.789 239.323C279.024 238.899 278.745 237.931 279.172 237.166C279.662 236.286 280.205 235.405 280.792 234.542C281.285 233.818 282.271 233.633 282.996 234.126C283.721 234.619 283.906 235.608 283.413 236.329C282.88 237.112 282.387 237.909 281.945 238.707C281.597 239.341 280.872 239.642 280.198 239.482Z" fill="#242669"></path><path d="M296.55 265.827C295.865 265.667 295.347 265.062 295.325 264.33C295.3 263.453 295.989 262.724 296.866 262.699C297.754 262.674 298.297 262.608 298.301 262.608C299.171 262.503 299.961 263.123 300.066 263.993C300.171 264.863 299.555 265.653 298.685 265.758C298.66 265.761 298.007 265.841 296.956 265.87C296.819 265.874 296.681 265.859 296.55 265.827Z" fill="#242669"></path><path d="M310.435 293.846L310.047 290.867C320.206 289.537 326.707 285.934 329.371 280.157C332.64 273.061 329.172 264.53 326.878 261.007C321.365 252.537 321.579 245.285 322.728 240.694C323.982 235.681 326.573 232.699 326.682 232.575L328.936 234.561L327.809 233.568L328.94 234.558C328.574 234.978 320.071 245.05 329.393 259.373C332.191 263.671 335.906 273.148 332.097 281.415C328.973 288.192 321.684 292.375 310.435 293.846Z" fill="#242669"></path><path d="M190.079 305.577C189.977 305.313 187.607 299.054 187.342 291.7C186.98 281.643 190.767 274.482 198.295 270.995C212.541 264.392 225.556 272.021 230.456 274.891C231.17 275.308 231.974 275.783 232.217 275.862C232.214 275.862 231.931 275.772 231.55 275.899L232.5 278.747C231.605 279.048 230.876 278.62 228.937 277.482C223.983 274.579 212.382 267.777 199.56 273.72C184.048 280.907 192.793 304.269 192.884 304.504L190.079 305.577Z" fill="white"></path><path d="M407.165 306.15L404.36 305.073C404.45 304.838 413.166 281.465 397.684 274.29C384.861 268.346 373.26 275.148 368.306 278.051C366.367 279.189 365.642 279.613 364.743 279.316L365.693 276.468C365.312 276.341 365.03 276.431 365.026 276.431C365.265 276.352 366.073 275.877 366.787 275.46C371.687 272.59 384.698 264.961 398.949 271.564C406.476 275.054 410.263 282.212 409.901 292.269C409.636 299.626 407.266 305.885 407.165 306.15Z" fill="white"></path><path d="M253.941 526.313C224.907 524.222 208.671 517.999 204.307 507.282C199.342 495.094 211.052 479.611 221.805 467.485C234.421 453.256 234.308 433.686 231.989 419.776C229.448 404.525 223.776 392.525 223.719 392.406L226.429 391.112C226.669 391.612 232.319 403.554 234.939 419.21C238.44 440.118 234.674 457.504 224.052 469.482C213.875 480.96 202.749 495.5 207.087 506.155C210.925 515.574 226.759 521.351 254.155 523.323L253.941 526.313Z" fill="url(#paint1_linear_114_6370)"></path><path d="M340.853 529.278L340.668 526.281C368.081 524.588 383.977 518.974 387.909 509.595C392.356 498.983 381.382 484.33 371.321 472.751C360.822 460.664 357.238 443.243 360.949 422.371C363.729 406.744 369.502 394.86 369.745 394.363L372.441 395.686C372.383 395.806 366.588 407.744 363.892 422.969C361.431 436.857 361.116 456.424 373.586 470.783C384.216 483.018 395.763 498.621 390.674 510.758C386.202 521.424 369.904 527.484 340.853 529.278Z" fill="url(#paint2_linear_114_6370)"></path><path d="M224.01 355.388C243.86 355.388 259.951 339.321 259.951 319.5C259.951 299.679 243.86 283.611 224.01 283.611C204.16 283.611 188.069 299.679 188.069 319.5C188.069 339.321 204.16 355.388 224.01 355.388Z" fill="#242669"></path><path d="M367.658 355.388C387.508 355.388 403.6 339.321 403.6 319.5C403.6 299.679 387.508 283.611 367.658 283.611C347.809 283.611 331.717 299.679 331.717 319.5C331.717 339.321 347.809 355.388 367.658 355.388Z" fill="#242669"></path><path d="M255.653 563.024C271.461 563.024 284.277 550.227 284.277 534.441C284.277 518.656 271.461 505.859 255.653 505.859C239.844 505.859 227.029 518.656 227.029 534.441C227.029 550.227 239.844 563.024 255.653 563.024Z" fill="#242669"></path><path d="M343.924 563.024C359.732 563.024 372.548 550.227 372.548 534.441C372.548 518.656 359.732 505.859 343.924 505.859C328.115 505.859 315.3 518.656 315.3 534.441C315.3 550.227 328.115 563.024 343.924 563.024Z" fill="#242669"></path><path d="M347.758 499.874H246.759L238.162 380.782H356.355L347.758 499.874Z" fill="#101755"></path><path d="M335.24 459.357C327.582 459.357 321.631 455.517 315.872 451.808C310.472 448.326 305.369 445.037 299.205 445.037C293.029 445.037 287.498 447.907 281.645 450.946C275.415 454.178 268.975 457.522 261.328 457.522C255.736 457.522 249.742 454.573 243.504 448.753L243.762 448.478C249.926 454.229 255.837 457.146 261.328 457.146C268.885 457.146 275.285 453.823 281.475 450.614C287.372 447.552 292.942 444.66 299.208 444.66C305.482 444.66 310.628 447.979 316.079 451.493C321.791 455.177 327.698 458.984 335.244 458.984C339.774 458.984 344.873 457.298 350.396 453.968L350.589 454.29C345.004 457.652 339.839 459.357 335.24 459.357Z" fill="#3B32A0"></path><path d="M335.24 473.308C327.582 473.308 321.631 469.471 315.872 465.758C310.472 462.277 305.369 458.987 299.205 458.987C293.029 458.987 287.498 461.857 281.645 464.894C275.415 468.125 268.975 471.469 261.328 471.469C256.077 471.469 250.441 468.849 244.584 463.681L244.834 463.399C250.619 468.505 256.171 471.093 261.328 471.093C268.885 471.093 275.285 467.771 281.475 464.561C287.372 461.503 292.942 458.611 299.208 458.611C305.482 458.611 310.628 461.93 316.079 465.44C321.791 469.12 327.698 472.928 335.244 472.928C339.477 472.928 344.221 471.447 349.349 468.531L349.534 468.856C344.348 471.813 339.542 473.308 335.24 473.308Z" fill="#3B32A0"></path><path d="M335.24 488.731C327.582 488.731 321.631 484.891 315.872 481.182C310.472 477.701 305.369 474.411 299.205 474.411C293.029 474.411 287.498 477.281 281.645 480.321C275.415 483.552 268.975 486.896 261.328 486.896C256.439 486.896 251.209 484.616 245.777 480.125L246.016 479.836C251.38 484.273 256.53 486.52 261.328 486.52C268.885 486.52 275.285 483.198 281.475 479.988C287.372 476.926 292.942 474.035 299.208 474.035C305.482 474.035 310.628 477.353 316.079 480.867C321.791 484.551 327.698 488.358 335.244 488.358C339.161 488.358 343.518 487.092 348.193 484.595L348.371 484.924C343.637 487.45 339.219 488.731 335.24 488.731Z" fill="#3B32A0"></path><path d="M383.746 349.909C376.067 391.845 363.762 445.836 347.62 445.836C324.556 445.836 323.936 420.471 297.092 420.471C270.244 420.471 269.783 445.836 246.715 445.836C231.399 445.836 219.708 401.815 211.709 359.543C213.286 352.833 212.836 303.985 212.63 283.469C214.351 281.703 216.265 280.053 218.338 278.511C225.586 273.123 234.853 269.062 245.331 266.221C275.818 257.934 316.525 259.921 347.356 269.334C359.899 273.166 370.804 278.225 378.723 284.316C378.973 284.512 379.227 284.707 379.47 284.902C378.955 288.065 380.662 342.613 383.746 349.909Z" fill="url(#paint3_linear_114_6370)"></path><path d="M383.746 349.91C376.067 391.846 363.762 445.836 347.62 445.836C324.556 445.836 323.936 420.471 297.092 420.471C270.244 420.471 269.783 445.836 246.715 445.836C231.399 445.836 219.708 401.816 211.709 359.543C213.286 352.834 212.836 303.985 212.63 283.47C214.351 281.704 216.265 280.054 218.338 278.512C218.541 296.161 219.519 339.451 224.173 351.534C230.066 366.832 229.475 408.015 266.003 396.246C302.532 384.481 307.247 388.596 326.096 400.361C343.71 411.351 377.255 352.53 378.72 284.309C378.97 284.505 379.223 284.7 379.466 284.896C378.955 288.066 380.662 342.614 383.746 349.91Z" fill="url(#paint4_linear_114_6370)"></path><path d="M347.356 269.33C347.265 270.908 346.75 272.446 345.866 273.919C340.321 283.093 320.167 289.893 296.157 289.893C269.838 289.893 248.154 281.725 245.269 271.209C245.052 270.427 244.943 269.627 244.943 268.816C244.943 267.941 245.074 267.069 245.334 266.218C275.821 257.931 316.525 259.918 347.356 269.33Z" fill="url(#paint5_linear_114_6370)"></path><path d="M345.866 273.919C340.321 283.093 320.167 289.893 296.157 289.893C269.838 289.893 248.154 281.725 245.269 271.209C261.093 261.224 322.715 256.378 345.866 273.919Z" fill="#242669"></path><path d="M245.335 383.468C242.073 383.468 238.894 383.008 235.799 382.082C220.222 377.428 212.275 362.402 212.195 362.25L212.836 361.917C212.912 362.065 220.73 376.827 236.013 381.39C245.614 384.257 256.106 382.559 267.196 376.349C293.54 361.591 304.706 367.02 318.841 373.888C322.168 375.506 325.607 377.178 329.463 378.691C347.994 385.972 368.539 378.213 379.785 367.924L380.271 368.456C371.982 376.038 358.703 382.263 344.848 382.266C339.633 382.266 334.341 381.387 329.198 379.364C325.317 377.84 321.863 376.161 318.525 374.536C304.579 367.758 293.565 362.406 267.547 376.979C259.839 381.304 252.402 383.468 245.335 383.468Z" fill="#BCB3FF"></path><path d="M262.876 306.453H328.361C332.217 306.453 334.936 309.544 334.439 313.268L331.282 336.975C330.873 340.044 327.799 342.479 324.407 342.479H266.826C263.434 342.479 260.36 340.044 259.951 336.975L256.794 313.268C256.301 309.544 259.016 306.453 262.876 306.453Z" fill="#F2F5FF"></path><path d="M371.381 505.422L323.164 563.607C323.164 572.705 273.69 572.705 273.69 563.607L225.271 504.926L229.935 486.965H366.386L368.989 496.581L371.381 505.422Z" fill="white"></path><path d="M371.381 505.422L323.164 563.607C323.164 572.705 273.69 572.705 273.69 563.607L225.271 504.926L229.935 486.965H231.385C238.456 507.85 256.283 545.288 293.134 544.973C330.949 544.647 357.659 512.996 368.989 496.577L371.381 505.422Z" fill="url(#paint6_linear_114_6370)"></path><path d="M269.841 696.996H205.675C205.675 696.996 167.313 555.316 209.857 520.368C213.463 517.404 217.657 515.207 222.502 513.93L269.841 569.795C279.261 620.018 277.507 660.963 269.841 696.996Z" fill="white"></path><path d="M269.841 696.996H246.541C251.133 672.087 257.254 627.976 251.296 592.901C244.526 552.996 220.559 529.219 209.854 520.364C213.46 517.4 217.653 515.203 222.498 513.926L269.838 569.791C279.261 620.018 277.506 660.962 269.841 696.996Z" fill="url(#paint7_linear_114_6370)"></path><path d="M396.011 696.996H329.572C322.86 660.434 321.45 619.265 329.572 569.791L376.915 513.926C384.91 516.032 391.165 520.642 395.985 527.077C428.538 570.511 396.011 696.996 396.011 696.996Z" fill="white"></path><path d="M354.778 592.905C341.586 620.644 348.378 675.178 352.488 697H329.572C322.86 660.438 321.45 619.269 329.572 569.795L376.915 513.93C384.91 516.036 391.165 520.646 395.985 527.081C386.559 539.704 367.093 567.019 354.778 592.905Z" fill="url(#paint8_linear_114_6370)"></path><path d="M153.294 445.644C162.293 445.644 169.589 438.36 169.589 429.374C169.589 420.388 162.293 413.103 153.294 413.103C144.295 413.103 137 420.388 137 429.374C137 438.36 144.295 445.644 153.294 445.644Z" fill="#242669"></path><path d="M201.942 357.712L173.061 428.708C162.253 430.774 141.632 422.309 137.446 417.011C137.525 415.835 137.641 414.446 137.797 412.86C140.526 385.118 155.328 298.463 194.675 280.278C196.064 279.634 197.488 279.076 198.941 278.609L201.942 357.712Z" fill="white"></path><path d="M201.942 357.712L173.061 428.708C162.253 430.775 141.632 422.31 137.446 417.012C137.525 415.836 137.641 414.446 137.797 412.861C175.333 420.913 182.556 377.971 193.179 356.069C202.446 336.968 196.455 292.04 194.672 280.275C196.06 279.63 197.484 279.073 198.938 278.606L201.942 357.712Z" fill="url(#paint9_linear_114_6370)"></path><path d="M271.679 323.487C272.798 322.369 272.798 320.557 271.679 319.439C270.559 318.321 268.744 318.321 267.625 319.439C266.505 320.557 266.505 322.369 267.625 323.487C268.744 324.605 270.559 324.605 271.679 323.487Z" fill="#242669"></path><path d="M284.095 323.487C285.215 322.369 285.215 320.556 284.095 319.439C282.976 318.321 281.16 318.321 280.041 319.439C278.921 320.556 278.921 322.369 280.041 323.487C281.16 324.605 282.976 324.605 284.095 323.487Z" fill="#242669"></path><path d="M297.282 322.102C297.647 320.564 296.694 319.021 295.153 318.657C293.612 318.293 292.068 319.244 291.703 320.783C291.338 322.321 292.291 323.864 293.832 324.228C295.372 324.593 296.917 323.641 297.282 322.102Z" fill="#242669"></path><path d="M309.698 322.102C310.063 320.564 309.11 319.021 307.569 318.657C306.028 318.292 304.483 319.244 304.118 320.782C303.754 322.321 304.707 323.863 306.247 324.228C307.788 324.592 309.333 323.64 309.698 322.102Z" fill="#242669"></path><path d="M322.114 322.101C322.478 320.562 321.525 319.02 319.985 318.655C318.444 318.291 316.899 319.243 316.534 320.781C316.169 322.32 317.122 323.862 318.663 324.226C320.204 324.591 321.749 323.639 322.114 322.101Z" fill="#242669"></path><path d="M149.43 615.283L152.547 635.415L144.591 647.18L116.131 642.283L123.339 613.58L149.43 615.283Z" fill="white"></path><path d="M153.71 637.278L148.89 646.465C148.89 646.465 154.235 664.035 159.94 658.755C159.385 653.975 153.71 637.278 153.71 637.278Z" fill="white"></path><path d="M135.143 647.176L136.962 659.012L149.39 675.187C149.39 675.187 154.674 669.827 145.548 658.943C144.747 651.901 144.747 648.777 144.747 648.777L135.143 647.176Z" fill="white"></path><path d="M125.361 645.668L127.039 658.947L139.014 673.929C139.014 673.929 144.077 669.294 134.951 658.411C134.15 651.369 133.541 647.277 133.541 647.277L125.361 645.668Z" fill="white"></path><path d="M116 644.254L118.051 658.179L127.405 672.266C127.405 672.266 132.019 667.946 124.716 657.059C124.075 650.017 123.288 645.53 123.288 645.53L116 644.254Z" fill="white"></path><path d="M496.092 380.381C494.49 386.944 479.25 403.224 468.559 405.837L458.11 395.972L399.699 340.232L382.571 279.853C394.563 278.436 407.154 283.038 419.433 291.001C455.091 314.127 488.097 365.601 496.092 380.381Z" fill="white"></path><path d="M496.092 380.381C494.49 386.944 479.25 403.224 468.559 405.837L458.11 395.972C461.23 361.002 432.817 311.934 419.429 291.004C455.091 314.127 488.097 365.601 496.092 380.381Z" fill="url(#paint10_linear_114_6370)"></path><path d="M500.452 400.672C501.904 391.79 495.881 383.414 486.999 381.962C478.118 380.511 469.742 386.534 468.29 395.415C466.839 404.296 472.862 412.673 481.743 414.124C490.624 415.576 499 409.553 500.452 400.672Z" fill="#242669"></path><path d="M541.238 246.235C532.265 309.104 523.034 371.049 505.145 401.572C491.757 405.863 480.167 402.202 469.751 393.363C469.367 389.764 469.124 386.212 469.019 382.704C467.315 329.718 495.07 286.217 514.343 239.001C516.684 236.065 523.244 235.931 529.434 237.892C534.378 239.454 539.089 242.353 541.238 246.235Z" fill="white"></path><path d="M541.238 246.235C532.265 309.104 523.034 371.049 505.145 401.572C491.757 405.863 480.167 402.202 469.751 393.363C469.367 389.764 469.124 386.212 469.019 382.704C473.408 387.068 480.036 391.195 488.894 390.021C506.421 387.705 523.469 308.919 525.078 290.559C526.481 274.569 528.847 245.205 529.431 237.892C534.378 239.454 539.089 242.353 541.238 246.235Z" fill="url(#paint11_linear_114_6370)"></path><path d="M539.221 247.058C539.94 244.778 535.477 241.34 529.253 239.379C523.029 237.417 517.402 237.675 516.683 239.955C515.965 242.234 520.428 245.672 526.652 247.633C532.875 249.595 538.503 249.337 539.221 247.058Z" fill="#242669"></path><path d="M536.619 176.314C537.192 174.076 536.16 171.879 534.313 171.406C532.467 170.934 530.506 172.365 529.934 174.602C529.361 176.84 530.393 179.037 532.239 179.51C534.085 179.983 536.046 178.552 536.619 176.314Z" fill="#232669"></path><path d="M533.357 189.503C533.929 187.265 532.897 185.068 531.051 184.596C529.205 184.123 527.244 185.554 526.672 187.792C526.099 190.03 527.131 192.227 528.977 192.699C530.823 193.172 532.784 191.741 533.357 189.503Z" fill="#232669"></path><path d="M532.598 172.595C533.026 172.769 534.787 173.244 536.298 173.635C537.132 173.853 537.074 175.567 537.491 175.665C539.027 166.488 539.785 158.519 538.002 157.606C536.211 156.689 533.033 164.169 529.88 173.382C530.518 173.621 531.967 172.342 532.598 172.595Z" fill="white"></path><path d="M534.979 188.842C535.751 185.142 536.53 181.181 537.201 177.361C537.099 177.335 536.273 179.528 535.157 179.198C534.098 178.886 532.805 178.502 531.706 178.172C530.521 177.817 529.528 175.081 529.336 175.009C528.013 178.963 526.712 183.152 525.538 187.092C525.777 187.113 527.897 185.497 529.112 185.751C530.539 186.051 533.606 186.649 533.606 186.649C533.606 186.649 534.414 187.78 534.979 188.842Z" fill="white"></path><path d="M531.348 191.056C530.268 190.835 528.938 190.183 527.843 190.024C527.024 189.904 525.864 188.831 525.038 188.766C522.53 197.261 520.707 204.165 520.707 204.165L530.96 206.883C530.96 206.883 532.873 198.783 534.628 190.524C533.229 191.049 532.642 191.317 531.348 191.056Z" fill="white"></path><path d="M559.801 211.812L544.264 241.031C540.673 245.032 524.128 244.793 517.431 236.171C515.093 233.159 514.318 226.907 514.318 226.907L521.215 210.442L522.371 199.867L559.801 211.812Z" fill="url(#paint12_linear_114_6370)"></path><path d="M532.718 203.506C532.718 203.506 535.487 194.616 538.937 195.359C542.387 196.102 543.772 200.635 543.772 200.635C543.772 200.635 546.29 198.196 548.846 199.265C551.401 200.335 551.933 203.633 551.933 203.633C551.933 203.633 555.924 200.255 559.457 203.143C562.991 206.032 556.101 220.159 552.484 222.837C548.867 225.516 547.091 218.659 547.091 218.659C547.091 218.659 542.344 223.236 539.216 220.431C536.088 217.626 536.915 215.643 536.915 215.643C536.915 215.643 532.609 218.738 530.706 216.375C528.804 214.005 532.718 203.506 532.718 203.506Z" fill="white"></path><path d="M550.958 224.03C550.632 224.044 550.313 223.993 549.994 223.881C548.273 223.272 547.251 220.964 546.798 219.662C545.283 220.884 541.593 223.334 538.828 220.855C536.936 219.159 536.382 217.695 536.269 216.712C534.762 217.553 531.881 218.746 530.261 216.73C528.22 214.197 531.739 204.499 532.174 203.325C532.497 202.295 535.229 193.978 539.053 194.804C541.901 195.42 543.431 198.283 544.022 199.689C545.015 198.968 546.997 197.874 549.063 198.74C551.049 199.574 551.93 201.545 552.281 202.69C553.684 201.81 556.891 200.316 559.812 202.701C560.639 203.375 561.037 204.535 560.997 206.144C560.874 211.381 555.942 220.985 552.818 223.298C552.194 223.761 551.571 224.004 550.958 224.03ZM547.396 217.568L547.642 218.514C547.907 219.532 548.914 222.286 550.378 222.805C550.918 222.997 551.498 222.855 552.143 222.381C554.753 220.445 559.736 211.334 559.859 206.119C559.888 204.879 559.631 204.031 559.091 203.589C555.978 201.041 552.448 203.948 552.299 204.075L551.527 204.724L551.368 203.73C551.364 203.701 550.85 200.73 548.624 199.798C546.453 198.889 544.188 201.03 544.167 201.052L543.496 201.697L543.221 200.809C543.21 200.766 541.887 196.587 538.814 195.924C536.425 195.409 533.943 201.505 533.261 203.683L533.251 203.712C531.783 207.655 529.913 214.48 531.148 216.017C532.689 217.93 536.538 215.208 536.578 215.179L538.212 214.005L537.436 215.861C537.436 215.868 536.857 217.553 539.589 220.003C542.282 222.42 546.642 218.285 546.685 218.245L547.396 217.568Z" fill="#232669"></path><path d="M547.109 219.22C547.059 219.224 547.008 219.216 546.954 219.205C546.653 219.133 546.464 218.828 546.537 218.528C546.649 218.057 549.342 206.952 551.259 204.248C551.44 203.995 551.792 203.937 552.046 204.114C552.299 204.295 552.361 204.647 552.18 204.901C550.389 207.43 547.66 218.676 547.635 218.792C547.573 219.039 547.356 219.209 547.109 219.22Z" fill="#232669"></path><path d="M536.922 216.846C536.849 216.85 536.773 216.839 536.697 216.81C536.407 216.698 536.262 216.371 536.375 216.082C536.563 215.589 541.039 203.98 542.931 201.306C543.112 201.052 543.463 200.994 543.714 201.172C543.967 201.353 544.029 201.704 543.848 201.958C542.036 204.517 537.469 216.368 537.422 216.487C537.346 216.701 537.143 216.839 536.922 216.846Z" fill="#232669"></path><path d="M519.344 234.007C512.803 230.868 510.302 218.872 521.214 210.442C524.839 211.519 531.855 215.502 532.765 222.25C533.925 230.894 526.133 237.899 519.344 234.007Z" fill="#232669"></path><path d="M514.992 228.299C514.992 228.299 506.431 210.899 511.19 203.114C515.949 195.333 543.583 206.434 543.583 206.434C543.583 206.434 543.902 211.323 536.773 212.229C531.554 212.892 523.269 210.979 523.269 210.979C523.269 210.979 529.017 217.249 529.387 222.656C529.836 229.285 521.272 235.627 514.992 228.299Z" fill="white"></path><path d="M535.719 212.541C530.485 212.747 524.288 211.631 523.922 211.566C523.617 211.511 523.414 211.218 523.469 210.91C523.523 210.605 523.817 210.402 524.125 210.457C524.248 210.478 536.454 212.671 540.734 210.435C542.942 209.282 543.079 207.278 543.043 206.506C540.698 205.64 526.321 200.436 519.138 200.356C518.826 200.352 518.576 200.099 518.58 199.787C518.583 199.475 518.848 199.225 519.149 199.229C527.147 199.32 543.094 205.318 543.768 205.575L544.069 205.687L544.123 206.003C544.341 207.249 544.025 209.986 541.256 211.432C539.897 212.142 537.889 212.454 535.719 212.541Z" fill="#232669"></path><path d="M150.281 601.145C142.739 607.68 124.68 605.096 122.542 598.688C122.52 598.058 122.495 597.427 122.466 596.796C120.269 543.1 108.364 490.046 133.759 438.408C141.206 435.668 148.426 434.704 155.341 436.07C160.335 437.053 165.17 439.252 169.816 442.873C176.115 477.687 163.477 539.023 150.281 601.145Z" fill="white"></path><path d="M150.281 601.145C142.739 607.68 124.68 605.096 122.542 598.688C122.52 598.057 122.495 597.427 122.466 596.796C167.801 605.516 156.421 449.73 155.337 436.067C160.331 437.049 165.166 439.249 169.812 442.869C176.115 477.687 163.477 539.023 150.281 601.145Z" fill="url(#paint13_linear_114_6370)"></path><path d="M324.254 223.141L313.581 272.583C312.519 276.783 299.845 275.598 291.433 272.485C289.447 271.749 287.697 270.905 286.395 270.002C284.895 268.958 283.985 267.831 283.989 266.697L294.691 217.107L324.254 223.141Z" fill="#242669"></path><path d="M294.119 238.653L287.051 270.426C288.262 271.169 289.762 271.865 291.433 272.485L298.776 240.371C297.225 240.077 295.619 239.392 294.119 238.653Z" fill="#172C98"></path><path d="M334.684 216.386L330.27 238.012C329.378 242.382 308.238 239.639 294.137 235.352C292.861 234.96 291.643 234.561 290.502 234.148C285 232.18 281.314 230.009 281.702 228.099L286.116 206.474L334.684 216.386Z" fill="#242669"></path><path d="M296.409 224.221L294.137 235.348C292.861 234.956 291.643 234.558 290.502 234.145L292.904 222.37L296.409 224.221Z" fill="#172C98"></path><path d="M277.117 267.98C268.071 266.403 261.385 260.786 258.783 252.566C256.079 244.031 258.34 234.206 264.415 228.117C270.482 222.04 279.241 220.398 289.085 223.5L287.809 227.556C279.557 224.957 272.315 226.222 267.426 231.122C262.443 236.116 260.598 244.216 262.838 251.28C264.078 255.19 267.676 262.018 277.85 263.79L277.117 267.98Z" fill="#242669"></path><path d="M356.096 228.298C348.782 232.11 339.87 232.893 330.669 231.233C312.544 227.986 293.245 215.334 282.608 197.96C259.323 163.773 261.968 133.974 276.168 115.806C284.982 104.524 298.246 97.7288 312.522 97.1489C320.76 96.8046 329.328 98.5333 337.573 102.665C349.29 108.533 360.344 119.246 368.857 135.757C371.267 140.429 373.47 145.565 375.427 151.186C375.594 151.657 375.761 152.132 375.92 152.606C385.267 180.444 379.631 216.023 356.096 228.298Z" fill="url(#paint14_linear_114_6370)"></path><path d="M375.917 152.607C362.605 157.978 323.293 175.095 312.377 172.627C301.461 170.159 295.807 161.867 295.807 161.867L368.853 135.758C371.263 140.429 373.467 145.565 375.424 151.186C375.591 151.657 375.757 152.132 375.917 152.607Z" fill="#242669"></path><path d="M298.194 215.562C306.311 210.084 306.294 195.87 298.158 183.813C290.021 171.756 276.845 166.423 268.729 171.9C260.612 177.378 260.629 191.592 268.765 203.649C276.902 215.706 290.078 221.039 298.194 215.562Z" fill="#242669"></path><path d="M287.624 188.743C294.079 198.308 294.09 209.579 287.653 213.924C281.216 218.27 270.764 214.037 264.313 204.476C257.858 194.912 257.848 183.641 264.284 179.295C270.721 174.95 281.173 179.183 287.624 188.743Z" fill="url(#paint15_linear_114_6370)"></path><path d="M282.96 192.404C287.595 199.272 287.602 207.368 282.978 210.489C278.353 213.609 270.851 210.572 266.216 203.704C261.58 196.836 261.573 188.74 266.198 185.619C270.822 182.499 278.328 185.536 282.96 192.404Z" fill="url(#paint16_linear_114_6370)"></path><g filter="url(#filter1_f_114_6370)"><circle cx="12.0548" cy="12.0548" r="12.0548" transform="matrix(-1 0 0 1 345.869 149.565)" fill="url(#paint17_radial_114_6370)"></circle></g><g filter="url(#filter2_f_114_6370)"><circle cx="12.0548" cy="12.0548" r="12.0548" transform="matrix(-1 0 0 1 374.615 139.364)" fill="url(#paint18_radial_114_6370)"></circle></g><path d="M581.004 58C581.002 57.4484 581.448 57 582 57C582.552 57 582.998 57.4484 582.996 58L582 310L581.004 58Z" fill="url(#paint19_linear_114_6370)"></path><defs><filter id="filter0_f_114_6370" x="0.464355" y="-112" width="605" height="605" filterUnits="userSpaceOnUse" color-interpolation-filters="sRGB"><feGaussianBlur stdDeviation="83.5"></feGaussianBlur></filter><filter id="filter1_f_114_6370" x="317.123" y="144.928" width="33.3824" height="33.3824" filterUnits="userSpaceOnUse" color-interpolation-filters="sRGB"><feGaussianBlur stdDeviation="2.31822"></feGaussianBlur></filter><filter id="filter2_f_114_6370" x="347.723" y="136.583" width="29.6733" height="29.6732" filterUnits="userSpaceOnUse" color-interpolation-filters="sRGB"><feGaussianBlur stdDeviation="1.39093"></feGaussianBlur></filter><linearGradient id="paint0_linear_114_6370" x1="96" y1="268" x2="96" y2="549" gradientUnits="userSpaceOnUse"><stop stop-color="#0C41FF"></stop><stop offset="1" stop-color="white" stop-opacity="0.49"></stop></linearGradient><linearGradient id="paint1_linear_114_6370" x1="234.205" y1="391.121" x2="229.007" y2="504.094" gradientUnits="userSpaceOnUse"><stop stop-color="white"></stop><stop offset="0.2759" stop-color="#F0EEFF"></stop><stop offset="0.8196" stop-color="#C9C2FF"></stop><stop offset="0.9911" stop-color="#BCB3FF"></stop></linearGradient><linearGradient id="paint2_linear_114_6370" x1="371.726" y1="397.449" x2="366.528" y2="510.422" gradientUnits="userSpaceOnUse"><stop stop-color="white"></stop><stop offset="0.2759" stop-color="#F0EEFF"></stop><stop offset="0.8196" stop-color="#C9C2FF"></stop><stop offset="0.9911" stop-color="#BCB3FF"></stop></linearGradient><linearGradient id="paint3_linear_114_6370" x1="297.728" y1="269.582" x2="297.728" y2="454.044" gradientUnits="userSpaceOnUse"><stop stop-color="white"></stop><stop offset="0.2759" stop-color="#F0EEFF"></stop><stop offset="0.8196" stop-color="#C9C2FF"></stop><stop offset="0.9911" stop-color="#BCB3FF"></stop></linearGradient><linearGradient id="paint4_linear_114_6370" x1="298.992" y1="179.383" x2="295.073" y2="724.864" gradientUnits="userSpaceOnUse"><stop stop-color="white"></stop><stop offset="0.2759" stop-color="#F0EEFF"></stop><stop offset="0.8196" stop-color="#C9C2FF"></stop><stop offset="0.9911" stop-color="#BCB3FF"></stop></linearGradient><linearGradient id="paint5_linear_114_6370" x1="296.872" y1="290.643" x2="295.899" y2="261.657" gradientUnits="userSpaceOnUse"><stop stop-color="white"></stop><stop offset="0.2759" stop-color="#F0EEFF"></stop><stop offset="0.8196" stop-color="#C9C2FF"></stop><stop offset="0.9911" stop-color="#BCB3FF"></stop></linearGradient><linearGradient id="paint6_linear_114_6370" x1="225.268" y1="528.699" x2="371.379" y2="528.699" gradientUnits="userSpaceOnUse"><stop stop-color="white"></stop><stop offset="0.2759" stop-color="#C8D4FF"></stop><stop offset="0.8196" stop-color="#968DFF"></stop><stop offset="0.9911" stop-color="#867BFF"></stop></linearGradient><linearGradient id="paint7_linear_114_6370" x1="209.855" y1="605.463" x2="276.264" y2="605.463" gradientUnits="userSpaceOnUse"><stop stop-color="white"></stop><stop offset="0.2759" stop-color="#F0EEFF"></stop><stop offset="0.8196" stop-color="#C9C2FF"></stop><stop offset="0.9911" stop-color="#BCB3FF"></stop></linearGradient><linearGradient id="paint8_linear_114_6370" x1="323.998" y1="605.463" x2="395.984" y2="605.463" gradientUnits="userSpaceOnUse"><stop stop-color="white"></stop><stop offset="0.2759" stop-color="#F0EEFF"></stop><stop offset="0.8196" stop-color="#C9C2FF"></stop><stop offset="0.9911" stop-color="#BCB3FF"></stop></linearGradient><linearGradient id="paint9_linear_114_6370" x1="137.443" y1="353.818" x2="201.94" y2="353.818" gradientUnits="userSpaceOnUse"><stop stop-color="white"></stop><stop offset="0.2759" stop-color="#F0EEFF"></stop><stop offset="0.8196" stop-color="#C9C2FF"></stop><stop offset="0.9911" stop-color="#BCB3FF"></stop></linearGradient><linearGradient id="paint10_linear_114_6370" x1="419.431" y1="348.42" x2="496.092" y2="348.42" gradientUnits="userSpaceOnUse"><stop stop-color="white"></stop><stop offset="0.2759" stop-color="#F0EEFF"></stop><stop offset="0.8196" stop-color="#C9C2FF"></stop><stop offset="0.9911" stop-color="#BCB3FF"></stop></linearGradient><linearGradient id="paint11_linear_114_6370" x1="486.428" y1="314.651" x2="529.702" y2="325.724" gradientUnits="userSpaceOnUse"><stop stop-color="white"></stop><stop offset="0.2759" stop-color="#F0EEFF"></stop><stop offset="0.8196" stop-color="#C9C2FF"></stop><stop offset="0.9911" stop-color="#BCB3FF"></stop></linearGradient><linearGradient id="paint12_linear_114_6370" x1="538.982" y1="207.748" x2="530.614" y2="258.281" gradientUnits="userSpaceOnUse"><stop stop-color="white"></stop><stop offset="0.2759" stop-color="#F0EEFF"></stop><stop offset="0.8196" stop-color="#C9C2FF"></stop><stop offset="0.9911" stop-color="#BCB3FF"></stop></linearGradient><linearGradient id="paint13_linear_114_6370" x1="122.464" y1="520.509" x2="171.481" y2="520.509" gradientUnits="userSpaceOnUse"><stop stop-color="white"></stop><stop offset="0.2759" stop-color="#F0EEFF"></stop><stop offset="0.8196" stop-color="#C9C2FF"></stop><stop offset="0.9911" stop-color="#BCB3FF"></stop></linearGradient><linearGradient id="paint14_linear_114_6370" x1="307.585" y1="94.14" x2="346.719" y2="271.703" gradientUnits="userSpaceOnUse"><stop stop-color="white"></stop><stop offset="0.2759" stop-color="#F0EEFF"></stop><stop offset="0.8196" stop-color="#C9C2FF"></stop><stop offset="0.9911" stop-color="#BCB3FF"></stop></linearGradient><linearGradient id="paint15_linear_114_6370" x1="258.119" y1="167.502" x2="314.909" y2="260.114" gradientUnits="userSpaceOnUse"><stop stop-color="white"></stop><stop offset="0.2759" stop-color="#F0EEFF"></stop><stop offset="0.8196" stop-color="#C9C2FF"></stop><stop offset="0.9911" stop-color="#BCB3FF"></stop></linearGradient><linearGradient id="paint16_linear_114_6370" x1="269.025" y1="175.855" x2="279.645" y2="218.222" gradientUnits="userSpaceOnUse"><stop stop-color="white"></stop><stop offset="0.2759" stop-color="#F0EEFF"></stop><stop offset="0.8196" stop-color="#C9C2FF"></stop><stop offset="0.9911" stop-color="#BCB3FF"></stop></linearGradient><radialGradient id="paint17_radial_114_6370" cx="0" cy="0" r="1" gradientUnits="userSpaceOnUse" gradientTransform="translate(12.0548 12.0548) rotate(90) scale(12.0548)"><stop stop-color="white"></stop><stop offset="1" stop-color="white" stop-opacity="0"></stop></radialGradient><radialGradient id="paint18_radial_114_6370" cx="0" cy="0" r="1" gradientUnits="userSpaceOnUse" gradientTransform="translate(12.0548 12.0548) rotate(90) scale(12.0548)"><stop stop-color="white"></stop><stop offset="1" stop-color="white" stop-opacity="0"></stop></radialGradient><linearGradient id="paint19_linear_114_6370" x1="582" y1="57" x2="582" y2="310" gradientUnits="userSpaceOnUse"><stop stop-color="#0C41FF"></stop><stop offset="1" stop-color="white" stop-opacity="0.49"></stop></linearGradient></defs></svg>