<svg xmlns="http://www.w3.org/2000/svg" width="692" height="593" viewBox="0 0 692 593" fill="none"><g filter="url(#filter0_f_118_8004)"><path d="M271.15 507.696C329.704 507.696 377.17 459.848 377.17 400.824C377.17 341.801 329.704 293.953 271.15 293.953C212.597 293.953 165.131 341.801 165.131 400.824C165.131 459.848 212.597 507.696 271.15 507.696Z" fill="url(#paint0_radial_118_8004)"></path></g><g opacity="0.5"><path d="M306.048 230.728L146.931 231.543L133.323 206.39H65.305" stroke="#2D83A6" stroke-width="2.40803" stroke-miterlimit="10"></path><path d="M304.685 218.175L189.789 218.967" stroke="#2D83A6" stroke-width="2.40803" stroke-miterlimit="10"></path><path d="M233.433 258.489H135.379L121.887 236.946H43.1482" stroke="#2D83A6" stroke-width="2.40803" stroke-miterlimit="10"></path><path d="M304.685 246.285H141.502L125.005 218.967H8.76939" stroke="#2D83A6" stroke-width="2.40803" stroke-miterlimit="10"></path><path d="M2 218.967C2 216.848 3.70968 215.124 5.81214 215.124C7.9146 215.124 9.62428 216.848 9.62428 218.967C9.62428 221.086 7.9146 222.81 5.81214 222.81C3.70968 222.81 2 221.086 2 218.967Z" stroke="#2D83A6" stroke-width="2.40803" stroke-miterlimit="10"></path><path d="M35.778 236.946C35.778 234.827 37.4877 233.104 39.5901 233.104C41.6926 233.104 43.4023 234.827 43.4023 236.946C43.4023 239.066 41.6926 240.789 39.5901 240.789C37.4877 240.789 35.778 239.066 35.778 236.946Z" stroke="#2D83A6" stroke-width="2.40803" stroke-miterlimit="10"></path><path d="M57.6574 206.39C57.6574 204.271 59.3671 202.548 61.4926 202.548C63.5951 202.548 65.3048 204.271 65.3048 206.39C65.3048 208.51 63.5951 210.233 61.4926 210.233C59.3902 210.257 57.6574 208.533 57.6574 206.39Z" stroke="#2D83A6" stroke-width="2.40803" stroke-miterlimit="10"></path><path d="M182.142 218.175C182.142 216.056 183.851 214.332 185.954 214.332C188.056 214.332 189.766 216.056 189.766 218.175C189.766 220.294 188.056 222.018 185.954 222.018C183.851 222.018 182.142 220.294 182.142 218.175Z" stroke="#2D83A6" stroke-width="2.40803" stroke-miterlimit="10"></path></g><g opacity="0.5"><path d="M306.048 305.092L146.931 304.276L133.323 329.406H65.305" stroke="#2D83A6" stroke-width="2.40803" stroke-miterlimit="10"></path><path d="M304.685 317.645L189.789 316.853" stroke="#2D83A6" stroke-width="2.40803" stroke-miterlimit="10"></path><path d="M233.433 277.33H135.379L121.886 298.873H43.1482" stroke="#2D83A6" stroke-width="2.40803" stroke-miterlimit="10"></path><path d="M304.685 289.534H141.502L125.005 316.853H8.76939" stroke="#2D83A6" stroke-width="2.40803" stroke-miterlimit="10"></path><path d="M2 316.853C2 318.972 3.70968 320.696 5.81214 320.696C7.9146 320.696 9.62428 318.972 9.62428 316.853C9.62428 314.733 7.9146 313.01 5.81214 313.01C3.70968 313.01 2 314.733 2 316.853Z" stroke="#2D83A6" stroke-width="2.40803" stroke-miterlimit="10"></path><path d="M35.778 298.873C35.778 300.993 37.4877 302.716 39.5901 302.716C41.6926 302.716 43.4023 300.993 43.4023 298.873C43.4023 296.754 41.6926 295.031 39.5901 295.031C37.4877 295.031 35.778 296.754 35.778 298.873Z" stroke="#2D83A6" stroke-width="2.40803" stroke-miterlimit="10"></path><path d="M57.6573 329.406C57.6573 331.525 59.367 333.249 61.4925 333.249C63.595 333.249 65.3047 331.525 65.3047 329.406C65.3047 327.287 63.595 325.563 61.4925 325.563C59.3901 325.563 57.6573 327.287 57.6573 329.406Z" stroke="#2D83A6" stroke-width="2.40803" stroke-miterlimit="10"></path><path d="M182.142 317.645C182.142 319.764 183.851 321.487 185.954 321.487C188.056 321.487 189.766 319.764 189.766 317.645C189.766 315.525 188.056 313.802 185.954 313.802C183.851 313.802 182.142 315.525 182.142 317.645Z" stroke="#2D83A6" stroke-width="2.40803" stroke-miterlimit="10"></path></g><path d="M589.026 224.417C589.303 225.93 589.58 227.467 589.834 229.004" stroke="#D0E9F2" stroke-width="1.20401" stroke-miterlimit="10"></path><path d="M591.128 238.041C592.353 247.823 592.977 257.791 592.977 267.898C592.977 281.033 591.914 293.913 589.881 306.466" stroke="#D0E9F2" stroke-width="1.20401" stroke-miterlimit="10" stroke-dasharray="9.47 9.47"></path><path d="M589.095 310.984C588.818 312.521 588.518 314.034 588.217 315.548" stroke="#D0E9F2" stroke-width="1.20401" stroke-miterlimit="10"></path><path d="M141.571 177.79C142.148 176.346 142.749 174.926 143.373 173.506" stroke="#D0E9F2" stroke-width="1.20401" stroke-miterlimit="10"></path><path d="M147.278 164.958C185.237 85.9602 265.547 31.5093 358.448 31.5093C442.338 31.5093 515.924 75.8992 557.373 142.647" stroke="#D0E9F2" stroke-width="1.20401" stroke-miterlimit="10" stroke-dasharray="9.74 9.74"></path><path d="M559.845 146.676C560.631 148.003 561.416 149.354 562.179 150.704" stroke="#D0E9F2" stroke-width="1.20401" stroke-miterlimit="10"></path><path d="M568.602 372.981C567.908 374.378 567.215 375.752 566.499 377.125" stroke="#D0E9F2" stroke-width="1.20401" stroke-miterlimit="10"></path><path d="M562.156 385.184C521.747 456.357 445.666 504.334 358.471 504.334C260.649 504.334 176.828 443.967 141.64 358.192" stroke="#D0E9F2" stroke-width="1.20401" stroke-miterlimit="10" stroke-dasharray="9.48 9.48"></path><path d="M139.931 353.906C139.376 352.462 138.822 350.995 138.29 349.551" stroke="#D0E9F2" stroke-width="1.20401" stroke-miterlimit="10"></path><path d="M232.462 54.2633C269.336 32.1149 312.425 19.3988 358.471 19.3988C417.178 19.3988 471.08 40.0799 513.43 74.595" stroke="#2D83A6" stroke-width="1.80602" stroke-miterlimit="10"></path><path d="M232.462 35.8644C269.336 13.7161 312.425 1 358.471 1C417.178 1 471.08 21.6811 513.43 56.1962" stroke="#D0E9F2" stroke-width="1.80602" stroke-miterlimit="10"></path><path d="M123.55 192.23C138.799 144.068 168.233 102.31 206.886 71.8934" stroke="#2D83A6" stroke-width="1.80602" stroke-miterlimit="10"></path><path d="M128.61 357.959C126.392 352.206 124.382 346.337 122.579 340.375" stroke="#2D83A6" stroke-width="1.80602" stroke-miterlimit="10"></path><path d="M404.633 512.066C389.685 514.93 374.228 516.421 358.448 516.421C273.356 516.421 198.315 472.963 154.024 406.844" stroke="#2D83A6" stroke-width="1.80602" stroke-miterlimit="10"></path><path d="M398.372 520.38C383.423 523.245 367.99 524.735 352.187 524.735C267.095 524.735 192.053 481.277 147.763 415.158" stroke="#D0E9F2" stroke-width="1.80602" stroke-miterlimit="10"></path><path d="M545.914 429.318C516.733 463.74 478.381 490.011 434.668 504.31" stroke="#2D83A6" stroke-width="1.80602" stroke-miterlimit="10"></path><path d="M586.969 409.149C563.657 447.857 530.018 480.019 489.17 501.236" stroke="#D0E9F2" stroke-width="1.80602" stroke-miterlimit="10"></path><path d="M582.118 372.585C576.596 384.556 570.15 396.014 562.895 406.844" stroke="#2D83A6" stroke-width="1.80602" stroke-miterlimit="10"></path><path d="M601.225 224.417C603.697 238.553 604.991 253.086 604.991 267.922C604.991 283.479 603.581 298.687 600.855 313.429" stroke="#2D83A6" stroke-width="1.80602" stroke-miterlimit="10"></path><path d="M578.514 155.759C579.669 158.041 580.778 160.324 581.841 162.653" stroke="#2D83A6" stroke-width="1.80602" stroke-miterlimit="10"></path><path d="M627.54 366.693H558.852L545.243 341.563L355.283 342.355V340.026L546.607 339.211L560.215 364.364H627.54V366.693Z" fill="#D0E9F2"></path><path d="M503.07 351.721L343.653 352.669L343.666 354.997L503.084 354.049L503.07 351.721Z" fill="#D0E9F2"></path><path d="M649.697 336.137H570.334L556.842 314.594H387.605V312.265H558.112L571.605 333.808H649.697V336.137Z" fill="#D0E9F2"></path><path d="M684.075 354.116H567.192L550.696 326.798H487.761V324.469H551.99L568.509 351.787H684.075V354.116Z" fill="#D0E9F2"></path><path d="M687.032 357.982C684.283 357.982 682.042 355.723 682.042 352.952C682.042 350.18 684.283 347.944 687.032 347.944C689.782 347.944 692 350.203 692 352.952C692 355.723 689.782 357.982 687.032 357.982ZM687.032 350.273C685.554 350.273 684.352 351.484 684.352 352.952C684.352 354.442 685.554 355.653 687.032 355.653C688.511 355.653 689.689 354.442 689.689 352.952C689.689 351.461 688.511 350.273 687.032 350.273Z" fill="#D0E9F2"></path><path d="M653.254 340.003C650.505 340.003 648.264 337.744 648.264 334.995C648.264 332.224 650.505 329.965 653.254 329.965C656.004 329.965 658.222 332.224 658.222 334.995C658.222 337.744 656.004 340.003 653.254 340.003ZM653.254 332.294C651.776 332.294 650.574 333.505 650.574 334.995C650.574 336.486 651.776 337.674 653.254 337.674C654.733 337.674 655.912 336.463 655.912 334.995C655.912 333.505 654.733 332.294 653.254 332.294Z" fill="#D0E9F2"></path><path d="M631.352 370.535C628.603 370.535 626.362 368.276 626.362 365.505C626.362 362.733 628.603 360.474 631.352 360.474C634.101 360.474 636.343 362.733 636.343 365.505C636.343 368.276 634.101 370.535 631.352 370.535ZM631.352 362.826C629.873 362.826 628.672 364.038 628.672 365.528C628.672 367.019 629.873 368.23 631.352 368.23C632.831 368.23 634.032 367.019 634.032 365.528C634.032 364.038 632.831 362.826 631.352 362.826Z" fill="#D0E9F2"></path><path d="M506.891 358.774C504.141 358.774 501.923 356.515 501.923 353.744C501.923 350.972 504.164 348.713 506.891 348.713C509.64 348.713 511.881 350.972 511.881 353.744C511.858 356.515 509.617 358.774 506.891 358.774ZM506.891 351.065C505.412 351.065 504.234 352.276 504.234 353.767C504.234 355.257 505.435 356.468 506.891 356.468C508.369 356.468 509.571 355.257 509.571 353.767C509.548 352.276 508.346 351.065 506.891 351.065Z" fill="#D0E9F2"></path><path d="M408.607 391.542H407.914L272.963 390.983V388.654L407.22 389.213L416.855 371.42H465.697V373.749H418.241L408.607 391.542Z" fill="#D0E9F2"></path><path d="M264.714 379.738L264.703 382.067L377.566 382.64L377.577 380.312L264.714 379.738Z" fill="#D0E9F2"></path><path d="M416.716 410.64H295.836V408.311H415.445L425.01 393.033H481.384V395.362H426.281L416.716 410.64Z" fill="#D0E9F2"></path><path d="M412.396 401.999H286.318V399.67H411.102L422.793 380.317H505.713V382.646H424.086L412.396 401.999Z" fill="#D0E9F2"></path><path d="M507.815 385.371C505.69 385.371 503.957 383.624 503.957 381.481C503.957 379.339 505.69 377.592 507.815 377.592C509.941 377.592 511.674 379.339 511.674 381.481C511.674 383.624 509.941 385.371 507.815 385.371ZM507.815 379.921C506.96 379.921 506.267 380.62 506.267 381.481C506.267 382.343 506.96 383.042 507.815 383.042C508.67 383.042 509.363 382.343 509.363 381.481C509.363 380.62 508.67 379.921 507.815 379.921Z" fill="#D0E9F2"></path><path d="M483.902 398.087C481.777 398.087 480.044 396.34 480.044 394.197C480.044 392.055 481.777 390.308 483.902 390.308C486.028 390.308 487.761 392.055 487.761 394.197C487.761 396.34 486.028 398.087 483.902 398.087ZM483.902 392.637C483.048 392.637 482.354 393.336 482.354 394.197C482.354 395.059 483.048 395.758 483.902 395.758C484.757 395.758 485.45 395.059 485.45 394.197C485.45 393.336 484.757 392.637 483.902 392.637Z" fill="#D0E9F2"></path><path d="M468.4 376.474C466.274 376.474 464.541 374.727 464.541 372.585C464.541 370.442 466.274 368.695 468.4 368.695C470.525 368.695 472.258 370.442 472.258 372.585C472.258 374.727 470.525 376.474 468.4 376.474ZM468.4 371.024C467.545 371.024 466.852 371.723 466.852 372.585C466.852 373.446 467.545 374.145 468.4 374.145C469.255 374.145 469.948 373.446 469.948 372.585C469.948 371.723 469.255 371.024 468.4 371.024Z" fill="#D0E9F2"></path><path d="M380.281 384.812C378.155 384.812 376.423 383.065 376.423 380.922C376.423 378.78 378.155 377.033 380.281 377.033C382.407 377.033 384.139 378.78 384.139 380.922C384.139 383.065 382.407 384.812 380.281 384.812ZM380.281 379.339C379.426 379.339 378.733 380.037 378.733 380.899C378.733 381.761 379.426 382.459 380.281 382.459C381.136 382.459 381.829 381.761 381.829 380.899C381.829 380.061 381.136 379.339 380.281 379.339Z" fill="#D0E9F2"></path><path d="M465.697 166.402H416.855L407.22 148.609L272.963 149.191V146.862L408.607 146.28L418.241 164.073H465.697V166.402Z" fill="#D0E9F2"></path><path d="M377.59 155.134L264.727 155.794L264.741 158.122L377.604 157.463L377.59 155.134Z" fill="#D0E9F2"></path><path d="M481.384 144.79H425.01L415.445 129.535H295.836V127.206H416.716L426.281 142.461H481.384V144.79Z" fill="#D0E9F2"></path><path d="M505.713 157.506H422.793L411.102 138.175H286.318V135.847H412.396L424.086 155.177H505.713V157.506Z" fill="#D0E9F2"></path><path d="M507.815 160.231C505.69 160.231 503.957 158.484 503.957 156.341C503.957 154.199 505.69 152.452 507.815 152.452C509.941 152.452 511.674 154.199 511.674 156.341C511.674 158.484 509.941 160.231 507.815 160.231ZM507.815 154.781C506.96 154.781 506.267 155.48 506.267 156.341C506.267 157.203 506.96 157.902 507.815 157.902C508.67 157.902 509.363 157.203 509.363 156.341C509.363 155.48 508.67 154.781 507.815 154.781Z" fill="#D0E9F2"></path><path d="M483.903 147.515C481.777 147.515 480.044 145.768 480.044 143.625C480.044 141.483 481.777 139.736 483.903 139.736C486.028 139.736 487.761 141.483 487.761 143.625C487.761 145.768 486.028 147.515 483.903 147.515ZM483.903 142.065C483.048 142.065 482.355 142.764 482.355 143.625C482.355 144.487 483.048 145.186 483.903 145.186C484.757 145.186 485.451 144.487 485.451 143.625C485.451 142.764 484.757 142.065 483.903 142.065Z" fill="#D0E9F2"></path><path d="M468.4 169.127C466.274 169.127 464.541 167.381 464.541 165.238C464.541 163.095 466.274 161.349 468.4 161.349C470.525 161.349 472.258 163.095 472.258 165.238C472.258 167.381 470.525 169.127 468.4 169.127ZM468.4 163.678C467.545 163.678 466.852 164.376 466.852 165.238C466.852 166.1 467.545 166.798 468.4 166.798C469.255 166.798 469.948 166.1 469.948 165.238C469.948 164.376 469.255 163.678 468.4 163.678Z" fill="#D0E9F2"></path><path d="M380.281 160.813C378.156 160.813 376.423 159.066 376.423 156.924C376.423 154.781 378.156 153.034 380.281 153.034C382.407 153.034 384.14 154.781 384.14 156.924C384.14 159.066 382.407 160.813 380.281 160.813ZM380.281 155.34C379.426 155.34 378.733 156.039 378.733 156.9C378.733 157.762 379.426 158.461 380.281 158.461C381.136 158.461 381.829 157.762 381.829 156.9C381.829 156.062 381.136 155.34 380.281 155.34Z" fill="#D0E9F2"></path><path d="M546.607 196.19L326.495 195.375V193.046L545.244 193.861L558.852 168.731H627.54V171.06H560.215L546.607 196.19Z" fill="#D0E9F2"></path><path d="M327.884 180.468L327.874 182.797L503.071 183.609L503.081 181.281L327.884 180.468Z" fill="#D0E9F2"></path><path d="M558.113 223.159H486.005V220.83H556.842L570.335 199.264H649.697V201.593H571.605L558.113 223.159Z" fill="#D0E9F2"></path><path d="M551.99 210.955H369.7V208.626H550.696L567.192 181.284H684.075V183.613H568.509L551.99 210.955Z" fill="#D0E9F2"></path><path d="M687.033 187.479C684.283 187.479 682.042 185.22 682.042 182.449C682.042 179.677 684.283 177.442 687.033 177.442C689.782 177.442 692 179.701 692 182.449C692 185.22 689.782 187.479 687.033 187.479ZM687.033 179.771C685.554 179.771 684.353 180.982 684.353 182.449C684.353 183.939 685.554 185.15 687.033 185.15C688.511 185.15 689.69 183.939 689.69 182.449C689.69 180.982 688.511 179.771 687.033 179.771Z" fill="#D0E9F2"></path><path d="M653.255 205.436C650.505 205.436 648.264 203.177 648.264 200.428C648.264 197.657 650.505 195.398 653.255 195.398C656.004 195.398 658.222 197.657 658.222 200.428C658.222 203.2 656.004 205.436 653.255 205.436ZM653.255 197.727C651.776 197.727 650.575 198.938 650.575 200.428C650.575 201.919 651.776 203.107 653.255 203.107C654.733 203.107 655.912 201.896 655.912 200.428C655.912 198.938 654.733 197.727 653.255 197.727Z" fill="#D0E9F2"></path><path d="M631.352 174.903C628.603 174.903 626.362 172.644 626.362 169.896C626.362 167.148 628.603 164.889 631.352 164.889C634.101 164.889 636.343 167.148 636.343 169.896C636.343 172.644 634.101 174.903 631.352 174.903ZM631.352 167.194C629.873 167.194 628.672 168.405 628.672 169.873C628.672 171.363 629.873 172.551 631.352 172.551C632.831 172.551 634.032 171.34 634.032 169.873C634.032 168.405 632.831 167.194 631.352 167.194Z" fill="#D0E9F2"></path><path d="M506.891 186.664C504.141 186.664 501.923 184.405 501.923 181.657C501.923 178.886 504.164 176.65 506.891 176.65C509.64 176.65 511.881 178.909 511.881 181.657C511.858 184.429 509.617 186.664 506.891 186.664ZM506.891 178.955C505.412 178.955 504.234 180.167 504.234 181.634C504.234 183.124 505.435 184.312 506.891 184.312C508.369 184.312 509.571 183.101 509.571 181.634C509.548 180.167 508.346 178.955 506.891 178.955Z" fill="#D0E9F2"></path><path d="M500.584 549.725C498.897 549.725 498.066 547.676 499.244 546.488C499.983 545.742 499.983 544.555 499.244 543.809L496.009 540.572C495.27 539.827 494.092 539.827 493.352 540.572C492.174 541.76 490.141 540.922 490.141 539.221C490.141 538.173 489.309 537.335 488.269 537.335H483.718C482.678 537.335 481.846 538.173 481.846 539.221C481.846 540.922 479.813 541.76 478.635 540.572C477.896 539.827 476.717 539.827 475.978 540.572L472.767 543.809C472.027 544.555 472.027 545.742 472.767 546.488C473.945 547.676 473.113 549.725 471.427 549.725C470.387 549.725 469.555 550.563 469.555 551.611V556.2C469.555 557.248 470.387 558.086 471.427 558.086C473.113 558.086 473.945 560.135 472.767 561.323C472.027 562.068 472.027 563.256 472.767 564.002L475.978 567.239C476.717 567.984 477.896 567.984 478.635 567.239C479.813 566.051 481.846 566.889 481.846 568.59C481.846 569.638 482.678 570.476 483.718 570.476H488.269C489.309 570.476 490.141 569.638 490.141 568.59C490.141 566.889 492.174 566.051 493.352 567.239C494.092 567.984 495.27 567.984 496.009 567.239L499.244 564.002C499.983 563.256 499.983 562.068 499.244 561.323C498.066 560.135 498.897 558.086 500.584 558.086C501.624 558.086 502.455 557.248 502.455 556.2V551.611C502.478 550.587 501.624 549.725 500.584 549.725ZM486.005 564.514C480.206 564.514 475.516 559.786 475.516 553.94C475.516 548.095 480.206 543.367 486.005 543.367C491.804 543.367 496.494 548.095 496.494 553.94C496.494 559.763 491.804 564.514 486.005 564.514Z" fill="#2D83A6"></path><path d="M492.751 553.917C492.751 557.667 489.725 560.718 486.005 560.718C482.285 560.718 479.259 557.667 479.259 553.917C479.259 550.167 482.285 547.117 486.005 547.117C489.725 547.14 492.751 550.167 492.751 553.917Z" fill="#2D83A6"></path><path d="M457.957 103.264C457.125 103.264 456.709 102.24 457.287 101.634C457.656 101.262 457.656 100.656 457.287 100.283L455.67 98.6531C455.3 98.2805 454.699 98.2805 454.329 98.6531C453.729 99.2586 452.712 98.8161 452.712 97.9777C452.712 97.4653 452.296 97.0228 451.765 97.0228H449.478C448.969 97.0228 448.53 97.442 448.53 97.9777C448.53 98.8161 447.514 99.2353 446.913 98.6531C446.543 98.2805 445.943 98.2805 445.573 98.6531L443.956 100.283C443.586 100.656 443.586 101.262 443.956 101.634C444.556 102.24 444.117 103.264 443.286 103.264C442.777 103.264 442.338 103.684 442.338 104.219V106.525C442.338 107.037 442.754 107.48 443.286 107.48C444.117 107.48 444.533 108.505 443.956 109.11C443.586 109.483 443.586 110.088 443.956 110.461L445.573 112.091C445.943 112.464 446.543 112.464 446.913 112.091C447.514 111.486 448.53 111.928 448.53 112.767C448.53 113.279 448.946 113.721 449.478 113.721H451.765C452.273 113.721 452.712 113.302 452.712 112.767C452.712 111.928 453.729 111.509 454.329 112.091C454.699 112.464 455.3 112.464 455.67 112.091L457.287 110.461C457.656 110.088 457.656 109.483 457.287 109.11C456.686 108.505 457.125 107.48 457.957 107.48C458.465 107.48 458.904 107.061 458.904 106.525V104.219C458.881 103.684 458.465 103.264 457.957 103.264ZM450.656 110.647C447.768 110.647 445.411 108.272 445.411 105.36C445.411 102.449 447.768 100.074 450.656 100.074C453.544 100.074 455.9 102.449 455.9 105.36C455.9 108.272 453.567 110.647 450.656 110.647Z" fill="#2D83A6"></path><path d="M454.029 105.36C454.029 107.247 452.527 108.761 450.656 108.761C448.785 108.761 447.283 107.247 447.283 105.36C447.283 103.474 448.785 101.96 450.656 101.96C452.527 101.96 454.029 103.474 454.029 105.36Z" fill="#2D83A6"></path><path d="M473.714 251.828C472.674 251.828 472.143 250.547 472.882 249.802C473.344 249.336 473.344 248.591 472.882 248.125L470.872 246.099C470.41 245.633 469.671 245.633 469.208 246.099C468.469 246.844 467.198 246.309 467.198 245.261C467.198 244.609 466.667 244.073 466.02 244.073H463.155C462.508 244.073 461.977 244.609 461.977 245.261C461.977 246.309 460.706 246.844 459.967 246.099C459.505 245.633 458.765 245.633 458.303 246.099L456.293 248.125C455.831 248.591 455.831 249.336 456.293 249.802C457.033 250.547 456.501 251.828 455.462 251.828C454.815 251.828 454.283 252.364 454.283 253.016V255.904C454.283 256.556 454.815 257.092 455.462 257.092C456.501 257.092 457.033 258.373 456.293 259.118C455.831 259.584 455.831 260.329 456.293 260.795L458.303 262.821C458.765 263.287 459.505 263.287 459.967 262.821C460.706 262.076 461.977 262.611 461.977 263.66C461.977 264.312 462.508 264.847 463.155 264.847H466.02C466.667 264.847 467.198 264.312 467.198 263.66C467.198 262.611 468.469 262.076 469.208 262.821C469.671 263.287 470.41 263.287 470.872 262.821L472.882 260.795C473.344 260.329 473.344 259.584 472.882 259.118C472.143 258.373 472.674 257.092 473.714 257.092C474.361 257.092 474.892 256.556 474.892 255.904V253.016C474.892 252.364 474.361 251.828 473.714 251.828ZM464.588 261.074C460.96 261.074 458.003 258.117 458.003 254.437C458.003 250.78 460.937 247.799 464.588 247.799C468.238 247.799 471.172 250.757 471.172 254.437C471.149 258.117 468.215 261.074 464.588 261.074Z" fill="#2D83A6"></path><path d="M468.816 254.46C468.816 256.812 466.921 258.722 464.587 258.722C462.254 258.722 460.359 256.812 460.359 254.46C460.359 252.108 462.254 250.198 464.587 250.198C466.921 250.198 468.816 252.108 468.816 254.46Z" fill="#2D83A6"></path><g filter="url(#filter1_f_118_8004)"><path d="M545.555 216.58C557.478 216.58 567.143 206.837 567.143 194.818C567.143 182.8 557.478 173.057 545.555 173.057C533.633 173.057 523.967 182.8 523.967 194.818C523.967 206.837 533.633 216.58 545.555 216.58Z" fill="url(#paint1_radial_118_8004)"></path></g><g filter="url(#filter2_f_118_8004)"><path d="M585.852 103.422C597.245 103.422 606.481 94.1118 606.481 82.6276C606.481 71.1433 597.245 61.8336 585.852 61.8336C574.459 61.8336 565.224 71.1433 565.224 82.6276C565.224 94.1118 574.459 103.422 585.852 103.422Z" fill="url(#paint2_radial_118_8004)"></path></g><g filter="url(#filter3_f_118_8004)"><path d="M612.948 507.37C631.489 507.37 646.518 492.219 646.518 473.53C646.518 454.841 631.489 439.69 612.948 439.69C594.408 439.69 579.378 454.841 579.378 473.53C579.378 492.219 594.408 507.37 612.948 507.37Z" fill="url(#paint3_radial_118_8004)"></path></g><g filter="url(#filter4_f_118_8004)"><path d="M141.624 270.741C156.726 270.741 168.968 258.4 168.968 243.177C168.968 227.953 156.726 215.612 141.624 215.612C126.522 215.612 114.279 227.953 114.279 243.177C114.279 258.4 126.522 270.741 141.624 270.741Z" fill="url(#paint4_radial_118_8004)"></path></g><g filter="url(#filter5_f_118_8004)"><path d="M345.988 414.848C387.055 414.848 420.346 381.29 420.346 339.893C420.346 298.496 387.055 264.938 345.988 264.938C304.921 264.938 271.63 298.496 271.63 339.893C271.63 381.29 304.921 414.848 345.988 414.848Z" fill="url(#paint5_radial_118_8004)"></path></g><g filter="url(#filter6_f_118_8004)"><path d="M350.785 257.201C404.57 257.201 448.17 213.25 448.17 159.034C448.17 104.817 404.57 60.8665 350.785 60.8665C297.001 60.8665 253.401 104.817 253.401 159.034C253.401 213.25 297.001 257.201 350.785 257.201Z" fill="url(#paint6_radial_118_8004)"></path></g><g filter="url(#filter7_f_118_8004)"><path d="M553.462 359.394C572.002 359.394 587.032 344.243 587.032 325.554C587.032 306.865 572.002 291.714 553.462 291.714C534.922 291.714 519.892 306.865 519.892 325.554C519.892 344.243 534.922 359.394 553.462 359.394Z" fill="url(#paint7_radial_118_8004)"></path></g><g filter="url(#filter8_f_118_8004)"><path d="M669.325 192.401C674.889 192.401 679.399 187.854 679.399 182.245C679.399 176.637 674.889 172.09 669.325 172.09C663.761 172.09 659.251 176.637 659.251 182.245C659.251 187.854 663.761 192.401 669.325 192.401Z" fill="url(#paint8_radial_118_8004)"></path></g><path d="M35.1242 335.541C44.9273 335.541 52.8742 327.53 52.8742 317.648C52.8742 307.766 44.9273 299.756 35.1242 299.756C25.3212 299.756 17.3743 307.766 17.3743 317.648C17.3743 327.53 25.3212 335.541 35.1242 335.541Z" fill="url(#paint9_radial_118_8004)"></path><path d="M167.91 37.7974C170.755 37.7974 173.062 35.4722 173.062 32.6038C173.062 29.7355 170.755 27.4103 167.91 27.4103C165.064 27.4103 162.757 29.7355 162.757 32.6038C162.757 35.4722 165.064 37.7974 167.91 37.7974Z" fill="#2D83A6"></path><path d="M46.6598 82.4435C46.6598 84.3999 45.0888 86.0069 43.1249 86.0069C41.1842 86.0069 39.59 84.4232 39.59 82.4435C39.59 80.4872 41.1611 78.8802 43.1249 78.8802C45.0888 78.8802 46.6598 80.4872 46.6598 82.4435Z" fill="#2D83A6"></path><path d="M122.002 415.158C122.002 417.114 120.431 418.721 118.467 418.721C116.526 418.721 114.932 417.138 114.932 415.158C114.932 413.202 116.503 411.595 118.467 411.595C120.408 411.595 122.002 413.202 122.002 415.158Z" fill="#2D83A6"></path><path d="M616.45 116.004C616.45 117.96 614.879 119.567 612.915 119.567C610.951 119.567 609.38 117.983 609.38 116.004C609.38 114.047 610.951 112.44 612.915 112.44C614.879 112.44 616.45 114.047 616.45 116.004Z" fill="#2D83A6"></path><path d="M190.644 579C192.596 579 194.179 577.405 194.179 575.437C194.179 573.469 192.596 571.873 190.644 571.873C188.692 571.873 187.109 573.469 187.109 575.437C187.109 577.405 188.692 579 190.644 579Z" fill="#2D83A6"></path><path d="M667.256 457.801C669.208 457.801 670.791 456.206 670.791 454.238C670.791 452.27 669.208 450.675 667.256 450.675C665.304 450.675 663.721 452.27 663.721 454.238C663.721 456.206 665.304 457.801 667.256 457.801Z" fill="#2D83A6"></path><path d="M567.008 568.566C567.008 570.523 565.437 572.13 563.473 572.13C561.509 572.13 559.938 570.546 559.938 568.566C559.938 566.587 561.509 565.003 563.473 565.003C565.437 565.003 567.008 566.61 567.008 568.566Z" fill="#2D83A6"></path><path d="M667.255 55.5208C667.255 57.4771 665.684 59.0841 663.721 59.0841C661.757 59.0841 660.186 57.5004 660.186 55.5208C660.186 53.5645 661.757 51.9575 663.721 51.9575C665.684 51.9575 667.255 53.5412 667.255 55.5208Z" fill="#2D83A6"></path><path d="M368.975 290.933H360.739L384.559 226.061H392.668L416.488 290.933H408.252L388.867 236.324H388.36L368.975 290.933ZM372.015 265.592H405.211V272.561H372.015V265.592ZM374.169 334.061V398.933H366.314V334.061H374.169Z" fill="#D0E9F2"></path><path d="M220.887 183.474C196.697 236.597 225.184 284.271 225.184 284.271C225.184 284.271 207.44 320.043 206.909 335.205C206.378 350.39 223.036 342.262 226.27 347.665C229.505 353.091 223.128 364.759 227.887 367.182C238.146 372.422 231.723 380.34 233.594 385.091C235.396 389.609 246.14 382.366 247.757 395.921C249.374 409.475 270.353 441.988 301.52 413.807C332.71 385.627 355.283 341.19 355.283 341.19C355.283 341.19 332.71 305.418 324.092 270.74C315.498 236.061 328.39 198.658 343.985 176.44C359.58 154.222 361.197 120.079 355.283 110.857C355.283 110.857 250.483 118.472 220.887 183.474Z" fill="#D0E9F2"></path><defs><filter id="filter0_f_118_8004" x="80.1305" y="208.953" width="382.04" height="383.743" filterUnits="userSpaceOnUse" color-interpolation-filters="sRGB"><feGaussianBlur stdDeviation="42.5"></feGaussianBlur></filter><filter id="filter1_f_118_8004" x="520.967" y="170.057" width="49.1755" height="49.5223" filterUnits="userSpaceOnUse" color-interpolation-filters="sRGB"><feGaussianBlur stdDeviation="1.5"></feGaussianBlur></filter><filter id="filter2_f_118_8004" x="555.224" y="51.8336" width="61.2566" height="61.588" filterUnits="userSpaceOnUse" color-interpolation-filters="sRGB"><feGaussianBlur stdDeviation="5"></feGaussianBlur></filter><filter id="filter3_f_118_8004" x="569.378" y="429.69" width="87.1401" height="87.6794" filterUnits="userSpaceOnUse" color-interpolation-filters="sRGB"><feGaussianBlur stdDeviation="5"></feGaussianBlur></filter><filter id="filter4_f_118_8004" x="104.279" y="205.612" width="74.689" height="75.1283" filterUnits="userSpaceOnUse" color-interpolation-filters="sRGB"><feGaussianBlur stdDeviation="5"></feGaussianBlur></filter><filter id="filter5_f_118_8004" x="241.63" y="234.938" width="208.716" height="209.91" filterUnits="userSpaceOnUse" color-interpolation-filters="sRGB"><feGaussianBlur stdDeviation="15"></feGaussianBlur></filter><filter id="filter6_f_118_8004" x="208.401" y="15.8665" width="284.77" height="286.334" filterUnits="userSpaceOnUse" color-interpolation-filters="sRGB"><feGaussianBlur stdDeviation="22.5"></feGaussianBlur></filter><filter id="filter7_f_118_8004" x="509.892" y="281.714" width="87.1401" height="87.6794" filterUnits="userSpaceOnUse" color-interpolation-filters="sRGB"><feGaussianBlur stdDeviation="5"></feGaussianBlur></filter><filter id="filter8_f_118_8004" x="657.251" y="170.09" width="24.1486" height="24.3104" filterUnits="userSpaceOnUse" color-interpolation-filters="sRGB"><feGaussianBlur stdDeviation="1"></feGaussianBlur></filter><radialGradient id="paint0_radial_118_8004" cx="0" cy="0" r="1" gradientUnits="userSpaceOnUse" gradientTransform="translate(271.169 400.857) scale(85.6097 86.2973)"><stop stop-color="#D0E9F2"></stop><stop offset="1" stop-color="#011826" stop-opacity="0"></stop></radialGradient><radialGradient id="paint1_radial_118_8004" cx="0" cy="0" r="1" gradientUnits="userSpaceOnUse" gradientTransform="translate(545.559 194.825) scale(17.4318 17.5719)"><stop stop-color="#D0E9F2"></stop><stop offset="1" stop-color="#011826" stop-opacity="0"></stop></radialGradient><radialGradient id="paint2_radial_118_8004" cx="0" cy="0" r="1" gradientUnits="userSpaceOnUse" gradientTransform="translate(585.856 82.6339) scale(16.6571 16.7909)"><stop stop-color="#D0E9F2"></stop><stop offset="1" stop-color="#011826" stop-opacity="0"></stop></radialGradient><radialGradient id="paint3_radial_118_8004" cx="0" cy="0" r="1" gradientUnits="userSpaceOnUse" gradientTransform="translate(612.954 473.54) scale(27.1074 27.3251)"><stop stop-color="#D0E9F2"></stop><stop offset="1" stop-color="#011826" stop-opacity="0"></stop></radialGradient><radialGradient id="paint4_radial_118_8004" cx="0" cy="0" r="1" gradientUnits="userSpaceOnUse" gradientTransform="translate(141.629 243.185) scale(22.0803 22.2577)"><stop stop-color="#D0E9F2"></stop><stop offset="1" stop-color="#011826" stop-opacity="0"></stop></radialGradient><radialGradient id="paint5_radial_118_8004" cx="0" cy="0" r="1" gradientUnits="userSpaceOnUse" gradientTransform="translate(346.001 339.916) scale(60.043 60.5253)"><stop stop-color="#D0E9F2"></stop><stop offset="1" stop-color="#011826" stop-opacity="0"></stop></radialGradient><radialGradient id="paint6_radial_118_8004" cx="0" cy="0" r="1" gradientUnits="userSpaceOnUse" gradientTransform="translate(350.802 159.063) scale(78.637 79.2686)"><stop stop-color="#D0E9F2"></stop><stop offset="1" stop-color="#011826" stop-opacity="0"></stop></radialGradient><radialGradient id="paint7_radial_118_8004" cx="0" cy="0" r="1" gradientUnits="userSpaceOnUse" gradientTransform="translate(553.468 325.564) scale(27.1074 27.3251)"><stop stop-color="#D0E9F2"></stop><stop offset="1" stop-color="#011826" stop-opacity="0"></stop></radialGradient><radialGradient id="paint8_radial_118_8004" cx="0" cy="0" r="1" gradientUnits="userSpaceOnUse" gradientTransform="translate(669.327 182.248) scale(8.13486 8.2002)"><stop stop-color="#D0E9F2"></stop><stop offset="1" stop-color="#011826" stop-opacity="0"></stop></radialGradient><radialGradient id="paint9_radial_118_8004" cx="0" cy="0" r="1" gradientUnits="userSpaceOnUse" gradientTransform="translate(35.1273 317.654) scale(14.3328 14.448)"><stop stop-color="#D0E9F2"></stop><stop offset="1" stop-color="#011826" stop-opacity="0"></stop></radialGradient></defs></svg>