<svg xmlns="http://www.w3.org/2000/svg" width="28" height="28" viewBox="0 0 28 28" fill="none"><g clip-path="url(#clip0_154_683)"><path d="M25.3055 21.9716C25.3055 21.9716 25.1685 23.9815 23.3414 23.9815C21.9303 23.9815 20.9666 22.9052 20.0642 21.5076C22.6273 19.2704 24.2549 15.9295 24.2549 12.1962C24.2549 5.46047 18.9581 0 12.4241 0C5.89009 0 0.593231 5.46047 0.593231 12.1963C0.593231 18.9322 5.89009 24.3926 12.4241 24.3926C13.6099 24.3926 14.7545 24.212 15.8346 23.8773C17.201 26.0481 18.9357 28 21.6512 28C27.1783 28 27.4068 21.9716 27.4068 21.9716H25.3055V21.9716ZM12.4241 22.3827C8.61466 22.3827 5.52653 17.8221 5.52653 12.1963C5.52653 6.57053 8.61466 2.00989 12.4241 2.00989C16.2335 2.00989 19.3216 6.57053 19.3216 12.1963C19.3216 14.4334 18.8329 16.5016 18.0051 18.1821C17.07 16.847 15.9475 15.7101 14.3426 15.3481C11.4956 14.7062 9.04382 15.9877 8.26727 16.6272L8.99812 18.1346C8.99812 18.1346 9.73696 17.7098 11.569 18.1341C12.7233 18.4014 13.6203 20.0033 14.6483 21.8412C13.9505 22.1921 13.2024 22.3827 12.4241 22.3827Z" fill="#CF2217"></path></g><defs><clipPath id="clip0_154_683"><rect width="28" height="28" fill="white"></rect></clipPath></defs></svg>