<svg xmlns="http://www.w3.org/2000/svg" width="28" height="28" viewBox="0 0 28 28" fill="none"><g clip-path="url(#clip0_154_719)"><path d="M28 5.31602C26.9703 5.77227 25.8641 6.08055 24.7013 6.21989C25.8876 5.50962 26.7977 4.38248 27.2268 3.04081C26.1169 3.69934 24.8875 4.17778 23.5792 4.43427C22.5309 3.31955 21.0388 2.62158 19.3864 2.62158C16.2147 2.62158 13.6424 5.19392 13.6424 8.36806C13.6426 8.80796 13.6922 9.24644 13.7904 9.67524C9.01438 9.43473 4.7834 7.14722 1.94962 3.67221C1.45641 4.52309 1.17273 5.50962 1.17273 6.56025C1.17273 8.55298 2.18766 10.3127 3.72782 11.3424C2.81563 11.3134 1.92358 11.0669 1.12588 10.6235V10.6975C1.12588 13.4807 3.1051 15.8027 5.73418 16.3305C5.24085 16.4636 4.73206 16.5308 4.22109 16.5303C3.85824 16.5306 3.49616 16.4967 3.13965 16.4292C3.8709 18.7105 5.99194 20.3728 8.50634 20.4172C6.53941 21.9586 4.06203 22.8773 1.37128 22.8773C0.907612 22.8773 0.450098 22.8502 0 22.7971C2.5428 24.4287 5.56156 25.3781 8.80473 25.3781C19.3728 25.3781 25.1502 16.6252 25.1502 9.03395C25.1502 8.78735 25.144 8.53821 25.1329 8.29161C26.2551 7.48017 27.2293 6.47024 27.9975 5.3197L28 5.31602Z" fill="#1DA1F2"></path></g><defs><clipPath id="clip0_154_719"><rect width="28" height="28" fill="white"></rect></clipPath></defs></svg>