<svg xmlns="http://www.w3.org/2000/svg" width="50" height="50" viewBox="0 0 50 50"><g transform="translate(1 1)" stroke="#111" stroke-width="1.5" fill="none" fill-rule="evenodd" stroke-linecap="round" stroke-linejoin="round"><path d="M48 24c0 6.111-10.745 11.065-24 11.065S0 30.111 0 24c0-3.312 3.153-6.281 8.15-8.31"></path><path d="M29.461 45.586C27.811 47.132 25.958 48 24 48c-6.891 0-12.478-10.745-12.478-24S17.108 0 24 0c3.345 0 6.383 2.532 8.622 6.653"></path><path d="M15.761 20.06h3.94V24h-3.94M15.761 24h3.94v3.94h-3.94M25.97 24h-3.94v-3.94h3.94M22.03 24h3.939v3.939H22.03zM32.239 24v3.94h-3.94v-7.88h3.94z"></path><circle cx="36.073" cy="21.358" r="1.297"></circle><path d="m5.015 14.603 3.135 1.09-1.089 3.135M33.377 3.422l-.754 3.231-3.23-.754"></path></g></svg>