<svg xmlns="http://www.w3.org/2000/svg" width="28" height="18" viewBox="0 0 28 18"><g fill="#000" fill-rule="nonzero"><path d="M12.327 10.805c.115 0 .229-.04.316-.12l2.043-1.858a.381.381 0 0 0 0-.575.479.479 0 0 0-.632 0L12.01 10.11a.381.381 0 0 0 0 .575.47.47 0 0 0 .316.12zM6.477 16.129c.114 0 .229-.04.316-.12l4.586-4.173a.381.381 0 0 0 0-.575.478.478 0 0 0-.631 0L6.16 15.435a.381.381 0 0 0 0 .575c.087.08.201.119.316.119zM15.835 14.134c.114 0 .228-.04.316-.12l5.7-5.187a.381.381 0 0 0 0-.575.479.479 0 0 0-.632 0l-5.7 5.187a.381.381 0 0 0 0 .575.47.47 0 0 0 .316.12z"></path><path d="M27.553 2.44h-4.915V1.49C22.638.669 21.903 0 21 0H7c-.903 0-1.638.669-1.638 1.491v.949H.447C.2 2.44 0 2.622 0 2.846V14.05c0 .225.2.407.447.407h1.368c.22 1.695 1.79 3.109 3.69 3.238l4.409.3c.912.062 1.955-.4 2.375-1.05l.744-1.15c.226-.35.578-.55.967-.55s.741.2.967.55l.744 1.15c.395.611 1.34 1.055 2.209 1.055.056 0 .111-.002.166-.006l4.41-.299c1.899-.129 3.47-1.543 3.69-3.238h1.367c.247 0 .447-.182.447-.407V2.846c0-.224-.2-.406-.447-.406zM6.255 1.49c0-.374.334-.678.745-.678h14c.41 0 .745.304.745.678v2.71c0 .375-.334.679-.745.679H7c-.41 0-.745-.304-.745-.678V1.49zm20.851 12.153h-.893V6.913c0-.225-.2-.407-.447-.407H5.809c-.247 0-.447.182-.447.407 0 .224.2.406.447.406h19.51v6.731c0 1.455-1.296 2.726-2.89 2.834l-4.41.3c-.57.039-1.289-.266-1.538-.651l-.744-1.15a2.064 2.064 0 0 0-3.474 0l-.744 1.15c-.25.385-.968.69-1.539.65l-4.409-.299c-1.594-.108-2.89-1.38-2.89-2.834V7.32h1.34c.247 0 .447-.183.447-.407 0-.225-.2-.407-.447-.407H2.234c-.247 0-.447.182-.447.407v6.73H.894V3.254h4.468v.949c0 .822.735 1.49 1.638 1.49h14c.903 0 1.638-.668 1.638-1.49v-.949h4.468v10.39z"></path><path d="M9.68 4.066c.74 0 1.341-.547 1.341-1.22 0-.672-.601-1.22-1.34-1.22-.74 0-1.34.548-1.34 1.22 0 .673.6 1.22 1.34 1.22zm0-1.626c.247 0 .448.182.448.406 0 .225-.2.407-.447.407s-.447-.182-.447-.407c0-.224.2-.406.447-.406zM14.447 4.066c.739 0 1.34-.547 1.34-1.22 0-.672-.601-1.22-1.34-1.22-.74 0-1.34.548-1.34 1.22 0 .673.6 1.22 1.34 1.22zm0-1.626c.246 0 .447.182.447.406 0 .225-.2.407-.447.407S14 3.071 14 2.846c0-.224.2-.406.447-.406z"></path><circle cx="18.766" cy="2.846" r="1"></circle></g></svg>