<svg xmlns="http://www.w3.org/2000/svg" width="40" height="48" viewBox="0 0 40 48"><g fill="#111" fill-rule="nonzero"><path d="M39.15 38.734H24.037a.84.84 0 0 0-.849.832v3.218h-3.633c-1.686 0-3.057-1.344-3.057-2.996v-.722c0-3.053 1.687-5.879 4.403-7.374 3.25-1.79 5.27-5.172 5.27-8.826v-.58a2.738 2.738 0 0 0 1.769-1.735h.45c1.603 0 2.906-1.277 2.906-2.848 0-1.57-1.303-2.847-2.905-2.847h-.317v-2.677C28.073 5.463 22.5 0 15.648 0 8.796 0 3.222 5.463 3.222 12.179v2.677h-.316C1.303 14.856 0 16.133 0 17.703s1.303 2.848 2.906 2.848h.45c.272.82.934 1.468 1.77 1.735v.58c0 3.654 2.02 7.036 5.27 8.826 2.715 1.495 4.403 4.32 4.403 7.374v.722c0 2.57 2.133 4.66 4.755 4.66h3.633v2.72c0 .46.38.832.85.832H39.15a.84.84 0 0 0 .849-.832v-7.602a.84.84 0 0 0-.85-.832zM28.074 16.52h.317c.665 0 1.207.531 1.207 1.183 0 .653-.542 1.184-1.207 1.184h-.317V16.52zM3.222 18.887h-.316c-.666 0-1.208-.531-1.208-1.184 0-.652.542-1.183 1.208-1.183h.316v2.367zm23.153.832c0 .57-.473 1.034-1.055 1.034a1.046 1.046 0 0 1-1.055-1.034v-4.031c0-.57.474-1.034 1.055-1.034.582 0 1.055.464 1.055 1.034v4.031zm-20.4 1.034a1.046 1.046 0 0 1-1.055-1.034v-4.031c0-.57.474-1.034 1.055-1.034.582 0 1.055.464 1.055 1.034v4.031c0 .57-.473 1.034-1.055 1.034zm9.673 14.3a10.202 10.202 0 0 0-4.42-4.813c-2.717-1.495-4.404-4.32-4.404-7.374v-.58c1.104-.352 1.904-1.37 1.904-2.567v-4.031c0-1.488-1.235-2.699-2.753-2.699-.373 0-.73.074-1.055.207v-1.017c0-5.798 4.813-10.514 10.728-10.514S26.375 6.38 26.375 12.179v1.017a2.784 2.784 0 0 0-1.055-.207c-1.518 0-2.753 1.211-2.753 2.699v4.031c0 1.198.8 2.215 1.904 2.567v.58c0 3.053-1.687 5.879-4.403 7.374a10.202 10.202 0 0 0-4.42 4.813zm22.654 11.283H24.886v-5.938h13.416v5.938z"></path><path d="M27.042 45.53a.84.84 0 0 0 .85-.832v-2.663a.84.84 0 0 0-.85-.832.84.84 0 0 0-.85.832V44.7c0 .46.381.832.85.832zM29.59 45.53a.84.84 0 0 0 .849-.832v-2.663a.84.84 0 0 0-.85-.832.84.84 0 0 0-.849.832V44.7c0 .46.38.832.85.832z"></path><circle cx="36.043" cy="42.035" r="1"></circle><circle cx="36.043" cy="44.682" r="1"></circle></g></svg>