<svg xmlns="http://www.w3.org/2000/svg" width="66" height="63" viewBox="0 0 66 63"><g transform="translate(1 2)" stroke="#111" stroke-width="2" fill="none" fill-rule="evenodd" stroke-linecap="round" stroke-linejoin="round"><path d="M50.582 49.088V27.263L32 16.352 13.418 27.263v21.824L32 60z"></path><path d="M13.418 27.263 32 38.176l18.582-10.913M32 59.999V38.176M32 16.352v-5.046"></path><ellipse transform="rotate(-24.544 32 6.426)" cx="32" cy="6.426" rx="4.812" ry="4.866"></ellipse><path d="m13.418 49.088-4.382 2.365M2.55 49.43a4.733 4.733 0 0 1 5.303.547 4.931 4.931 0 0 1 1.532 5.193c-.569 1.887-2.2 3.24-4.13 3.428-1.933.187-3.785-.827-4.695-2.57-1.241-2.381-.35-5.335 1.99-6.598zM50.582 49.088l4.382 2.365M61.45 49.43a4.733 4.733 0 0 0-5.303.548 4.931 4.931 0 0 0-1.532 5.193c.569 1.887 2.2 3.24 4.131 3.427 1.932.187 3.784-.827 4.694-2.57 1.241-2.381.35-5.335-1.99-6.598z"></path></g></svg>