<svg xmlns="http://www.w3.org/2000/svg" xmlns:xlink="http://www.w3.org/1999/xlink" width="20px" height="24px" viewBox="0 0 20 24"><title>book-image</title><g id="Page-1" stroke="none" stroke-width="1" fill="none" fill-rule="evenodd"><g id="Sala-Landing-Page" transform="translate(-280.000000, -10906.000000)" fill="#0057FC" fill-rule="nonzero"><g id="book-image" transform="translate(280.000000, 10906.000000)"><path d="M2.5,24 C1.121,24 0,22.878 0,21.5 L0,2.5 C0,1.121 1.121,0 2.5,0 L19.5,0 C19.776,0 20,0.224 20,0.5 C20,0.776 19.776,1 19.5,1 L2.5,1 C1.673,1 1,1.673 1,2.5 C1,3.327 1.673,4 2.5,4 L18.5,4 C19.327,4 20,4.673 20,5.5 L20,22.5 C20,23.327 19.327,24 18.5,24 L2.5,24 Z M1,21.5 C1,22.327 1.673,23 2.5,23 L18.5,23 C18.776,23 19,22.776 19,22.5 L19,5.5 C19,5.224 18.776,5 18.5,5 L2.5,5 C1.951,5 1.428,4.822 1,4.5 L1,21.5 Z" id="Shape"></path><path d="M2.5,3 C2.224,3 2,2.776 2,2.5 C2,2.224 2.224,2 2.5,2 L18.5,2 C18.776,2 19,2.224 19,2.5 C19,2.776 18.776,3 18.5,3 L2.5,3 Z" id="Path"></path><path d="M5.5,21 C4.673,21 4,20.327 4,19.5 L4,9.5 C4,8.673 4.673,8 5.5,8 L15.5,8 C16.327,8 17,8.673 17,9.5 L17,19.5 C17,20.327 16.327,21 15.5,21 L5.5,21 Z M15.5,20 C15.776,20 16,19.776 16,19.5 L16,18.401 L13.693,14.94 C13.655,14.883 13.6,14.846 13.534,14.833 C13.518,14.83 13.501,14.828 13.485,14.828 C13.436,14.828 13.388,14.843 13.346,14.87 C13.321,14.887 13.299,14.909 13.281,14.934 L11.28,17.786 C11.202,17.899 11.078,17.974 10.942,17.994 C10.918,17.999 10.894,18 10.87,18 C10.757,18 10.646,17.961 10.558,17.89 L9.322,16.901 C9.277,16.865 9.224,16.846 9.167,16.846 C9.157,16.846 9.148,16.846 9.138,16.847 C9.07,16.855 9.012,16.887 8.97,16.94 L6.933,20 L15.5,20 Z M5.5,9 C5.224,9 5,9.224 5,9.5 L5,19.5 C5,19.776 5.224,20 5.5,20 L5.732,20 L8.125,16.404 C8.145,16.374 8.167,16.344 8.189,16.316 C8.396,16.056 8.694,15.892 9.026,15.854 C9.074,15.849 9.121,15.846 9.168,15.846 C9.453,15.846 9.722,15.94 9.946,16.119 L10.767,16.775 L12.461,14.36 C12.549,14.233 12.66,14.124 12.791,14.037 C12.998,13.9 13.237,13.827 13.483,13.827 C13.565,13.827 13.648,13.835 13.73,13.851 C14.058,13.917 14.34,14.106 14.525,14.384 L16,16.599 L16,9.5 C16,9.224 15.776,9 15.5,9 L5.5,9 Z" id="Shape"></path><path d="M8.622,14.5 C7.519,14.5 6.622,13.603 6.622,12.5 C6.622,11.397 7.519,10.5 8.622,10.5 C9.725,10.5 10.622,11.397 10.622,12.5 C10.622,13.603 9.725,14.5 8.622,14.5 Z M8.622,11.5 C8.071,11.5 7.622,11.949 7.622,12.5 C7.622,13.052 8.071,13.5 8.622,13.5 C9.173,13.5 9.622,13.052 9.622,12.5 C9.622,11.949 9.173,11.5 8.622,11.5 Z" id="Shape"></path></g></g></g></svg>