<svg xmlns="http://www.w3.org/2000/svg" width="60" height="60" viewBox="0 0 60 60"><g fill="#111" fill-rule="nonzero"><path d="M20 27c-.6 0-1 .4-1 1s.4 1 1 1 1-.4 1-1-.4-1-1-1z"></path><path d="M45.288 55.782c.142-.085.282-.17.423-.257l.195-.122c.115-.073.23-.145.343-.219.095-.061.19-.124.284-.187l.264-.176c.148-.1.295-.203.441-.307l.108-.075c.186-.133.37-.267.553-.404l.138-.105c.134-.101.267-.203.4-.307l.205-.163a29.927 29.927 0 0 0 1.62-1.387l.087-.081c5.298-4.909 8.835-11.693 9.525-19.27a32.508 32.508 0 0 0 .071-.938c.007-.124.015-.247.02-.371.007-.139.012-.278.016-.417a29.573 29.573 0 0 0 .01-1.711c-.002-.094-.006-.188-.01-.282-.004-.139-.009-.278-.015-.416l-.021-.372a28.928 28.928 0 0 0-.07-.938c-.69-7.576-4.228-14.361-9.526-19.27-.03-.026-.058-.054-.087-.08a30.566 30.566 0 0 0-1.62-1.388l-.206-.163a29.114 29.114 0 0 0-.4-.307l-.137-.105a29.242 29.242 0 0 0-.553-.404l-.108-.075a30.22 30.22 0 0 0-.441-.307c-.088-.06-.176-.117-.264-.175l-.284-.188a29.748 29.748 0 0 0-1.053-.652A29.753 29.753 0 0 0 30 0C13.5 0 0 13.5 0 30s13.5 30 30 30c2.043 0 4.04-.208 5.972-.602L36 59.4c.085 0 .17 0 .256-.063a29.8 29.8 0 0 0 8.94-3.5l.092-.055zm-.609-1.969a27.212 27.212 0 0 1-.953.566l-.11.062c-.142.079-.284.158-.427.235l-.053.028A27.572 27.572 0 0 1 36.6 57.2c-3.365-6.822-5.331-15.74-5.574-25.204l-.008-.369A82.544 82.544 0 0 1 31 30c0-.346.003-.691.007-1.035l.011-.593.008-.367C31.269 18.54 33.236 9.622 36.6 2.8c2.309.559 4.5 1.406 6.537 2.497l.052.027c.143.077.286.156.427.236l.11.061c.14.08.28.16.418.242l.093.055c.148.089.296.178.442.269l.02.013c7.358 4.576 12.397 12.459 13.19 21.34l.01.101a28.051 28.051 0 0 1 .084 1.431l.008.268a28.126 28.126 0 0 1 0 1.32l-.008.268a28.296 28.296 0 0 1-.084 1.431l-.01.102c-.793 8.88-5.832 16.763-13.19 21.34l-.02.012zM29 30c0 5.82.567 11.358 1.787 16.523L30.9 47H30c-9.4 0-17-7.6-17-17s7.6-17 17-17h.9C29.6 18.4 29 24 29 30zM2 30C2 14.6 14.6 2 30 2c1.57 0 3.11.133 4.61.384-1.267 2.638-2.334 5.541-3.185 8.644A25.479 25.479 0 0 0 30 11c-10.5 0-19 8.5-19 19s8.5 19 19 19c.446 0 .892 0 1.389-.052.834 3.107 1.875 6.023 3.105 8.687A27.895 27.895 0 0 1 30 58C14.6 58 2 45.4 2 30z"></path><path d="M25 18c-3.9 0-7 3.1-7 7 0 .6.4 1 1 1s1-.4 1-1c0-2.8 2.2-5 5-5 .6 0 1-.4 1-1s-.4-1-1-1z"></path></g></svg>