<svg xmlns="http://www.w3.org/2000/svg" width="36" height="36" viewBox="0 0 36 36"><g fill="#000" fill-rule="nonzero"><path d="M27.701 36c-.183 0-.643-.06-.974-.623l-4.285-7.28a14.034 14.034 0 0 1-8.884 0l-4.286 7.28c-.33.56-.792.621-.975.621a.764.764 0 0 1-.089-.004c-.153-.014-.678-.115-.927-.807l-1.533-4.26-4.421.758a1.585 1.585 0 0 1-.255.023c-.539 0-.807-.31-.899-.442-.088-.129-.35-.6.015-1.239l5.174-8.962a14.52 14.52 0 0 1-1.614-6.656C3.748 6.464 10.142 0 18 0 25.857 0 32.25 6.464 32.25 14.41c0 2.315-.558 4.613-1.614 6.656l5.172 8.96c.368.638.107 1.11.017 1.24-.092.134-.362.442-.9.442-.078 0-.162-.006-.254-.022l-4.422-.758-1.533 4.26c-.25.692-.774.794-.93.807A.644.644 0 0 1 27.7 36zm-.11-2.12 1.463-4.064a.753.753 0 0 1 .825-.49l4.204.72-4.331-7.503a14.499 14.499 0 0 1-5.893 4.997l3.733 6.34zM6.239 29.317c.316 0 .6.2.707.5l1.461 4.063 3.733-6.339a14.489 14.489 0 0 1-5.893-4.996l-4.33 7.502 4.198-.72a.892.892 0 0 1 .124-.01zM18 1.517c-7.032 0-12.752 5.783-12.752 12.892 0 7.11 5.72 12.892 12.752 12.892 7.03 0 12.75-5.783 12.75-12.892C30.75 7.3 25.03 1.517 18 1.517z"></path><path d="M16.033 18.914c-.501 0-.972-.197-1.326-.555l-2.58-2.61a.76.76 0 0 1-.22-.536c0-.203.079-.393.22-.537a.745.745 0 0 1 1.062 0l2.58 2.609a.377.377 0 0 0 .265.103c.104 0 .2-.038.264-.103l7.081-7.16a.745.745 0 0 1 1.062 0 .753.753 0 0 1 .22.538.762.762 0 0 1-.22.537l-7.08 7.159a1.859 1.859 0 0 1-1.328.555z"></path></g></svg>