<svg xmlns="http://www.w3.org/2000/svg" width="36" height="36" viewBox="0 0 36 36"><g fill="#111" fill-rule="nonzero"><path d="M33 0H3a3.004 3.004 0 0 0-3 3v30a3.004 3.004 0 0 0 3 3h30a3.004 3.004 0 0 0 3-3V3a3.004 3.004 0 0 0-3-3zM3 1.2h30A1.8 1.8 0 0 1 34.8 3v1.8H1.2V3A1.8 1.8 0 0 1 3 1.2zm30 33.6H3A1.8 1.8 0 0 1 1.2 33V6h33.6v27a1.8 1.8 0 0 1-1.8 1.8z"></path><path d="M2.4 2.4h1.2v1.2H2.4V2.4zm2.4 0H6v1.2H4.8V2.4zm2.4 0h1.2v1.2H7.2V2.4zm-1.8 30a.6.6 0 0 1-.6-.6V9A.6.6 0 0 1 6 9v22.8a.6.6 0 0 1-.6.6zm5.4-19.2a.595.595 0 0 1-.424-.176l-1.8-1.8a.6.6 0 0 1 0-.848l1.8-1.8a.598.598 0 0 1 .848.848L9.848 10.8l1.376 1.376A.6.6 0 0 1 10.8 13.2zm4.8 0a.6.6 0 0 1-.424-1.024l1.376-1.376-1.376-1.376a.598.598 0 0 1 .848-.848l1.8 1.8a.6.6 0 0 1 0 .848l-1.8 1.8a.597.597 0 0 1-.424.176zm-3 .6a.596.596 0 0 1-.515-.291.604.604 0 0 1-.068-.455l1.2-4.8a.6.6 0 0 1 1.164.292l-1.2 4.8a.598.598 0 0 1-.581.454zm-2.4 2.4h2.4v1.2h-2.4v-1.2zm3.6 0h3.6v1.2h-3.6v-1.2zm-1.2 2.4H24v1.2H12.6v-1.2zm13.2 0h5.4v1.2h-5.4v-1.2zM12.6 21h1.2v1.2h-1.2V21zm2.4 0h10.8v1.2H15V21zm12 0h4.2v1.2H27V21zm-16.8 2.4h2.4v1.2h-2.4v-1.2zm3.6 0h3.6v1.2h-3.6v-1.2zm-1.2 2.4H24V27H12.6v-1.2zm13.2 0h5.4V27h-5.4v-1.2zm-13.2 2.4h6.6v1.2h-6.6v-1.2zm7.8 0h1.2v1.2h-1.2v-1.2zm3.6 0h4.8v1.2H24v-1.2zm-13.8 3h2.4v1.2h-2.4v-1.2zm3.6 0h3.6v1.2h-3.6v-1.2z"></path></g></svg>