<svg xmlns="http://www.w3.org/2000/svg" width="36" height="36" viewBox="0 0 36 36"><g fill="#000" fill-rule="nonzero"><path d="M6.75 13.5a.75.75 0 0 1 0-1.5H21a.75.75 0 0 1 0 1.5H6.75zM6.75 18a.75.75 0 0 1 0-1.5h9a.75.75 0 0 1 0 1.5h-9zM6.75 9a.75.75 0 0 1 0-1.5h10.5a.75.75 0 0 1 0 1.5H6.75zM6.75 22.5a.75.75 0 0 1 0-1.5h6a.75.75 0 0 1 .75.75c0 .414-6.75.75-6.75.75zM6.75 27a.75.75 0 0 1 0-1.5h6a.75.75 0 0 1 0 1.5h-6z"></path><path d="M2.25 36C1.01 36 0 34.99 0 33.75V2.25C0 1.01 1.01 0 2.25 0h19.94c.601 0 1.165.234 1.591.658l5.56 5.561c.425.426.659.991.659 1.591v4.94a.75.75 0 0 1-1.5 0V7.81c0-.199-.078-.388-.219-.53l-5.56-5.561a.758.758 0 0 0-.532-.219H2.25a.75.75 0 0 0-.75.75v31.5c0 .414.336.75.75.75h13.5a.75.75 0 0 1 0 1.5H2.25z"></path><path d="M26.25 36c-5.376 0-9.75-4.374-9.75-9.75s4.374-9.75 9.75-9.75S36 20.874 36 26.25 31.626 36 26.25 36zm0-18C21.7 18 18 21.7 18 26.25s3.7 8.25 8.25 8.25 8.25-3.7 8.25-8.25S30.8 18 26.25 18z"></path><path d="M25 30.642a1.861 1.861 0 0 1-1.323-.547l-2.25-2.25a.75.75 0 0 1 1.063-1.061l2.25 2.25a.367.367 0 0 0 .264.108.377.377 0 0 0 .302-.15l4.358-5.808a.752.752 0 0 1 1.342.343.747.747 0 0 1-.142.557l-4.358 5.808c-.355.471-.918.75-1.506.75z"></path></g></svg>