<svg xmlns="http://www.w3.org/2000/svg" width="74" height="60" viewBox="0 0 74 60" fill="none"><path d="M70.2225 0H3.7754C1.6944 0 0 1.64195 0 3.65854V47.561C0 49.579 1.6944 51.2195 3.7754 51.2195H36.2439V58.5366H21.8973V60H52.1005V58.5366H37.754V51.2195H70.2225C72.305 51.2195 73.9979 49.579 73.9979 47.561V3.65854C73.9979 1.64195 72.305 0 70.2225 0ZM3.7754 1.46341H70.2225C71.4714 1.46341 72.4877 2.44829 72.4877 3.65854V43.9024H1.51016V3.65854C1.51016 2.44829 2.5265 1.46341 3.7754 1.46341ZM70.2225 49.7561H3.7754C2.5265 49.7561 1.51016 48.7712 1.51016 47.561V45.3659H72.4877V47.561C72.4877 48.7712 71.4714 49.7561 70.2225 49.7561Z" fill="#0057FC"></path><path d="M36.7305 38.0357L36.9993 38.2303L37.2681 38.0357C45.8866 37.8952 52.8559 31.0669 52.8559 22.683C52.8559 14.2992 45.8881 7.47087 37.2681 7.33038L36.9993 7.13574L36.7305 7.33038C28.112 7.47087 21.1426 14.2992 21.1426 22.683C21.1426 31.0669 28.112 37.8952 36.7305 38.0357ZM37.7543 35.7513V29.305C39.4457 29.3899 41.0842 29.744 42.6095 30.3733C40.9831 32.7762 39.0002 34.6743 37.7543 35.7513ZM37.7543 27.8401V23.4148H45.2613C45.1149 25.4518 44.3839 27.3835 43.3903 29.1147C41.6264 28.3582 39.7251 27.9308 37.7543 27.8401ZM37.7543 21.9513V17.526C39.7266 17.4352 41.6279 17.0079 43.3918 16.2513C44.3839 17.9826 45.1149 19.9128 45.2598 21.9528H37.7543V21.9513ZM37.7543 16.0626V9.6133C39.0017 10.6874 40.9861 12.5855 42.6125 14.9913C41.0873 15.6221 39.4472 15.9762 37.7543 16.0626ZM36.2442 9.61476V16.0611C34.5513 15.9762 32.9128 15.6221 31.389 14.9928C33.0155 12.5899 34.9968 10.6904 36.2442 9.61476ZM36.2442 17.526V21.9513H28.7372C28.8837 19.9143 29.6146 17.9826 30.6083 16.2513C32.3721 17.0079 34.2734 17.4352 36.2442 17.526ZM36.2442 23.4148V27.8401C34.2734 27.9308 32.3721 28.3582 30.6083 29.1133C29.6146 27.3821 28.8837 25.4518 28.7372 23.4133H36.2442V23.4148ZM36.2442 29.3035V35.7499C34.9968 34.6757 33.0155 32.7762 31.389 30.3718C32.9128 29.744 34.5528 29.3899 36.2442 29.3035ZM34.7114 36.3908C31.8934 35.9503 29.3533 34.7182 27.3342 32.9269C28.1603 32.1938 29.0528 31.5557 30.0087 31.0362C31.537 33.3425 33.3703 35.1908 34.7114 36.3908ZM43.9898 31.0362C44.9457 31.5557 45.8382 32.1938 46.6643 32.9269C44.6452 34.7167 42.1036 35.9503 39.2856 36.3908C40.6282 35.1908 42.4615 33.3425 43.9898 31.0362ZM44.7615 29.7806C45.8428 27.8738 46.6235 25.7167 46.7685 23.4148H51.308C51.1328 26.6562 49.813 29.6035 47.7244 31.885C46.8093 31.0684 45.8216 30.3601 44.7615 29.7806ZM46.7685 21.9513C46.6235 19.6494 45.8428 17.4923 44.7615 15.5855C45.8201 15.006 46.8093 14.2962 47.7244 13.4796C49.813 15.7626 51.1328 18.7084 51.308 21.9513H46.7685ZM43.9898 14.3299C42.4615 12.0235 40.6282 10.1767 39.2872 8.97525C42.1051 9.41574 44.6467 10.6494 46.6658 12.4392C45.8397 13.1723 44.9457 13.8104 43.9898 14.3299ZM30.0087 14.3299C29.0528 13.8104 28.1603 13.1723 27.3342 12.4392C29.3518 10.6494 31.8934 9.41574 34.7114 8.97525C33.3688 10.1753 31.5355 12.0235 30.0087 14.3299ZM29.237 15.5855C28.1573 17.4923 27.375 19.6494 27.2315 21.9513H22.692C22.8672 18.7099 24.1871 15.7626 26.2756 13.4796C27.1893 14.2977 28.1784 15.006 29.237 15.5855ZM27.2315 23.4148C27.375 25.7152 28.1573 27.8723 29.237 29.7806C28.1784 30.3601 27.1893 31.0684 26.2756 31.885C24.1871 29.6021 22.8672 26.6562 22.692 23.4148H27.2315V23.4148Z" fill="#0057FC"></path></svg>