<svg xmlns="http://www.w3.org/2000/svg" width="66" height="60" viewBox="0 0 66 60" fill="none"><path d="M65.1936 51.6756H61.9175V43.1197C61.9175 42.6812 61.5564 42.3256 61.1111 42.3256C61.106 42.3256 61.1012 42.3262 61.096 42.3264C61.0911 42.3262 61.0862 42.3256 61.0811 42.3256H37.1323C36.805 40.6681 35.4743 39.3594 33.7891 39.0378V15.5397H60.3566C60.8018 15.5397 61.163 15.1841 61.163 14.7456V0.794076C61.163 0.355614 60.8018 0 60.3566 0H5.60393C5.15852 0 4.79751 0.355614 4.79751 0.794076V14.7456C4.79751 15.1841 5.15852 15.5397 5.60393 15.5397H32.1763V39.038C30.4918 39.3596 29.1619 40.6681 28.8348 42.3256H4.88433C4.43906 42.3256 4.07792 42.6812 4.07792 43.1197V51.6756H0.806417C0.36114 51.6756 0 52.0312 0 52.4696V59.2059C0 59.6444 0.36114 60 0.806417 60H8.97153C9.4168 60 9.77794 59.6444 9.77794 59.2059V52.4696C9.77794 52.0312 9.4168 51.6756 8.97153 51.6756H5.69075V43.9137H28.8345C29.1611 45.5748 30.4914 46.8865 32.1763 47.2086V51.6756H28.9001C28.4548 51.6756 28.0937 52.0312 28.0937 52.4696V59.2059C28.0937 59.6444 28.4548 60 28.9001 60H37.0652C37.5105 60 37.8716 59.6444 37.8716 59.2059V52.4696C37.8716 52.0312 37.5105 51.6756 37.0652 51.6756H33.7891V47.2088C35.4748 46.8865 36.8057 45.5748 37.1326 43.9137H60.3047V51.6756H57.0285C56.5832 51.6756 56.2221 52.0312 56.2221 52.4696V59.2059C56.2221 59.6444 56.5832 60 57.0285 60H65.1936C65.6389 60 66 59.6444 66 59.2059V52.4696C66 52.0312 65.639 51.6756 65.1936 51.6756ZM6.41034 1.58815H59.5501V13.9515H6.41034V1.58815ZM8.16511 58.4118H1.61283V53.2637H8.16511V58.4118ZM36.2588 58.4118H29.7065V53.2637H36.2588V58.4118ZM32.9827 45.6975C31.5418 45.6975 30.3694 44.5411 30.3694 43.1195C30.3694 41.7022 31.5418 40.5491 32.9827 40.5491C34.4247 40.5491 35.5977 41.7022 35.5977 43.1195C35.5977 44.5411 34.4246 45.6975 32.9827 45.6975ZM64.3872 58.4118H57.8349V53.2637H64.3872V58.4118Z" fill="#0057FC"></path><path d="M21.1841 4.79004H15.364C14.9188 4.79004 14.5576 5.14566 14.5576 5.58413V9.96168C14.5576 10.4001 14.9188 10.7558 15.364 10.7558H21.1841C21.6293 10.7558 21.9905 10.4001 21.9905 9.96168V5.58413C21.9905 5.14566 21.6295 4.79004 21.1841 4.79004ZM20.3777 9.16759H16.1704V6.37822H20.3777V9.16759Z" fill="#0057FC"></path><path d="M36.6995 9.96168V5.58413C36.6995 5.14566 36.3383 4.79004 35.8931 4.79004H30.073C29.6277 4.79004 29.2666 5.14566 29.2666 5.58413V9.96168C29.2666 10.4001 29.6277 10.7558 30.073 10.7558H35.8931C36.3385 10.7558 36.6995 10.4001 36.6995 9.96168ZM35.0866 9.16759H30.8794V6.37822H35.0866V9.16759Z" fill="#0057FC"></path><path d="M44.7776 10.7558H50.6024C51.0477 10.7558 51.4088 10.4001 51.4088 9.96168V5.58413C51.4088 5.14566 51.0477 4.79004 50.6024 4.79004H44.7776C44.3323 4.79004 43.9712 5.14566 43.9712 5.58413V9.96168C43.9712 10.4001 44.3322 10.7558 44.7776 10.7558ZM45.584 6.37822H49.796V9.16759H45.584V6.37822Z" fill="#0057FC"></path></svg>