<svg xmlns="http://www.w3.org/2000/svg" xmlns:xlink="http://www.w3.org/1999/xlink" width="26px" height="24px" viewBox="0 0 26 24"><title>content-browser-edit</title><g id="Page-1" stroke="none" stroke-width="1" fill="none" fill-rule="evenodd"><g id="Sala-Landing-Page" transform="translate(-304.000000, -10963.000000)" fill="#0057FC" fill-rule="nonzero"><g id="content-browser-edit" transform="translate(304.000000, 10963.000000)"><path d="M2.70833333,24 C1.21441667,24 0,22.6536 0,21 L0,3 C0,1.3452 1.21441667,0 2.70833333,0 L23.2916667,0 C24.7845,0 26,1.3452 26,3 C26,3.3312 25.7573333,3.6 25.4583333,3.6 C25.1593333,3.6 24.9166667,3.3312 24.9166667,3 C24.9166667,2.0076 24.1875833,1.2 23.2916667,1.2 L2.70833333,1.2 C1.81241667,1.2 1.08333333,2.0076 1.08333333,3 L1.08333333,6 L17.3333333,6 C17.6323333,6 17.875,6.2688 17.875,6.6 C17.875,6.9312 17.6323333,7.2 17.3333333,7.2 L1.08333333,7.2 L1.08333333,21 C1.08333333,21.9924 1.81241667,22.8 2.70833333,22.8 L23.2916667,22.8 C24.1875833,22.8 24.9166667,21.9924 24.9166667,21 L24.9166667,10.8 C24.9166667,10.4688 25.1593333,10.2 25.4583333,10.2 C25.7573333,10.2 26,10.4688 26,10.8 L26,21 C26,22.6536 24.7845,24 23.2916667,24 L2.70833333,24 Z" id="Path"></path><ellipse id="Oval" cx="4.60416667" cy="3.3" rx="1" ry="1"></ellipse><ellipse id="Oval" cx="7.85416667" cy="3.3" rx="1" ry="1"></ellipse><ellipse id="Oval" cx="11.1041667" cy="3.3" rx="1" ry="1"></ellipse><path d="M14.625,16.8 C14.4798333,16.8 14.3444167,16.7376 14.2415,16.6248 C14.1028333,16.4712 14.04975,16.2456 14.1039167,16.0356 L15.18725,11.8356 C15.1915833,11.8188 15.2013333,11.7912 15.2089167,11.7756 C15.2089167,11.7768 15.2089167,11.7768 15.2089167,11.7768 C15.2089167,11.7768 15.2143333,11.7624 15.2208333,11.7468 C15.2468333,11.682 15.2825833,11.6244 15.327,11.5752 L21.8064167,4.3968 C22.27225,3.8976 22.88,3.624 23.5213333,3.624 L23.5635833,3.624 C24.2179167,3.636 24.8310833,3.93 25.2871667,4.452 C26.2145,5.514 26.2145,7.176 25.2871667,8.238 L18.8001667,15.4236 C18.7568333,15.4716 18.70375,15.5112 18.6409167,15.5436 C18.6333333,15.5472 18.6051667,15.5604 18.5975833,15.564 C18.5835,15.5712 18.5824167,15.5724 18.56725,15.5772 L14.7745,16.7772 C14.7246667,16.7928 14.6748333,16.8 14.625,16.8 Z M15.4136667,15.3264 L17.3820833,14.7036 L15.9759167,13.146 L15.4136667,15.3264 Z M18.4166667,14.1516 L23.31875,8.7204 L21.3763333,6.5688 L16.47425,12 L18.4166667,14.1516 Z M24.0846667,7.872 L24.5136667,7.3968 C25.0271667,6.8088 25.0260833,5.88 24.5071667,5.2872 C24.2515,4.9956 23.9091667,4.8312 23.543,4.824 L23.53,4.524 L23.53,4.824 C23.1703333,4.824 22.8193333,4.98 22.56475,5.2524 L22.14225,5.7204 L24.0846667,7.872 Z" id="Shape"></path><path d="M3.79166667,12 C3.49266667,12 3.25,11.7312 3.25,11.4 C3.25,11.0688 3.49266667,10.8 3.79166667,10.8 L8.66666667,10.8 C8.96566667,10.8 9.20833333,11.0688 9.20833333,11.4 C9.20833333,11.7312 8.96566667,12 8.66666667,12 L3.79166667,12 Z" id="Path"></path><path d="M3.79166667,15.6 C3.49266667,15.6 3.25,15.3312 3.25,15 C3.25,14.6688 3.49266667,14.4 3.79166667,14.4 L11.9166667,14.4 C12.2156667,14.4 12.4583333,14.6688 12.4583333,15 C12.4583333,15.3312 12.2156667,15.6 11.9166667,15.6 L3.79166667,15.6 Z" id="Path"></path><path d="M3.79166667,19.2 C3.49266667,19.2 3.25,18.9312 3.25,18.6 C3.25,18.2688 3.49266667,18 3.79166667,18 L21.125,18 C21.424,18 21.6666667,18.2688 21.6666667,18.6 C21.6666667,18.9312 21.424,19.2 21.125,19.2 L3.79166667,19.2 Z" id="Path"></path></g></g></g></svg>