<svg xmlns="http://www.w3.org/2000/svg" xmlns:xlink="http://www.w3.org/1999/xlink" width="24px" height="24px" viewBox="0 0 24 24"><title>currency-euro-circle</title><g id="Page-1" stroke="none" stroke-width="1" fill="none" fill-rule="evenodd"><g id="Sala-Landing-Page" transform="translate(-202.000000, -10800.000000)" fill="#0057FC" fill-rule="nonzero"><g id="body" transform="translate(0.000000, 2904.000000)"><g id="blog-style" transform="translate(0.000000, 7620.000000)"><g id="1" transform="translate(135.000000, 208.091603)"><g id="currency-euro-circle" transform="translate(67.000000, 67.908397)"><path d="M12,24 C5.383,24 0,18.617 0,12 C0,5.383 5.383,0 12,0 C18.617,0 24,5.383 24,12 C24,18.617 18.617,24 12,24 Z M12,1 C5.935,1 1,5.935 1,12 C1,18.065 5.935,23 12,23 C18.065,23 23,18.065 23,12 C23,5.935 18.065,1 12,1 Z" id="Shape"></path><path d="M14.496,18 C10.644,18 8.361,16.654 7.708,14 L6.5,14 C6.224,14 6,13.776 6,13.5 C6,13.224 6.224,13 6.5,13 L7.542,13 C7.511,12.688 7.496,12.358 7.496,12 L6.5,12 C6.224,12 6,11.776 6,11.5 C6,11.224 6.224,11 6.5,11 L7.55,11 C8.033,6.525 11.733,6 14.496,6 C14.772,6 14.996,6.224 14.996,6.5 C14.996,6.776 14.772,7 14.496,7 C10.668,7 8.873,8.2 8.551,11 L13,11 C13.276,11 13.5,11.224 13.5,11.5 C13.5,11.776 13.276,12 13,12 L8.496,12 C8.496,12.352 8.514,12.687 8.55,13 L12,13 C12.276,13 12.5,13.224 12.5,13.5 C12.5,13.776 12.276,14 12,14 L8.749,14 C9.362,16.072 11.152,17 14.496,17 C14.772,17 14.996,17.224 14.996,17.5 C14.996,17.776 14.772,18 14.496,18 Z" id="Path"></path></g></g></g></g></g></g></svg>