<svg xmlns="http://www.w3.org/2000/svg" width="30" height="28" viewBox="0 0 30 28"><g fill="#000" fill-rule="nonzero"><path d="M28.818 9.828a.567.567 0 0 0-.169-.785L24 6.12V3.36c0-.31-.244-.56-.545-.56h-2.182V.56c0-.31-.244-.56-.545-.56h-9.273a.552.552 0 0 0-.546.56V2.8h-.545a.552.552 0 0 0-.546.56V5.6H6.982c-.101 0-.2.029-.285.083L1.35 9.043a.566.566 0 0 0-.168.785L.01 15.565a.575.575 0 0 0 .11.468c.105.13.26.207.424.207h1.091v11.2c0 .31.244.56.546.56h25.637c.301 0 .545-.25.545-.56v-11.2h1.09c.165 0 .32-.076.424-.207a.573.573 0 0 0 .11-.468l-1.17-5.737zm-7-2.548H10.91v-.56h10.91v.56zM12 8.4h9.818v.56H12V8.4zm10.91-.56V6.748l3.518 2.212H22.91V7.84zM12 1.12h8.182V2.8H12V1.12zm-1.09 2.8H22.908V5.6h-12V3.92zm-3.774 2.8h2.682v1.12c0 .31.244.56.546.56h.545v.56H3.572l3.564-2.24zm20.137 20.16H2.727V16.24h24.546v10.64zm.546-11.76H1.217l1.029-5.04H27.754l1.03 5.04h-.965z"></path><path d="M22.364 22.343v1.177h-.546v1.12H24v-1.12h-.545v-1.177c1.243-.26 2.182-1.391 2.182-2.743 0-.31-.244-.56-.546-.56h-4.363a.552.552 0 0 0-.546.56c0 1.352.938 2.483 2.182 2.743zm2.088-2.183a1.643 1.643 0 0 1-1.543 1.12 1.643 1.643 0 0 1-1.543-1.12h3.086z"></path></g></svg>