<svg xmlns="http://www.w3.org/2000/svg" xmlns:xlink="http://www.w3.org/1999/xlink" width="16px" height="24px" viewBox="0 0 16 24"><title>download-dash-arrow-1</title><g id="Page-1" stroke="none" stroke-width="1" fill="none" fill-rule="evenodd"><g id="Sala-Landing-Page" transform="translate(-274.000000, -10775.000000)" fill="#0057FC" fill-rule="nonzero"><g id="body" transform="translate(0.000000, 2904.000000)"><g id="blog-style" transform="translate(0.000000, 7620.000000)"><g id="1" transform="translate(135.000000, 208.091603)"><g id="download-dash-arrow-1" transform="translate(139.000000, 42.908397)"><path d="M7.99958593,24 C7.54344763,24 7.11353729,23.8342336 6.79081944,23.5335163 L0.420848108,17.5967413 C-0.123096812,17.0898787 -0.0113429294,16.6520854 0.0627795441,16.4873816 C0.135761672,16.3226778 0.388918427,15.9390773 1.15751146,15.9390773 L4.57854869,15.9390773 L4.57854869,11.6886567 C4.57854869,11.3953777 4.83398614,11.1573541 5.14872157,11.1573541 C5.46345699,11.1573541 5.71889444,11.3953777 5.71889444,11.6886567 L5.71889444,16.4703799 C5.71889444,16.7636589 5.46345699,17.0016825 5.14872157,17.0016825 L1.39470337,17.0016825 L7.59590354,22.7822545 C7.70423638,22.8821394 7.8467796,22.9384575 7.99958593,22.9384575 C8.15239226,22.9384575 8.29607582,22.883202 8.40326832,22.7833171 L14.6056088,17.0027451 L10.8504503,17.0027451 C10.5357149,17.0027451 10.2802774,16.7647215 10.2802774,16.4714425 L10.2802774,11.6897193 C10.2802774,11.3964403 10.5357149,11.1584167 10.8504503,11.1584167 C11.1651857,11.1584167 11.4206232,11.3964403 11.4206232,11.6897193 L11.4206232,15.9401399 L14.8416604,15.9401399 C15.6113938,15.9401399 15.8634102,16.3237404 15.9375327,16.4895068 C16.0116551,16.6552732 16.1222687,17.0930665 15.5794641,17.5988666 L9.21063311,23.5345789 C8.88677492,23.8342336 8.45800492,24 7.99958593,24 L7.99958593,24 Z" id="Path"></path><path d="M10.8504503,10.094749 C10.5357149,10.094749 10.2802774,9.85672541 10.2802774,9.56344638 L10.2802774,6.9069335 C10.2802774,6.61365448 10.5357149,6.37563092 10.8504503,6.37563092 C11.1651857,6.37563092 11.4206232,6.61365448 11.4206232,6.9069335 L11.4206232,9.56344638 C11.4206232,9.85672541 11.1640454,10.094749 10.8504503,10.094749 Z" id="Path"></path><path d="M5.14872157,10.094749 C4.83398614,10.094749 4.57854869,9.85672541 4.57854869,9.56344638 L4.57854869,6.9069335 C4.57854869,6.61365448 4.83398614,6.37563092 5.14872157,6.37563092 C5.46345699,6.37563092 5.71889444,6.61365448 5.71889444,6.9069335 L5.71889444,9.56344638 C5.71889444,9.85672541 5.46345699,10.094749 5.14872157,10.094749 Z" id="Path"></path><path d="M10.8504503,5.31302577 C10.5357149,5.31302577 10.2802774,5.07500221 10.2802774,4.78172319 L10.2802774,3.18781546 C10.2802774,2.89453644 10.5357149,2.65651288 10.8504503,2.65651288 C11.1651857,2.65651288 11.4206232,2.89453644 11.4206232,3.18781546 L11.4206232,4.78172319 C11.4206232,5.07500221 11.1640454,5.31302577 10.8504503,5.31302577 Z" id="Path"></path><path d="M5.14872157,5.31302577 C4.83398614,5.31302577 4.57854869,5.07500221 4.57854869,4.78172319 L4.57854869,3.18781546 C4.57854869,2.89453644 4.83398614,2.65651288 5.14872157,2.65651288 C5.46345699,2.65651288 5.71889444,2.89453644 5.71889444,3.18781546 L5.71889444,4.78172319 C5.71889444,5.07500221 5.46345699,5.31302577 5.14872157,5.31302577 Z" id="Path"></path><path d="M10.8504503,1.59390773 C10.5357149,1.59390773 10.2802774,1.35588418 10.2802774,1.06260515 L10.2802774,0.531302577 C10.2802774,0.238023554 10.5357149,0 10.8504503,0 C11.1651857,0 11.4206232,0.238023554 11.4206232,0.531302577 L11.4206232,1.06260515 C11.4206232,1.35588418 11.1640454,1.59390773 10.8504503,1.59390773 Z" id="Path"></path><path d="M5.14872157,1.59390773 C4.83398614,1.59390773 4.57854869,1.35588418 4.57854869,1.06260515 L4.57854869,0.531302577 C4.57854869,0.238023554 4.83398614,0 5.14872157,0 C5.46345699,0 5.71889444,0.238023554 5.71889444,0.531302577 L5.71889444,1.06260515 C5.71889444,1.35588418 5.46345699,1.59390773 5.14872157,1.59390773 Z" id="Path"></path></g></g></g></g></g></g></svg>