<svg xmlns="http://www.w3.org/2000/svg" xmlns:xlink="http://www.w3.org/1999/xlink" width="24px" height="24px" viewBox="0 0 24 24"><title>e-commerce-buy-apparel</title><g id="Page-1" stroke="none" stroke-width="1" fill="none" fill-rule="evenodd"><g id="Sala-Landing-Page" transform="translate(-347.000000, -11020.000000)" fill="#0057FC" fill-rule="nonzero"><g id="e-commerce-buy-apparel" transform="translate(347.000000, 11020.000000)"><path d="M2.5,20.5 C1.121,20.5 0,19.378 0,18 L0,2.5 C0,1.121 1.121,0 2.5,0 L21.5,0 C22.878,0 24,1.121 24,2.5 L24,13.5 C24,13.776 23.776,14 23.5,14 C23.224,14 23,13.776 23,13.5 L23,6 L1,6 L1,18 C1,18.827 1.673,19.5 2.5,19.5 L13,19.5 C13.276,19.5 13.5,19.724 13.5,20 C13.5,20.276 13.276,20.5 13,20.5 L2.5,20.5 Z M23,5 L23,2.5 C23,1.673 22.327,1 21.5,1 L2.5,1 C1.673,1 1,1.673 1,2.5 L1,5 L23,5 Z" id="Shape"></path><circle id="Oval" cx="4" cy="3" r="1"></circle><circle id="Oval" cx="7" cy="3" r="1"></circle><circle id="Oval" cx="10" cy="3" r="1"></circle><path d="M8.5,17 C8.224,17 8,16.776 8,16.5 L8,13 L6.5,13 C6.345,13 6.201,12.93 6.106,12.807 C6.012,12.687 5.978,12.526 6.015,12.378 L6.826,9.135 C6.994,8.467 7.592,8 8.281,8 L10.5,8 C10.776,8 11,8.224 11,8.5 C11,9.051 11.449,9.5 12,9.5 C12.552,9.5 13,9.051 13,8.5 C13,8.224 13.224,8 13.5,8 L15.719,8 C16.408,8 17.007,8.467 17.174,9.136 L17.985,12.379 C18.022,12.527 17.988,12.687 17.894,12.808 C17.799,12.93 17.655,13 17.5,13 L15.5,13 C15.224,13 15,12.776 15,12.5 C15,12.224 15.224,12 15.5,12 L16.859,12 L16.204,9.378 C16.148,9.156 15.949,9 15.719,9 L13.937,9 C13.712,9.869 12.915,10.5 12,10.5 C11.086,10.5 10.289,9.869 10.063,9 L8.281,9 C8.051,9 7.852,9.156 7.796,9.378 L7.14,12 L8.5,12 C8.776,12 9,12.224 9,12.5 L9,16 L12,16 C12.276,16 12.5,16.224 12.5,16.5 C12.5,16.776 12.276,17 12,17 L8.5,17 Z" id="Path"></path><path d="M23.5,24 C23.366,24 23.241,23.948 23.146,23.854 L19.168,19.876 L18.428,21.603 C18.325,21.845 18.134,22.034 17.89,22.134 C17.769,22.184 17.64,22.21 17.509,22.21 C17.377,22.21 17.248,22.184 17.125,22.133 C16.878,22.03 16.686,21.837 16.584,21.591 L13.994,15.301 C13.892,15.055 13.892,14.784 13.994,14.538 C14.149,14.163 14.512,13.92 14.92,13.92 C15.051,13.92 15.179,13.945 15.3,13.996 L21.589,16.586 C21.833,16.686 22.024,16.875 22.128,17.117 C22.233,17.362 22.236,17.634 22.136,17.882 C22.037,18.13 21.847,18.325 21.602,18.429 L19.875,19.169 L23.853,23.147 C24.048,23.342 24.048,23.659 23.853,23.854 C23.759,23.948 23.634,24 23.5,24 Z M14.919,14.919 L17.51,21.209 L18.539,18.807 C18.591,18.684 18.685,18.59 18.804,18.539 L21.21,17.508 L14.919,14.919 L14.919,14.669 C14.919,14.669 14.919,14.919 14.919,14.919 Z" id="Shape"></path></g></g></g></svg>