<svg xmlns="http://www.w3.org/2000/svg" width="36" height="36" viewBox="0 0 36 36"><g fill="#111" fill-rule="nonzero"><path d="M27.14 18a.703.703 0 1 1-1.406 0 .703.703 0 0 1 1.407 0zM20.11 13.781a.703.703 0 1 1-1.407 0 .703.703 0 0 1 1.406 0zM18.703 28.547a.703.703 0 1 1-1.406 0 .703.703 0 0 1 1.406 0zM8.156 15.89a.703.703 0 1 1-1.406 0 .703.703 0 0 1 1.406 0zM10.266 27.844a2.816 2.816 0 0 0 2.812-2.813 2.816 2.816 0 0 0-2.812-2.812 2.816 2.816 0 0 0-2.813 2.812 2.816 2.816 0 0 0 2.813 2.813zm0-4.219c.775 0 1.406.63 1.406 1.406 0 .776-.631 1.407-1.406 1.407-.776 0-1.407-.631-1.407-1.407 0-.775.631-1.406 1.407-1.406zM16.594 8.86a2.816 2.816 0 0 0-2.813-2.813 2.816 2.816 0 0 0-2.812 2.812 2.816 2.816 0 0 0 2.812 2.813 2.816 2.816 0 0 0 2.813-2.813zm-4.219 0c0-.776.63-1.407 1.406-1.407.776 0 1.406.631 1.406 1.406 0 .776-.63 1.407-1.406 1.407-.775 0-1.406-.631-1.406-1.407zM21.516 24.328a2.816 2.816 0 0 0 2.812 2.813 2.816 2.816 0 0 0 2.813-2.813 2.816 2.816 0 0 0-2.813-2.812 2.816 2.816 0 0 0-2.812 2.812zm4.218 0c0 .775-.63 1.406-1.406 1.406-.775 0-1.406-.63-1.406-1.406 0-.775.63-1.406 1.406-1.406.775 0 1.406.63 1.406 1.406zM16.594 21.516c1.163 0 2.11-.947 2.11-2.11 0-1.163-.947-2.11-2.11-2.11-1.163 0-2.11.947-2.11 2.11 0 1.163.947 2.11 2.11 2.11zm0-2.813a.704.704 0 1 1-.002 1.408.704.704 0 0 1 .002-1.408zM18.703 35.297a.703.703 0 1 1-1.406 0 .703.703 0 0 1 1.406 0z"></path><path d="M34.762 14.796c-.456.23-1.19.392-1.785.392-1.398 0-2.774-.808-3.348-1.964a.704.704 0 0 0-.831-.361c-.492.147-.907.215-1.306.215-2.52 0-4.57-2.05-4.57-4.57 0-.399.068-.814.215-1.306a.703.703 0 0 0-.361-.83c-1.156-.575-1.963-1.951-1.963-3.349 0-.594.16-1.329.391-1.785a.703.703 0 0 0-.52-1.013A17.387 17.387 0 0 0 18 0C8.298 0 0 8.283 0 18c0 8.439 6.326 16.04 14.716 17.681a.703.703 0 0 0 .27-1.38C7.244 32.787 1.406 25.779 1.406 18c0-8.995 7.6-16.594 16.594-16.594.513 0 1.04.031 1.616.095a6.026 6.026 0 0 0-.21 1.522c0 1.707.9 3.4 2.243 4.314-.09.41-.133.792-.133 1.17a5.984 5.984 0 0 0 5.976 5.977c.38 0 .76-.043 1.171-.133.914 1.343 2.607 2.243 4.314 2.243.49 0 1.029-.077 1.522-.21.064.576.095 1.103.095 1.616 0 7.779-5.838 14.787-13.58 16.301a.703.703 0 1 0 .27 1.38C29.674 34.04 36 26.44 36 18c0-.83-.072-1.682-.225-2.684a.703.703 0 0 0-1.013-.52z"></path></g></svg>