<svg xmlns="http://www.w3.org/2000/svg" width="60" height="60" viewBox="0 0 60 60"><g fill="#111" fill-rule="nonzero"><path d="M57.406 13.598 35.536 1.26c-2.976-1.68-8.092-1.681-11.074 0L2.592 13.598C.919 14.543 0 15.864 0 17.323c0 1.458.92 2.78 2.592 3.723l21.87 12.339c1.49.84 3.456 1.303 5.536 1.303 2.082 0 4.049-.464 5.538-1.303l21.87-12.34C59.08 20.103 60 18.782 60 17.324c0-1.459-.923-2.78-2.594-3.725zm-.996 5.686-21.87 12.34c-2.346 1.323-6.738 1.325-9.083 0l-21.87-12.34c-.993-.56-1.562-1.276-1.562-1.961 0-.688.569-1.402 1.562-1.964l21.87-12.34c1.172-.662 2.828-1.04 4.54-1.04 1.712 0 3.368.38 4.54 1.04l21.87 12.34c.994.56 1.564 1.276 1.564 1.964.002.685-.567 1.4-1.561 1.961z"></path><path d="M57.408 26.384a1.007 1.007 0 0 0-1.381.39 1.036 1.036 0 0 0 .385 1.4c.992.57 1.563 1.296 1.563 1.992s-.57 1.423-1.563 1.992l-21.87 12.53c-2.46 1.41-6.62 1.411-9.083 0l-21.87-12.53c-.993-.569-1.562-1.296-1.562-1.992s.569-1.423 1.561-1.992c.487-.279.66-.906.385-1.4a1.005 1.005 0 0 0-1.381-.39C.919 27.342 0 28.686 0 30.166s.919 2.825 2.592 3.783l21.87 12.529c1.552.888 3.545 1.334 5.536 1.334 1.993 0 3.986-.444 5.538-1.334l21.87-12.53C59.08 32.992 60 31.648 60 30.167c0-1.48-.92-2.824-2.592-3.782z"></path><path d="M57.406 38.573a1.007 1.007 0 0 0-1.381.39 1.036 1.036 0 0 0 .385 1.4c.992.57 1.563 1.296 1.563 1.992s-.57 1.423-1.563 1.994L34.54 56.877c-2.46 1.41-6.62 1.412-9.083 0l-21.87-12.53c-.993-.57-1.562-1.296-1.562-1.994 0-.696.569-1.423 1.562-1.992.487-.279.659-.906.384-1.4a1.006 1.006 0 0 0-1.381-.39C.92 39.531 0 40.873 0 42.355c0 1.482.919 2.824 2.592 3.782l21.87 12.529c1.552.888 3.545 1.334 5.536 1.334 1.993 0 3.986-.444 5.538-1.334l21.87-12.529C59.08 45.177 60 43.835 60 42.355s-.923-2.825-2.594-3.782z"></path></g></svg>