<svg xmlns="http://www.w3.org/2000/svg" xmlns:xlink="http://www.w3.org/1999/xlink" width="24px" height="24px" viewBox="0 0 24 24"><title>layout-array-1</title><g id="Page-1" stroke="none" stroke-width="1" fill="none" fill-rule="evenodd"><g id="Sala-Landing-Page" transform="translate(-203.000000, -10853.000000)" fill="#0057FC" fill-rule="nonzero"><g id="body" transform="translate(0.000000, 2904.000000)"><g id="blog-style" transform="translate(0.000000, 7620.000000)"><g id="1" transform="translate(135.000000, 208.091603)"><g id="layout-array-1" transform="translate(68.000000, 120.908397)"><path d="M1.5,19.6363636 C0.673,19.6363636 0,18.9021818 0,18 L0,6 C0,5.09781818 0.673,4.36363636 1.5,4.36363636 L3.5,4.36363636 C4.327,4.36363636 5,5.09781818 5,6 L5,18 C5,18.9021818 4.327,19.6363636 3.5,19.6363636 L1.5,19.6363636 Z M1.5,5.45454545 C1.224,5.45454545 1,5.69890909 1,6 L1,18 C1,18.3010909 1.224,18.5454545 1.5,18.5454545 L3.5,18.5454545 C3.776,18.5454545 4,18.3010909 4,18 L4,6 C4,5.69890909 3.776,5.45454545 3.5,5.45454545 L1.5,5.45454545 Z" id="Shape"></path><path d="M20.5,19.6363636 C19.673,19.6363636 19,18.9021818 19,18 L19,6 C19,5.09781818 19.673,4.36363636 20.5,4.36363636 L22.5,4.36363636 C23.327,4.36363636 24,5.09781818 24,6 L24,18 C24,18.9021818 23.327,19.6363636 22.5,19.6363636 L20.5,19.6363636 Z M20.5,5.45454545 C20.224,5.45454545 20,5.69890909 20,6 L20,18 C20,18.3010909 20.224,18.5454545 20.5,18.5454545 L22.5,18.5454545 C22.776,18.5454545 23,18.3010909 23,18 L23,6 C23,5.69890909 22.776,5.45454545 22.5,5.45454545 L20.5,5.45454545 Z" id="Shape"></path><path d="M7.5,24 C6.673,24 6,23.2658182 6,22.3636364 L6,1.63636364 C6,0.734181818 6.673,0 7.5,0 L16.5,0 C17.327,0 18,0.734181818 18,1.63636364 L18,22.3636364 C18,23.2658182 17.327,24 16.5,24 L7.5,24 Z M7.5,1.09090909 C7.224,1.09090909 7,1.33527273 7,1.63636364 L7,22.3636364 C7,22.6647273 7.224,22.9090909 7.5,22.9090909 L16.5,22.9090909 C16.776,22.9090909 17,22.6647273 17,22.3636364 L17,1.63636364 C17,1.33527273 16.776,1.09090909 16.5,1.09090909 L7.5,1.09090909 Z" id="Shape"></path></g></g></g></g></g></g></svg>