<svg xmlns="http://www.w3.org/2000/svg" xmlns:xlink="http://www.w3.org/1999/xlink" width="24px" height="24px" viewBox="0 0 24 24"><title>layout-module</title><g id="Page-1" stroke="none" stroke-width="1" fill="none" fill-rule="evenodd"><g id="Sala-Landing-Page" transform="translate(-304.000000, -10926.000000)" fill="#0057FC" fill-rule="nonzero"><g id="layout-module" transform="translate(304.000000, 10926.000000)"><path d="M9.91304348,7.30434783 C9.05008696,7.30434783 8.34782609,6.60208696 8.34782609,5.73913043 L8.34782609,1.56521739 C8.34782609,0.70226087 9.05008696,0 9.91304348,0 L14.0869565,0 C14.949913,0 15.6521739,0.70226087 15.6521739,1.56521739 L15.6521739,5.73913043 C15.6521739,6.60208696 14.949913,7.30434783 14.0869565,7.30434783 L9.91304348,7.30434783 Z M9.91304348,1.04347826 C9.62504348,1.04347826 9.39130435,1.27721739 9.39130435,1.56521739 L9.39130435,5.73913043 C9.39130435,6.02713043 9.62504348,6.26086957 9.91304348,6.26086957 L14.0869565,6.26086957 C14.3749565,6.26086957 14.6086957,6.02713043 14.6086957,5.73913043 L14.6086957,1.56521739 C14.6086957,1.27721739 14.3749565,1.04347826 14.0869565,1.04347826 L9.91304348,1.04347826 Z" id="Shape"></path><path d="M1.56521739,7.30434783 C0.70226087,7.30434783 0,6.60208696 0,5.73913043 L0,1.56521739 C0,0.70226087 0.70226087,0 1.56521739,0 L5.73913043,0 C6.60208696,0 7.30434783,0.70226087 7.30434783,1.56521739 L7.30434783,5.73913043 C7.30434783,6.60208696 6.60208696,7.30434783 5.73913043,7.30434783 L1.56521739,7.30434783 Z M1.56521739,1.04347826 C1.27721739,1.04347826 1.04347826,1.27721739 1.04347826,1.56521739 L1.04347826,5.73913043 C1.04347826,6.02713043 1.27721739,6.26086957 1.56521739,6.26086957 L5.73913043,6.26086957 C6.02713043,6.26086957 6.26086957,6.02713043 6.26086957,5.73913043 L6.26086957,1.56521739 C6.26086957,1.27721739 6.02713043,1.04347826 5.73913043,1.04347826 L1.56521739,1.04347826 Z" id="Shape"></path><path d="M18.2608696,7.30434783 C17.397913,7.30434783 16.6956522,6.60208696 16.6956522,5.73913043 L16.6956522,1.56521739 C16.6956522,0.70226087 17.397913,0 18.2608696,0 L22.4347826,0 C23.2977391,0 24,0.70226087 24,1.56521739 L24,5.73913043 C24,6.60208696 23.2977391,7.30434783 22.4347826,7.30434783 L18.2608696,7.30434783 Z M18.2608696,1.04347826 C17.9728696,1.04347826 17.7391304,1.27721739 17.7391304,1.56521739 L17.7391304,5.73913043 C17.7391304,6.02713043 17.9728696,6.26086957 18.2608696,6.26086957 L22.4347826,6.26086957 C22.7227826,6.26086957 22.9565217,6.02713043 22.9565217,5.73913043 L22.9565217,1.56521739 C22.9565217,1.27721739 22.7227826,1.04347826 22.4347826,1.04347826 L18.2608696,1.04347826 Z" id="Shape"></path><path d="M9.91304348,15.6521739 C9.05008696,15.6521739 8.34782609,14.949913 8.34782609,14.0869565 L8.34782609,9.91304348 C8.34782609,9.05008696 9.05008696,8.34782609 9.91304348,8.34782609 L14.0869565,8.34782609 C14.949913,8.34782609 15.6521739,9.05008696 15.6521739,9.91304348 L15.6521739,14.0869565 C15.6521739,14.949913 14.949913,15.6521739 14.0869565,15.6521739 L9.91304348,15.6521739 Z M9.91304348,9.39130435 C9.62504348,9.39130435 9.39130435,9.62504348 9.39130435,9.91304348 L9.39130435,14.0869565 C9.39130435,14.3749565 9.62504348,14.6086957 9.91304348,14.6086957 L14.0869565,14.6086957 C14.3749565,14.6086957 14.6086957,14.3749565 14.6086957,14.0869565 L14.6086957,9.91304348 C14.6086957,9.62504348 14.3749565,9.39130435 14.0869565,9.39130435 L9.91304348,9.39130435 Z" id="Shape"></path><path d="M1.56521739,15.6521739 C0.70226087,15.6521739 0,14.949913 0,14.0869565 L0,9.91304348 C0,9.05008696 0.70226087,8.34782609 1.56521739,8.34782609 L5.73913043,8.34782609 C6.60208696,8.34782609 7.30434783,9.05008696 7.30434783,9.91304348 L7.30434783,14.0869565 C7.30434783,14.949913 6.60208696,15.6521739 5.73913043,15.6521739 L1.56521739,15.6521739 Z M1.56521739,9.39130435 C1.27721739,9.39130435 1.04347826,9.62504348 1.04347826,9.91304348 L1.04347826,14.0869565 C1.04347826,14.3749565 1.27721739,14.6086957 1.56521739,14.6086957 L5.73913043,14.6086957 C6.02713043,14.6086957 6.26086957,14.3749565 6.26086957,14.0869565 L6.26086957,9.91304348 C6.26086957,9.62504348 6.02713043,9.39130435 5.73913043,9.39130435 L1.56521739,9.39130435 Z" id="Shape"></path><path d="M18.2608696,15.6521739 C17.397913,15.6521739 16.6956522,14.949913 16.6956522,14.0869565 L16.6956522,9.91304348 C16.6956522,9.05008696 17.397913,8.34782609 18.2608696,8.34782609 L22.4347826,8.34782609 C23.2977391,8.34782609 24,9.05008696 24,9.91304348 L24,14.0869565 C24,14.949913 23.2977391,15.6521739 22.4347826,15.6521739 L18.2608696,15.6521739 Z M18.2608696,9.39130435 C17.9728696,9.39130435 17.7391304,9.62504348 17.7391304,9.91304348 L17.7391304,14.0869565 C17.7391304,14.3749565 17.9728696,14.6086957 18.2608696,14.6086957 L22.4347826,14.6086957 C22.7227826,14.6086957 22.9565217,14.3749565 22.9565217,14.0869565 L22.9565217,9.91304348 C22.9565217,9.62504348 22.7227826,9.39130435 22.4347826,9.39130435 L18.2608696,9.39130435 Z" id="Shape"></path><path d="M9.91304348,24 C9.05008696,24 8.34782609,23.2977391 8.34782609,22.4347826 L8.34782609,18.2608696 C8.34782609,17.397913 9.05008696,16.6956522 9.91304348,16.6956522 L14.0869565,16.6956522 C14.949913,16.6956522 15.6521739,17.397913 15.6521739,18.2608696 L15.6521739,22.4347826 C15.6521739,23.2977391 14.949913,24 14.0869565,24 L9.91304348,24 Z M9.91304348,17.7391304 C9.62504348,17.7391304 9.39130435,17.9728696 9.39130435,18.2608696 L9.39130435,22.4347826 C9.39130435,22.7227826 9.62504348,22.9565217 9.91304348,22.9565217 L14.0869565,22.9565217 C14.3749565,22.9565217 14.6086957,22.7227826 14.6086957,22.4347826 L14.6086957,18.2608696 C14.6086957,17.9728696 14.3749565,17.7391304 14.0869565,17.7391304 L9.91304348,17.7391304 Z" id="Shape"></path><path d="M1.56521739,24 C0.70226087,24 0,23.2977391 0,22.4347826 L0,18.2608696 C0,17.397913 0.70226087,16.6956522 1.56521739,16.6956522 L5.73913043,16.6956522 C6.60208696,16.6956522 7.30434783,17.397913 7.30434783,18.2608696 L7.30434783,22.4347826 C7.30434783,23.2977391 6.60208696,24 5.73913043,24 L1.56521739,24 Z M1.56521739,17.7391304 C1.27721739,17.7391304 1.04347826,17.9728696 1.04347826,18.2608696 L1.04347826,22.4347826 C1.04347826,22.7227826 1.27721739,22.9565217 1.56521739,22.9565217 L5.73913043,22.9565217 C6.02713043,22.9565217 6.26086957,22.7227826 6.26086957,22.4347826 L6.26086957,18.2608696 C6.26086957,17.9728696 6.02713043,17.7391304 5.73913043,17.7391304 L1.56521739,17.7391304 Z" id="Shape"></path><path d="M18.2608696,24 C17.397913,24 16.6956522,23.2977391 16.6956522,22.4347826 L16.6956522,18.2608696 C16.6956522,17.397913 17.397913,16.6956522 18.2608696,16.6956522 L22.4347826,16.6956522 C23.2977391,16.6956522 24,17.397913 24,18.2608696 L24,22.4347826 C24,23.2977391 23.2977391,24 22.4347826,24 L18.2608696,24 Z M18.2608696,17.7391304 C17.9728696,17.7391304 17.7391304,17.9728696 17.7391304,18.2608696 L17.7391304,22.4347826 C17.7391304,22.7227826 17.9728696,22.9565217 18.2608696,22.9565217 L22.4347826,22.9565217 C22.7227826,22.9565217 22.9565217,22.7227826 22.9565217,22.4347826 L22.9565217,18.2608696 C22.9565217,17.9728696 22.7227826,17.7391304 22.4347826,17.7391304 L18.2608696,17.7391304 Z" id="Shape"></path></g></g></g></svg>