<svg xmlns="http://www.w3.org/2000/svg" xmlns:xlink="http://www.w3.org/1999/xlink" width="24px" height="24px" viewBox="0 0 24 24"><title>layout-array</title><g id="Page-1" stroke="none" stroke-width="1" fill="none" fill-rule="evenodd"><g id="Sala-Landing-Page" transform="translate(-260.000000, -10978.000000)" fill="#0057FC" fill-rule="nonzero"><g id="layout-array" transform="translate(260.000000, 10978.000000)"><path d="M1.5,24 C0.673,24 0,23.1924 0,22.2 L0,1.8 C0,0.8076 0.673,0 1.5,0 L3.5,0 C4.327,0 5,0.8076 5,1.8 L5,22.2 C5,23.1924 4.327,24 3.5,24 L1.5,24 Z M1.5,1.2 C1.224,1.2 1,1.4688 1,1.8 L1,22.2 C1,22.5312 1.224,22.8 1.5,22.8 L3.5,22.8 C3.776,22.8 4,22.5312 4,22.2 L4,1.8 C4,1.4688 3.776,1.2 3.5,1.2 L1.5,1.2 Z" id="Shape"></path><path d="M20.5,24 C19.673,24 19,23.1924 19,22.2 L19,1.8 C19,0.8076 19.673,0 20.5,0 L22.5,0 C23.327,0 24,0.8076 24,1.8 L24,22.2 C24,23.1924 23.327,24 22.5,24 L20.5,24 Z M20.5,1.2 C20.224,1.2 20,1.4688 20,1.8 L20,22.2 C20,22.5312 20.224,22.8 20.5,22.8 L22.5,22.8 C22.776,22.8 23,22.5312 23,22.2 L23,1.8 C23,1.4688 22.776,1.2 22.5,1.2 L20.5,1.2 Z" id="Shape"></path><path d="M7.5,24 C6.673,24 6,23.1924 6,22.2 L6,1.8 C6,0.8076 6.673,0 7.5,0 L16.5,0 C17.327,0 18,0.8076 18,1.8 L18,22.2 C18,23.1924 17.327,24 16.5,24 L7.5,24 Z M7.5,1.2 C7.224,1.2 7,1.4688 7,1.8 L7,22.2 C7,22.5312 7.224,22.8 7.5,22.8 L16.5,22.8 C16.776,22.8 17,22.5312 17,22.2 L17,1.8 C17,1.4688 16.776,1.2 16.5,1.2 L7.5,1.2 Z" id="Shape"></path></g></g></g></svg>