<svg xmlns="http://www.w3.org/2000/svg" xmlns:xlink="http://www.w3.org/1999/xlink" width="20px" height="24px" viewBox="0 0 20 24"><title>list-to-do</title><g id="Page-1" stroke="none" stroke-width="1" fill="none" fill-rule="evenodd"><g id="Sala-Landing-Page" transform="translate(-338.000000, -10979.000000)" fill="#0057FC" fill-rule="nonzero"><g id="list-to-do" transform="translate(338.000000, 10979.000000)"><path d="M1.5,24 C0.673,24 0,23.327 0,22.5 L0,1.5 C0,0.673 0.673,0 1.5,0 L14.793,0 C15.194,0 15.57,0.156 15.854,0.439 L19.561,4.146 C19.844,4.43 20,4.807 20,5.207 L20,22.5 C20,23.327 19.327,24 18.5,24 L1.5,24 Z M1.5,1 C1.224,1 1,1.224 1,1.5 L1,22.5 C1,22.776 1.224,23 1.5,23 L18.5,23 C18.776,23 19,22.776 19,22.5 L19,5.207 C19,5.074 18.948,4.948 18.854,4.853 L15.147,1.146 C15.053,1.053 14.925,1 14.793,1 L1.5,1 Z" id="Shape"></path><path d="M5.437,9.499 C5.17,9.499 4.918,9.395 4.73,9.206 L3.646,8.125 C3.451,7.93 3.451,7.613 3.646,7.418 C3.741,7.323 3.866,7.271 4,7.271 C4.134,7.271 4.259,7.323 4.353,7.417 L5.436,8.499 L7.593,5.48 C7.687,5.349 7.839,5.271 8,5.271 C8.105,5.271 8.205,5.303 8.29,5.364 C8.514,5.524 8.566,5.837 8.406,6.061 L6.25,9.082 C6.218,9.126 6.182,9.168 6.144,9.207 C5.955,9.395 5.704,9.499 5.437,9.499 Z" id="Path"></path><path d="M11.5,8 C11.224,8 11,7.776 11,7.5 C11,7.224 11.224,7 11.5,7 L15.5,7 C15.776,7 16,7.224 16,7.5 C16,7.776 15.776,8 15.5,8 L11.5,8 Z" id="Path"></path><path d="M5.437,14.5 C5.17,14.5 4.918,14.396 4.73,14.207 L3.647,13.125 C3.552,13.031 3.5,12.905 3.5,12.771 C3.5,12.637 3.552,12.512 3.646,12.417 C3.741,12.323 3.866,12.271 4,12.271 C4.134,12.271 4.259,12.323 4.354,12.417 L5.437,13.5 L7.593,10.481 C7.687,10.35 7.839,10.272 8,10.272 C8.105,10.272 8.205,10.304 8.29,10.365 C8.514,10.525 8.567,10.838 8.406,11.063 L6.249,14.083 C6.217,14.128 6.181,14.169 6.143,14.208 C5.955,14.396 5.704,14.5 5.437,14.5 Z" id="Path"></path><path d="M11.5,13 C11.224,13 11,12.776 11,12.5 C11,12.224 11.224,12 11.5,12 L15.5,12 C15.776,12 16,12.224 16,12.5 C16,12.776 15.776,13 15.5,13 L11.5,13 Z" id="Path"></path><path d="M5.437,19.5 C5.17,19.5 4.918,19.396 4.73,19.207 L3.647,18.125 C3.552,18.031 3.5,17.905 3.5,17.771 C3.5,17.637 3.552,17.512 3.646,17.417 C3.741,17.323 3.866,17.271 4,17.271 C4.134,17.271 4.259,17.323 4.354,17.417 L5.437,18.5 L7.593,15.481 C7.687,15.35 7.839,15.271 8,15.271 C8.105,15.271 8.205,15.303 8.291,15.365 C8.399,15.442 8.471,15.557 8.493,15.689 C8.515,15.821 8.484,15.953 8.407,16.062 L6.25,19.082 C6.218,19.127 6.182,19.168 6.144,19.207 C5.955,19.396 5.704,19.5 5.437,19.5 Z" id="Path"></path><path d="M11.5,18 C11.224,18 11,17.776 11,17.5 C11,17.224 11.224,17 11.5,17 L15.5,17 C15.776,17 16,17.224 16,17.5 C16,17.776 15.776,18 15.5,18 L11.5,18 Z" id="Path"></path></g></g></g></svg>