<svg xmlns="http://www.w3.org/2000/svg" xmlns:xlink="http://www.w3.org/1999/xlink" width="26px" height="24px" viewBox="0 0 26 24"><title>list-remove</title><g id="Page-1" stroke="none" stroke-width="1" fill="none" fill-rule="evenodd"><g id="Sala-Landing-Page" transform="translate(-136.000000, -10732.000000)" fill="#0057FC" fill-rule="nonzero"><g id="body" transform="translate(0.000000, 2904.000000)"><g id="blog-style" transform="translate(0.000000, 7620.000000)"><g id="1" transform="translate(135.000000, 208.000000)"><g id="list-remove" transform="translate(1.000000, 0.000000)"><path d="M4.875,1.09090909 C4.576,1.09090909 4.33333333,0.846545455 4.33333333,0.545454545 C4.33333333,0.244363636 4.576,-9.68921912e-16 4.875,-9.68921912e-16 L20.0416667,-9.68921912e-16 C20.3406667,-9.68921912e-16 20.5833333,0.244363636 20.5833333,0.545454545 C20.5833333,0.846545455 20.3406667,1.09090909 20.0416667,1.09090909 L4.875,1.09090909 Z" id="Path"></path><path d="M4.875,6.54545455 C4.576,6.54545455 4.33333333,6.30109091 4.33333333,6 C4.33333333,5.69890909 4.576,5.45454545 4.875,5.45454545 L20.0416667,5.45454545 C20.3406667,5.45454545 20.5833333,5.69890909 20.5833333,6 C20.5833333,6.30109091 20.3406667,6.54545455 20.0416667,6.54545455 L4.875,6.54545455 Z" id="Path"></path><path d="M4.875,12 C4.576,12 4.33333333,11.7556364 4.33333333,11.4545455 C4.33333333,11.1534545 4.576,10.9090909 4.875,10.9090909 L11.375,10.9090909 C11.674,10.9090909 11.9166667,11.1534545 11.9166667,11.4545455 C11.9166667,11.7556364 11.674,12 11.375,12 L4.875,12 Z" id="Path"></path><path d="M4.875,17.4545455 C4.576,17.4545455 4.33333333,17.2101818 4.33333333,16.9090909 C4.33333333,16.608 4.576,16.3636364 4.875,16.3636364 L11.375,16.3636364 C11.674,16.3636364 11.9166667,16.608 11.9166667,16.9090909 C11.9166667,17.2101818 11.674,17.4545455 11.375,17.4545455 L4.875,17.4545455 Z" id="Path"></path><path d="M20.0416667,24 C16.7559167,24 14.0833333,21.3087273 14.0833333,18 C14.0833333,14.6912727 16.7559167,12 20.0416667,12 C23.3274167,12 26,14.6912727 26,18 C26,21.3087273 23.3274167,24 20.0416667,24 Z M20.0416667,13.0909091 C17.3539167,13.0909091 15.1666667,15.2934545 15.1666667,18 C15.1666667,20.7065455 17.3539167,22.9090909 20.0416667,22.9090909 C22.7294167,22.9090909 24.9166667,20.7065455 24.9166667,18 C24.9166667,15.2934545 22.7294167,13.0909091 20.0416667,13.0909091 Z" id="Shape"></path><path d="M17.3333333,18.5454545 C17.0343333,18.5454545 16.7916667,18.3010909 16.7916667,18 C16.7916667,17.6989091 17.0343333,17.4545455 17.3333333,17.4545455 L22.75,17.4545455 C23.049,17.4545455 23.2916667,17.6989091 23.2916667,18 C23.2916667,18.3010909 23.049,18.5454545 22.75,18.5454545 L17.3333333,18.5454545 Z" id="Path"></path><path d="M0.541666667,1.09090909 C0.242666667,1.09090909 0,0.846545455 0,0.545454545 C0,0.244363636 0.242666667,-9.68921912e-16 0.541666667,-9.68921912e-16 L1.625,-9.68921912e-16 C1.924,-9.68921912e-16 2.16666667,0.244363636 2.16666667,0.545454545 C2.16666667,0.846545455 1.924,1.09090909 1.625,1.09090909 L0.541666667,1.09090909 Z" id="Path"></path><path d="M0.541666667,6.54545455 C0.242666667,6.54545455 0,6.30109091 0,6 C0,5.69890909 0.242666667,5.45454545 0.541666667,5.45454545 L1.625,5.45454545 C1.924,5.45454545 2.16666667,5.69890909 2.16666667,6 C2.16666667,6.30109091 1.924,6.54545455 1.625,6.54545455 L0.541666667,6.54545455 Z" id="Path"></path><path d="M0.541666667,12 C0.242666667,12 0,11.7556364 0,11.4545455 C0,11.1534545 0.242666667,10.9090909 0.541666667,10.9090909 L1.625,10.9090909 C1.924,10.9090909 2.16666667,11.1534545 2.16666667,11.4545455 C2.16666667,11.7556364 1.924,12 1.625,12 L0.541666667,12 Z" id="Path"></path><path d="M0.541666667,17.4545455 C0.242666667,17.4545455 0,17.2101818 0,16.9090909 C0,16.608 0.242666667,16.3636364 0.541666667,16.3636364 L1.625,16.3636364 C1.924,16.3636364 2.16666667,16.608 2.16666667,16.9090909 C2.16666667,17.2101818 1.924,17.4545455 1.625,17.4545455 L0.541666667,17.4545455 Z" id="Path"></path></g></g></g></g></g></g></svg>