<svg xmlns="http://www.w3.org/2000/svg" xmlns:xlink="http://www.w3.org/1999/xlink" width="24px" height="24px" viewBox="0 0 24 24"><title>maps-pin-1</title><g id="Page-1" stroke="none" stroke-width="1" fill="none" fill-rule="evenodd"><g id="Sala-Landing-Page" transform="translate(-149.000000, -10791.000000)" fill="#0057FC" fill-rule="nonzero"><g id="body" transform="translate(0.000000, 2904.000000)"><g id="blog-style" transform="translate(0.000000, 7620.000000)"><g id="1" transform="translate(135.000000, 208.091603)"><g id="maps-pin-1" transform="translate(14.000000, 58.908397)"><path d="M7.5,22.1503243 C7.29,22.1503243 7.089,22.0841918 6.918,21.9600661 L0.418,17.2361694 C0.156,17.0448938 0,16.7355971 0,16.4079868 L0,1.3796261 C0,1.10695663 0.105,0.851583365 0.294,0.660307771 C0.483,0.468014753 0.733,0.363220145 1,0.363220145 C1.211,0.363220145 1.412,0.429352664 1.582,0.553478316 L7.5,4.85412692 L13.918,0.191275595 C14.077,0.0752893298 14.264,0.0101742338 14.461,0.00305227013 C14.474,0.00101742338 14.487,0 14.499,0 C14.511,0 14.525,0.00101742338 14.538,0.00305227013 C14.729,0.00915681038 14.92,0.0742719064 15.081,0.191275595 L21.581,4.9141549 C21.844,5.1054305 22,5.4147272 22,5.74335495 L22,10.5679766 C22,10.8487855 21.776,11.0766883 21.5,11.0766883 C21.224,11.0766883 21,10.8487855 21,10.5679766 L21,5.74233753 L15,1.38166094 L15,10.5659418 C15,10.8467506 14.776,11.0746534 14.5,11.0746534 C14.224,11.0746534 14,10.8467506 14,10.5659418 L14,1.38166094 L8,5.74132011 L8,20.7696808 L13.209,16.9838484 C13.294,16.9217856 13.395,16.889228 13.499,16.889228 C13.66,16.889228 13.812,16.9685871 13.906,17.1018695 C13.983,17.2117512 14.014,17.3470685 13.992,17.4813684 C13.97,17.6156683 13.898,17.732672 13.789,17.812031 L8.082,21.9600661 C7.911,22.0841918 7.71,22.1503243 7.5,22.1503243 Z M1,16.4079868 L7,20.7686634 L7,5.74132011 L1,1.38064352 L1,16.4079868 Z" id="Shape"></path><path d="M19.499,24 C19.272,24 19.058,23.9236932 18.88,23.7802366 C18.821,23.7324177 18.766,23.6774768 18.718,23.6164314 C17.329,21.8298359 15,18.5537327 15,16.670482 C15,14.1462546 17.019,12.0920768 19.5,12.0920768 C21.981,12.0920768 24,14.1462546 24,16.670482 C24,18.5537327 21.672,21.8288185 20.284,23.6133791 C20.118,23.8260206 19.881,23.9613379 19.616,23.992878 C19.576,23.9979652 19.537,24 19.499,24 Z M19.5,13.1095002 C17.57,13.1095002 16,14.7068549 16,16.670482 C16,18.004324 17.808,20.806308 19.5,22.9825766 C21.192,20.806308 23,18.0053415 23,16.670482 C23,14.7068549 21.43,13.1095002 19.5,13.1095002 Z" id="Shape"></path><path d="M19.5,18.7053288 C18.397,18.7053288 17.5,17.7927 17.5,16.670482 C17.5,15.548264 18.397,14.6356353 19.5,14.6356353 C20.603,14.6356353 21.5,15.548264 21.5,16.670482 C21.5,17.7927 20.603,18.7053288 19.5,18.7053288 Z M19.5,15.6530586 C18.948,15.6530586 18.5,16.1088643 18.5,16.670482 C18.5,17.2320997 18.948,17.6879054 19.5,17.6879054 C20.052,17.6879054 20.5,17.2320997 20.5,16.670482 C20.5,16.1088643 20.052,15.6530586 19.5,15.6530586 Z" id="Shape"></path></g></g></g></g></g></g></svg>