<svg xmlns="http://www.w3.org/2000/svg" width="36" height="36" viewBox="0 0 36 36"><g fill="#111" fill-rule="nonzero"><path d="M35.4 0H.6a.6.6 0 0 0-.6.6v34.8a.6.6 0 0 0 .6.6h34.8a.6.6 0 0 0 .6-.6V.6a.6.6 0 0 0-.6-.6zM1.2 1.2h33.6v3.6H1.2V1.2zm33.6 33.6H1.2V6h33.6v28.8z"></path><path d="M2.4 2.4h1.2v1.2H2.4V2.4zm2.4 0H6v1.2H4.8V2.4zm2.4 0h1.2v1.2H7.2V2.4zM4.2 25.8a.6.6 0 0 0 0 1.2h6.6v4.8a.6.6 0 0 0 1.2 0V27h12v4.8a.6.6 0 0 0 1.2 0V27h6.6a.6.6 0 0 0 0-1.2h-6.6V15h6.6a.6.6 0 0 0 0-1.2h-6.6V9A.6.6 0 0 0 24 9v4.8H12V9a.6.6 0 0 0-1.2 0v4.8H4.2a.6.6 0 0 0 0 1.2h6.6v10.8H4.2zM12 15h12v10.8H12V15z"></path></g></svg>