<svg xmlns="http://www.w3.org/2000/svg" xmlns:xlink="http://www.w3.org/1999/xlink" width="24px" height="24px" viewBox="0 0 24 24"><title>messages-people-woman-bubble-circle</title><g id="Page-1" stroke="none" stroke-width="1" fill="none" fill-rule="evenodd"><g id="Sala-Landing-Page" transform="translate(-154.000000, -10752.000000)" fill="#0057FC" fill-rule="nonzero"><g id="body" transform="translate(0.000000, 2904.000000)"><g id="blog-style" transform="translate(0.000000, 7620.000000)"><g id="1" transform="translate(135.000000, 208.091603)"><g id="messages-people-woman-bubble-circle" transform="translate(19.000000, 19.908397)"><path d="M16.499484,16.0019995 C16.441484,16.0019995 16.384484,15.992002 16.329484,15.972007 C16.131484,15.900025 15.999484,15.7110722 15.999484,15.5021245 L15.999484,12.8547863 C15.782484,12.8107973 15.566484,12.7568108 15.355484,12.6928268 C15.091484,12.6138465 14.941484,12.3349163 15.020484,12.0709823 C15.084484,11.8580355 15.276484,11.7140715 15.499484,11.7140715 C15.548484,11.7140715 15.596484,11.7210697 15.643484,11.7350662 C15.946484,11.8260435 16.258484,11.8940265 16.570484,11.9380155 C16.815484,11.972007 17.000484,12.1849538 17.000484,12.4328918 L17.000484,14.1294676 C17.803484,13.1797051 18.839484,11.9710072 19.161484,11.6740815 C19.211484,11.628093 19.269484,11.5931017 19.332484,11.5711072 C21.478484,10.8092977 22.951484,8.7688078 23.000484,6.49337666 C22.871484,3.42014496 20.341484,1.00074981 17.241484,1.00074981 C17.168484,1.00074981 17.094484,1.00174956 17.019484,1.00474881 C16.955484,1.00374906 16.905484,1.00274931 16.856484,1.00274931 C14.283484,1.00274931 11.950484,2.70932267 11.182484,5.15371157 C11.116484,5.36265934 10.925484,5.50362409 10.705484,5.50362409 C10.654484,5.50362409 10.603484,5.49562609 10.555484,5.48062984 C10.292484,5.39765059 10.146484,5.11672082 10.228484,4.85378655 C11.126484,1.99750062 13.846484,0.00299925019 16.841484,0.00299925019 C16.898484,0.00299925019 16.955484,0.00399900025 17.013484,0.00499875031 C17.084484,0.00199950012 17.171484,0 17.259484,0 C20.888484,0 23.849484,2.84728818 24.000484,6.48237941 C23.944484,9.15171207 22.247484,11.5461135 19.772484,12.4738815 C19.165484,13.0867283 16.907484,15.7930517 16.885484,15.820045 C16.788484,15.936016 16.648484,16.0019995 16.499484,16.0019995 Z" id="Path"></path><path d="M0.499484004,24 C0.364484004,24 0.232484004,23.944014 0.138484004,23.8460385 C0.0444840039,23.748063 -0.00551599614,23.6140965 0.000484003861,23.4781305 C0.0454840039,22.4043989 0.312484004,21.3716571 0.791484004,20.4088978 C1.392484,19.2071982 2.958484,18.4483879 5.826484,17.3866533 C5.928484,17.3506623 5.997484,17.2566858 6.000484,17.1517121 L6.000484,17.0067483 C5.946484,17.0077481 5.893484,17.0087478 5.839484,17.0087478 C4.502484,17.0087478 3.233484,16.5828543 2.171484,15.7770557 C2.056484,15.6900775 1.984484,15.5571107 1.974484,15.4131467 C1.964484,15.2691827 2.017484,15.1272182 2.119484,15.0252437 L2.151484,14.9932517 C2.712484,14.4313922 3.051484,14.0924769 3.201484,11.8830292 C3.319484,10.1044739 3.968484,8.66383404 5.076484,7.71807048 C5.992484,6.93526618 7.208484,6.50437391 8.499484,6.50437391 C9.790484,6.50437391 11.006484,6.93526618 11.923484,7.71807048 C13.032484,8.66483379 13.681484,10.1054736 13.802484,11.8860285 C13.953484,14.0984754 14.292484,14.4373907 14.854484,14.9982504 L14.884484,15.0282429 C14.986484,15.1302174 15.039484,15.2711822 15.030484,15.4151462 C15.020484,15.5591102 14.949484,15.692077 14.834484,15.7790552 C13.769484,16.587853 12.502484,17.0157461 11.170484,17.0157461 C11.113484,17.0157461 11.057484,17.0147463 11.000484,17.0127468 L11.000484,17.1627093 C11.002484,17.2566858 11.072484,17.3506623 11.168484,17.3846538 C11.170484,17.3856536 11.172484,17.3856536 11.174484,17.3866533 C14.041484,18.4483879 15.607484,19.2071982 16.208484,20.407898 C16.688484,21.3706573 16.954484,22.4033992 16.999484,23.4781305 C17.005484,23.6130967 16.954484,23.7470632 16.861484,23.8450387 C16.766484,23.944014 16.635484,24 16.499484,24 L0.499484004,24 Z M15.957484,23.0002499 C15.867484,22.2544364 15.650484,21.5346163 15.312484,20.8557861 C14.866484,19.964009 13.330484,19.252187 10.826484,18.3254186 C10.344484,18.1524619 10.011484,17.6895776 9.999484,17.1757061 L9.999484,15.8140465 C10.010484,15.4541365 10.167484,15.1212197 10.428484,14.8932767 C10.825484,14.5573607 11.038484,14.0514871 11.000484,13.5396151 L11.000484,11.908023 C10.052484,11.6700825 9.196484,11.1892027 8.500484,10.5053737 C7.804484,11.1892027 6.948484,11.6700825 6.000484,11.908023 L6.000484,13.5026243 C5.962484,14.0444889 6.173484,14.5553612 6.566484,14.8872782 C6.832484,15.1212197 6.989484,15.452137 7.000484,15.7980505 L7.000484,17.1637091 C6.988484,17.6885779 6.654484,18.1534616 6.169484,18.3274181 C3.669484,19.2531867 2.133484,19.964009 1.687484,20.8567858 C1.348484,21.5336166 1.132484,22.2534366 1.041484,23.0002499 L15.957484,23.0002499 Z M10.999484,16.0099975 C11.058484,16.011997 11.116484,16.0129968 11.175484,16.0129968 C12.093484,16.0129968 12.981484,15.7670582 13.762484,15.300175 C13.301484,14.7593102 12.945484,14.0174956 12.805484,11.9540115 C12.659484,9.80254936 11.452484,7.50412397 8.499484,7.50412397 C5.546484,7.50412397 4.341484,9.80054986 4.198484,11.9500125 C4.058484,14.0124969 3.703484,14.7533117 3.241484,15.296176 C4.024484,15.764059 4.917484,16.0109973 5.840484,16.0109973 C5.893484,16.0109973 5.946484,16.0099975 5.999484,16.0089978 L5.999484,15.8150462 C5.997484,15.7590602 5.964484,15.6910772 5.912484,15.6460885 C5.282484,15.1132217 4.939484,14.2974256 5.000484,13.4676331 L4.999484,11.5031242 C4.999484,11.2591852 5.174484,11.0512372 5.414484,11.0102474 C6.471484,10.8292927 7.430484,10.2744314 8.113484,9.44763809 C8.206484,9.33566608 8.346484,9.27068233 8.498484,9.27068233 C8.650484,9.27068233 8.790484,9.33466633 8.883484,9.44763809 C9.566484,10.2734316 10.525484,10.8282929 11.582484,11.0092477 C11.823484,11.0512372 11.998484,11.2581855 11.998484,11.5021245 L11.998484,13.5016246 C12.058484,14.3014246 11.714484,15.1112222 11.079484,15.6490877 C11.031484,15.6910772 11.000484,15.7590602 10.997484,15.8290427 L10.997484,16.0099975 L10.999484,16.0099975 Z" id="Shape"></path><path d="M14.249484,7.2451887 C14.049484,7.2451887 13.860484,7.16820795 13.719484,7.02824294 C13.577484,6.88727818 13.498484,6.69932517 13.498484,6.49937516 C13.498484,6.08347913 13.834484,5.74556361 14.248484,5.74556361 C14.662484,5.74556361 14.998484,6.08147963 14.998484,6.49537616 C14.999484,6.90627343 14.665484,7.2431892 14.252484,7.2451887 C14.252484,7.2451887 14.251484,7.2451887 14.251484,7.2451887 L14.249484,7.2451887 Z" id="Path"></path><path d="M17.001484,7.2451887 C16.801484,7.2451887 16.612484,7.16820795 16.471484,7.02824294 C16.329484,6.88727818 16.250484,6.69932517 16.250484,6.49937516 C16.250484,6.09747563 16.563484,5.76855786 16.964484,5.74856286 C16.976484,5.74656336 16.988484,5.74556361 17.000484,5.74556361 C17.021484,5.74556361 17.041484,5.74756311 17.062484,5.75056236 C17.063484,5.75056236 17.077484,5.75156211 17.082484,5.75256186 C17.464484,5.79455136 17.7514862,6.11147213 17.7514862,6.49537616 C17.752484,6.90627343 17.418484,7.2431892 17.005484,7.2451887 C17.005484,7.2451887 17.004484,7.2451887 17.004484,7.2451887 L17.001484,7.2451887 Z" id="Path"></path><path d="M19.749484,7.2451887 C19.549484,7.2451887 19.360484,7.16820795 19.219484,7.02824294 C19.077484,6.88727818 18.9984744,6.69932517 18.9984744,6.49937516 C18.997484,6.29842539 19.074484,6.10947263 19.215484,5.96750812 C19.356484,5.82554361 19.543484,5.74656336 19.744484,5.74556361 C20.161484,5.74556361 20.4984862,6.08147963 20.4984862,6.49537616 C20.499484,6.90627343 20.165484,7.2431892 19.752484,7.2451887 C19.752484,7.2451887 19.751484,7.2451887 19.751484,7.2451887 L19.749484,7.2451887 Z" id="Path"></path></g></g></g></g></g></g></svg>