<svg xmlns="http://www.w3.org/2000/svg" xmlns:xlink="http://www.w3.org/1999/xlink" width="30px" height="24px" viewBox="0 0 30 24"><title>multiple-man-woman-2</title><g id="Page-1" stroke="none" stroke-width="1" fill="none" fill-rule="evenodd"><g id="Sala-Landing-Page" transform="translate(-265.000000, -11044.000000)" fill="#0057FC" fill-rule="nonzero"><g id="multiple-man-woman-2" transform="translate(265.000000, 11044.000000)"><path d="M20.63375,12.7909406 C19.68375,12.7909406 18.73,12.5429058 17.87625,12.0719037 C17.57125,11.903029 17.4525,11.5045902 17.61125,11.1826728 C17.72,10.9636634 17.9325,10.827772 18.165,10.827772 C18.265,10.827772 18.365,10.8541586 18.45375,10.902974 C19.12875,11.2750261 19.8825,11.4716068 20.6325,11.4716068 C22,11.4716068 23.29875,10.8330493 24.19375,9.72085097 C24.88,8.86856138 25.26625,7.80781705 25.30125,6.69693805 C24.3775,7.01621681 23.43375,7.17717553 22.48875,7.17717553 L22.39125,7.17717553 C20.51,7.17717553 18.6975,6.59403001 17.1425,5.49238634 C16.85625,5.28920895 16.78,4.87889616 16.9725,4.57676873 C17.08875,4.39338134 17.2825,4.28387664 17.49125,4.28387664 C17.61625,4.28387664 17.73625,4.32345665 17.84,4.39602001 C19.1875,5.35121764 20.75875,5.85652246 22.38375,5.85652246 C22.38875,5.85652246 22.4125,5.85652246 22.4175,5.85652246 C23.35125,5.85652246 24.28125,5.68368974 25.17375,5.34330163 C24.9425,4.32741466 24.42,3.43422572 23.655,2.74817217 C22.81,1.99087461 21.73375,1.57396515 20.62375,1.57396515 C19.2425,1.57396515 17.94,2.20856467 17.04875,3.31548568 C16.9325,3.46193172 16.75875,3.54768842 16.575,3.54768842 L16.575,3.54768842 C16.4275,3.54768842 16.28375,3.4922764 16.17125,3.3906877 C16.04375,3.27590567 15.96625,3.11626629 15.9525,2.9407949 C15.93875,2.76532351 15.99125,2.59381013 16.09875,2.45923808 C17.2275,1.05810566 18.8775,0.253312077 20.6275,0.253312077 C22.03375,0.253312077 23.39625,0.782364906 24.46625,1.74152053 C25.555,2.7178275 26.2725,4.07937991 26.48625,5.57550437 C26.5025,5.63751306 26.51125,5.69952174 26.51,5.76284976 L26.51875,5.83013578 C26.5275,5.8895058 26.535,5.94755648 26.54,6.00824584 C26.66875,7.67720301 26.17375,9.29866417 25.14625,10.5731406 C24.0125,11.9835083 22.3675,12.7909406 20.63375,12.7909406 Z" id="Path"></path><path d="M21.25,23.9973613 C20.905,23.9973613 20.625,23.7018306 20.625,23.3376945 C20.625,22.9735584 20.905,22.6780276 21.25,22.6780276 L28.725,22.6780276 C28.68125,22.0764114 28.57625,21.4800726 28.4125,20.8995657 C27.795,18.7015557 26.4025,16.8901105 24.4925,15.7977022 C23.3025,15.116926 21.96625,14.7567478 20.63,14.7567478 C19.84625,14.7567478 19.06375,14.8781265 18.3025,15.116926 C18.2425,15.1353966 18.18375,15.1433126 18.12375,15.1433126 C17.845,15.1433126 17.605,14.9546479 17.525,14.6723105 C17.4775,14.5021164 17.495,14.3240064 17.575,14.1696443 C17.655,14.0139629 17.78625,13.9018196 17.94625,13.8516849 C18.82375,13.5772635 19.72625,13.4374141 20.63,13.4374141 C22.1725,13.4374141 23.715,13.8516849 25.0875,14.6380078 C27.29,15.8979715 28.8975,17.9877962 29.61125,20.5235556 C29.86875,21.4378539 30,22.3838162 30,23.3376945 C30,23.5118465 29.93375,23.6820406 29.8175,23.8047386 C29.7,23.928756 29.5425,23.9973613 29.375,23.9973613 L21.25,23.9973613 Z" id="Path"></path><path d="M0.625,24 C0.28,24 0,23.7044692 0,23.3403331 C0,17.8848881 4.20625,13.4453301 9.375,13.4453301 C14.54375,13.4453301 18.75,17.8848881 18.75,23.3403331 C18.75,23.7044692 18.47,24 18.125,24 L0.625,24 Z M17.47625,22.6806663 C17.1575,18.2147216 13.65875,14.7646638 9.375,14.7646638 C5.09125,14.7646638 1.5925,18.2147216 1.27375,22.6806663 L17.47625,22.6806663 Z" id="Shape"></path><path d="M9.3775,12.9162773 C9.295,12.9162773 9.2125,12.9149579 9.12875,12.9096806 C7.10125,12.8120499 5.37875,11.5560442 4.5475,9.72876697 C4.395,10.7354186 4.05625,11.7104062 3.54375,12.5983178 C3.43,12.7962179 3.23,12.9149579 3.01,12.9149579 C3.01,12.9149579 3.01,12.9149579 3.01,12.9149579 C2.89625,12.9149579 2.78375,12.8819746 2.685,12.8186466 C2.39,12.6299819 2.29625,12.2223077 2.47625,11.9122643 C3.11375,10.807982 3.4275,9.54142158 3.385,8.24847452 L3.385,7.60727832 C3.38125,7.58880765 3.375,7.55582431 3.375,7.51492496 C3.375,7.47666428 3.38,7.44500027 3.385,7.4225716 L3.385,6.57819801 C3.37875,6.4251553 3.37875,6.24044857 3.385,6.06101919 C3.525,2.66241548 6.155,1.17180375e-15 9.37375,1.17180375e-15 C9.46125,1.17180375e-15 9.55,0.00131933374 9.63875,0.00659666868 C11.24,0.0791600242 12.7175,0.806112913 13.80125,2.05288329 C14.885,3.29965367 15.4425,4.91715684 15.37375,6.60590402 L15.37375,8.22604585 C15.33125,9.53746358 15.645,10.807982 16.2825,11.9122643 C16.4625,12.2236271 16.36875,12.6299819 16.07375,12.8186466 C15.975,12.8819746 15.8625,12.9149579 15.74875,12.9149579 C15.52875,12.9149579 15.32875,12.7962179 15.215,12.5983178 C14.69875,11.7038096 14.36,10.7209059 14.20875,9.69974163 C13.34375,11.6193722 11.495,12.9162773 9.3775,12.9162773 Z M5.33375,8.04925513 C5.67625,10.0282557 7.25125,11.4979935 9.18625,11.5929855 C9.2525,11.5969435 9.3175,11.5982629 9.38375,11.5982629 C11.375,11.5982629 13.05875,10.0929031 13.415,8.04925513 C11.895,7.76559837 10.48125,7.00566214 9.375,5.87499313 C8.26875,7.00566214 6.85375,7.76691771 5.33375,8.04925513 Z M9.375,4.26144797 C9.56,4.26144797 9.7325,4.34324666 9.8475,4.48441537 C10.93375,5.81034578 12.4775,6.65076137 14.125,6.82095542 L14.125,6.57819801 C14.18,5.21664559 13.7375,3.93161453 12.88,2.9447529 C12.0225,1.95789126 10.8525,1.38266176 9.585,1.32461107 C9.51625,1.3219724 9.4475,1.31933374 9.37875,1.31933374 C6.82875,1.31933374 4.745,3.42630971 4.635,6.1164312 C4.62875,6.26023858 4.62875,6.40536529 4.635,6.54917267 L4.635,6.81963608 C6.27875,6.6481227 7.81875,5.80770711 8.9025,4.48441537 C9.0175,4.34324666 9.19,4.26144797 9.375,4.26144797 Z" id="Shape"></path></g></g></g></svg>