<svg xmlns="http://www.w3.org/2000/svg" xmlns:xlink="http://www.w3.org/1999/xlink" width="20px" height="24px" viewBox="0 0 20 24"><title>multiple-neutral-2</title><g id="Page-1" stroke="none" stroke-width="1" fill="none" fill-rule="evenodd"><g id="Sala-Landing-Page" transform="translate(-230.000000, -10765.000000)" fill="#0057FC" fill-rule="nonzero"><g id="body" transform="translate(0.000000, 2904.000000)"><g id="blog-style" transform="translate(0.000000, 7620.000000)"><g id="1" transform="translate(135.000000, 208.091603)"><g id="multiple-neutral-2" transform="translate(95.000000, 32.908397)"><path d="M12.5,24 C12.242,24 12.023,23.799 12.002,23.542 L11.659,19.427 C11.648,19.294 11.689,19.165 11.775,19.062 C11.861,18.96 11.982,18.898 12.115,18.887 C12.127,18.886 12.144,18.885 12.162,18.885 C12.417,18.885 12.634,19.087 12.655,19.344 L12.96,23 L16.04,23 L16.502,17.458 C16.523,17.201 16.742,17 17,17 L19,17 L19,14 C19,11.519 16.981,9.5 14.5,9.5 C13.533,9.5 12.574,9.82 11.8,10.4 C11.713,10.465 11.609,10.5 11.5,10.5 C11.343,10.5 11.194,10.425 11.1,10.3 C11.02,10.193 10.986,10.062 11.005,9.929 C11.024,9.797 11.093,9.68 11.2,9.6 C12.146,8.891 13.317,8.5 14.5,8.5 C17.533,8.5 20,10.967 20,14 L20,17.5 C20,17.776 19.776,18 19.5,18 L17.46,18 L16.998,23.542 C16.977,23.799 16.758,24 16.5,24 L12.5,24 Z" id="Path"></path><path d="M14.5,8 C12.294,8 10.5,6.206 10.5,4 C10.5,1.794 12.294,0 14.5,0 C16.706,0 18.5,1.794 18.5,4 C18.5,6.206 16.706,8 14.5,8 Z M14.5,1 C12.846,1 11.5,2.346 11.5,4 C11.5,5.654 12.846,7 14.5,7 C16.154,7 17.5,5.654 17.5,4 C17.5,2.346 16.154,1 14.5,1 Z" id="Shape"></path><path d="M3.5,24 C3.242,24 3.023,23.799 3.002,23.542 L2.54,18 L0.5,18 C0.224,18 0,17.776 0,17.5 L0,14 C0,10.967 2.467,8.5 5.5,8.5 C8.533,8.5 11,10.967 11,14 L11,17.5 C11,17.776 10.776,18 10.5,18 L8.46,18 L7.998,23.542 C7.977,23.799 7.758,24 7.5,24 L3.5,24 Z M7.04,23 L7.502,17.458 C7.523,17.201 7.742,17 8,17 L10,17 L10,14 C10,11.519 7.981,9.5 5.5,9.5 C3.019,9.5 1,11.519 1,14 L1,17 L3,17 C3.258,17 3.477,17.201 3.498,17.458 L3.96,23 L7.04,23 Z" id="Shape"></path><path d="M5.5,8 C3.294,8 1.5,6.206 1.5,4 C1.5,1.794 3.294,0 5.5,0 C7.706,0 9.5,1.794 9.5,4 C9.5,6.206 7.706,8 5.5,8 Z M5.5,1 C3.846,1 2.5,2.346 2.5,4 C2.5,5.654 3.846,7 5.5,7 C7.154,7 8.5,5.654 8.5,4 C8.5,2.346 7.154,1 5.5,1 Z" id="Shape"></path></g></g></g></g></g></g></svg>