<svg xmlns="http://www.w3.org/2000/svg" width="28" height="28" viewBox="0 0 28 28"><g fill="#000" fill-rule="nonzero"><path d="M24.111 0H3.89A3.894 3.894 0 0 0 0 3.889V24.11A3.893 3.893 0 0 0 3.889 28h10.889a.778.778 0 0 0 0-1.556H3.888a2.336 2.336 0 0 1-2.332-2.333V3.89a2.336 2.336 0 0 1 2.333-2.333h5.444v8.555c0 .43.349.778.778.778h7.778c.43 0 .778-.348.778-.778V1.556h5.444a2.336 2.336 0 0 1 2.333 2.333v12.444a.778.778 0 0 0 1.556 0V3.89A3.894 3.894 0 0 0 24.111 0zm-7 9.333H10.89V1.556h6.222v7.777z"></path><path d="M28 24.111c0 .43-.348.778-.778.778h-5.9l1.006 1.006a.778.778 0 1 1-1.1 1.1l-2.333-2.333a.78.78 0 0 1 0-1.102l2.333-2.332a.778.778 0 0 1 1.1 1.1l-1.006 1.005h5.9c.43 0 .778.349.778.778z"></path></g></svg>