<svg xmlns="http://www.w3.org/2000/svg" width="30" height="20" viewBox="0 0 30 20"><g stroke="#000" fill="none" fill-rule="evenodd" stroke-linecap="round" stroke-linejoin="round"><path d="M28.885 4.375v10.35M1.115 14.725V4.375M6.475 1c-3.262.782-5.36 2.003-5.36 3.375 0 1.372 2.098 2.593 5.36 3.372a40.721 40.721 0 0 0 17.051 0c3.262-.78 5.36-2 5.36-3.372 0-1.372-2.098-2.593-5.36-3.375M1.115 14.725c0 2.36 6.206 4.275 13.86 4.275 7.653 0 13.91-1.915 13.91-4.275M6.465 7.747V1M23.484 7.747V1"></path><path d="M16.455 10.978c4.831.203 8.537 1.382 8.537 2.806 0 1.566-4.485 2.836-10.018 2.836S4.955 15.35 4.955 13.784c0-1.541 4.338-2.795 9.745-2.836"></path><path d="m13.527 9.85 1.174 1.098-1.174 1.098"></path></g></svg>