<svg xmlns="http://www.w3.org/2000/svg" xmlns:xlink="http://www.w3.org/1999/xlink" width="24px" height="24px" viewBox="0 0 24 24"><title>picture-sun</title><g id="Page-1" stroke="none" stroke-width="1" fill="none" fill-rule="evenodd"><g id="Sala-Landing-Page" transform="translate(-270.000000, -10844.000000)" fill="#0057FC" fill-rule="nonzero"><g id="body" transform="translate(0.000000, 2904.000000)"><g id="blog-style" transform="translate(0.000000, 7620.000000)"><g id="1" transform="translate(135.000000, 208.000000)"><g id="picture-sun" transform="translate(135.000000, 112.000000)"><path d="M16.5,10.5 C14.846,10.5 13.5,9.154 13.5,7.5 C13.5,5.846 14.846,4.5 16.5,4.5 C18.154,4.5 19.5,5.846 19.5,7.5 C19.5,9.154 18.154,10.5 16.5,10.5 Z M16.5,5.5 C15.397,5.5 14.5,6.397 14.5,7.5 C14.5,8.603 15.397,9.5 16.5,9.5 C17.603,9.5 18.5,8.603 18.5,7.5 C18.5,6.397 17.603,5.5 16.5,5.5 Z" id="Shape"></path><path d="M16.5,3.5 C16.224,3.5 16,3.276 16,3 L16,2.5 C16,2.224 16.224,2 16.5,2 C16.776,2 17,2.224 17,2.5 L17,3 C17,3.276 16.776,3.5 16.5,3.5 Z" id="Path"></path><path d="M13.318,4.818 C13.184,4.818 13.059,4.766 12.964,4.672 L12.61,4.318 C12.415,4.123 12.415,3.806 12.61,3.611 C12.704,3.517 12.83,3.465 12.964,3.465 C13.098,3.465 13.223,3.517 13.318,3.611 L13.672,3.965 C13.867,4.16 13.867,4.477 13.672,4.672 C13.577,4.766 13.452,4.818 13.318,4.818 Z" id="Path"></path><path d="M11.5,8 C11.224,8 11,7.776 11,7.5 C11,7.224 11.224,7 11.5,7 L12,7 C12.276,7 12.5,7.224 12.5,7.5 C12.5,7.776 12.276,8 12,8 L11.5,8 Z" id="Path"></path><path d="M12.964,11.536 C12.83,11.536 12.705,11.484 12.61,11.39 C12.415,11.195 12.415,10.878 12.61,10.683 L12.964,10.329 C13.058,10.235 13.184,10.183 13.318,10.183 C13.452,10.183 13.577,10.235 13.672,10.329 C13.867,10.524 13.867,10.841 13.672,11.036 L13.318,11.39 C13.223,11.484 13.098,11.536 12.964,11.536 Z" id="Path"></path><path d="M16.5,13 C16.224,13 16,12.776 16,12.5 L16,12 C16,11.724 16.224,11.5 16.5,11.5 C16.776,11.5 17,11.724 17,12 L17,12.5 C17,12.776 16.776,13 16.5,13 Z" id="Path"></path><path d="M20.036,11.536 C19.902,11.536 19.777,11.484 19.682,11.39 L19.328,11.036 C19.133,10.841 19.133,10.524 19.328,10.329 C19.422,10.235 19.548,10.183 19.682,10.183 C19.816,10.183 19.941,10.235 20.036,10.329 L20.39,10.683 C20.585,10.878 20.585,11.195 20.39,11.39 C20.295,11.484 20.169,11.536 20.036,11.536 Z" id="Path"></path><path d="M21,8 C20.724,8 20.5,7.776 20.5,7.5 C20.5,7.224 20.724,7 21,7 L21.5,7 C21.776,7 22,7.224 22,7.5 C22,7.776 21.776,8 21.5,8 L21,8 Z" id="Path"></path><path d="M19.682,4.818 C19.548,4.818 19.423,4.766 19.328,4.672 C19.133,4.477 19.133,4.16 19.328,3.965 L19.682,3.611 C19.776,3.517 19.902,3.465 20.036,3.465 C20.17,3.465 20.295,3.517 20.39,3.611 C20.585,3.806 20.585,4.123 20.39,4.318 L20.036,4.672 C19.941,4.766 19.815,4.818 19.682,4.818 Z" id="Path"></path><path d="M2.5,24 C1.121,24 0,22.878 0,21.5 L0,2.5 C0,1.121 1.121,0 2.5,0 L21.5,0 C22.878,0 24,1.121 24,2.5 L24,21.5 C24,22.878 22.878,24 21.5,24 L2.5,24 Z M2.5,1 C1.673,1 1,1.673 1,2.5 L1,21.5 C1,22.327 1.673,23 2.5,23 L21.5,23 C22.327,23 23,22.327 23,21.5 L23,2.5 C23,1.673 22.327,1 21.5,1 L2.5,1 Z" id="Shape"></path><path d="M15.907,20.081 C15.702,20.081 15.515,19.953 15.441,19.762 C15.141,18.99 14.727,18.27 14.212,17.621 C12.841,15.895 10.88,14.806 8.691,14.555 C8.375,14.519 8.054,14.501 7.737,14.501 C5.863,14.501 4.093,15.12 2.618,16.292 C2.53,16.361 2.419,16.4 2.307,16.4 C2.154,16.4 2.011,16.331 1.916,16.212 C1.744,15.996 1.781,15.681 1.996,15.509 C3.65,14.195 5.634,13.5 7.733,13.5 C8.088,13.5 8.449,13.521 8.804,13.562 C11.049,13.819 13.102,14.877 14.611,16.549 C15.524,15.862 16.603,15.501 17.747,15.501 C17.828,15.501 17.909,15.503 17.991,15.507 C19.392,15.571 20.684,16.178 21.63,17.214 C21.737,17.331 21.839,17.454 21.934,17.579 C22.101,17.799 22.058,18.113 21.838,18.28 C21.751,18.346 21.644,18.382 21.536,18.382 C21.379,18.382 21.233,18.31 21.138,18.185 C21.061,18.084 20.978,17.984 20.891,17.889 C20.126,17.05 19.079,16.559 17.945,16.507 C17.879,16.504 17.813,16.502 17.747,16.502 C16.834,16.502 15.971,16.787 15.238,17.329 C15.708,17.976 16.089,18.672 16.373,19.402 C16.473,19.659 16.345,19.949 16.088,20.049 C16.031,20.07 15.97,20.081 15.907,20.081 Z" id="Path"></path></g></g></g></g></g></g></svg>