<svg xmlns="http://www.w3.org/2000/svg" width="36" height="36" viewBox="0 0 36 36"><g fill="#111" fill-rule="nonzero"><path d="M1.155 22.5a.75.75 0 0 1-.732-.587A17.87 17.87 0 0 1 0 18C0 8.075 8.075 0 18 0c5.7 0 11.112 2.745 14.48 7.343a.75.75 0 1 1-1.209.886A16.507 16.507 0 0 0 18 1.5C8.902 1.5 1.5 8.902 1.5 18c0 1.239.13 2.445.387 3.587a.749.749 0 0 1-.732.913zM18 36c-5.7 0-11.112-2.745-14.48-7.343a.751.751 0 0 1 .161-1.048.748.748 0 0 1 1.048.162A16.507 16.507 0 0 0 18 34.5c9.098 0 16.5-7.402 16.5-16.5 0-1.259-.135-2.461-.4-3.576a.75.75 0 1 1 1.459-.346C35.852 15.305 36 16.625 36 18c0 9.925-8.075 18-18 18z"></path><path d="M3.825 33a.75.75 0 0 1-.75-.738L3 27.762A.754.754 0 0 1 3.75 27h4.5a.75.75 0 0 1 0 1.5H4.513l.062 3.738a.75.75 0 0 1-.738.762h-.012zM32.25 9h-4.5a.75.75 0 0 1 0-1.5h3.75V3.75a.75.75 0 0 1 1.5 0v4.5a.75.75 0 0 1-.75.75z"></path></g></svg>