<svg xmlns="http://www.w3.org/2000/svg" width="36" height="36" viewBox="0 0 36 36"><g fill="#111" fill-rule="nonzero"><path d="M19.68 36h-3.36a2.247 2.247 0 0 1-2.229-1.98l-.358-2.814a14.175 14.175 0 0 1-2.062-.854l-2.24 1.742c-.91.703-2.189.623-2.978-.189L4.09 29.542c-.805-.781-.886-2.06-.182-2.968l1.741-2.243a13.849 13.849 0 0 1-.854-2.06l-2.82-.359A2.252 2.252 0 0 1 0 19.68v-3.36c0-1.136.85-2.094 1.98-2.229l2.814-.358c.233-.716.519-1.406.854-2.062l-1.74-2.24a2.236 2.236 0 0 1 .19-2.98L6.46 4.09c.782-.806 2.063-.885 2.969-.183l2.241 1.743a14.124 14.124 0 0 1 2.063-.854l.358-2.82A2.246 2.246 0 0 1 16.32 0h3.36c1.136 0 2.094.85 2.229 1.98l.358 2.814c.718.233 1.407.519 2.063.854l2.241-1.742c.91-.704 2.188-.623 2.977.19l2.363 2.363c.806.782.886 2.061.183 2.969l-1.742 2.242c.337.655.623 1.345.854 2.061l2.82.358A2.249 2.249 0 0 1 36 16.32v3.36c0 1.136-.85 2.094-1.98 2.229l-2.814.358a14.175 14.175 0 0 1-.854 2.061l1.742 2.242a2.234 2.234 0 0 1-.19 2.977L29.54 31.91c-.782.805-2.063.887-2.968.183L24.33 30.35c-.655.336-1.345.623-2.061.854l-.358 2.82A2.249 2.249 0 0 1 19.68 36zm-8.085-7.29a.76.76 0 0 1 .366.095 12.59 12.59 0 0 0 2.661 1.104c.288.082.5.328.537.625l.42 3.3c.045.377.37.666.741.666h3.36c.37 0 .696-.29.74-.658l.421-3.306a.749.749 0 0 1 .537-.626 12.59 12.59 0 0 0 2.661-1.104.748.748 0 0 1 .825.063l2.625 2.04a.738.738 0 0 0 .982-.051l2.378-2.378a.742.742 0 0 0 .058-.99l-2.04-2.624a.749.749 0 0 1-.063-.825 12.59 12.59 0 0 0 1.105-2.662.749.749 0 0 1 .625-.537l3.3-.42a.76.76 0 0 0 .666-.742v-3.36c0-.37-.29-.696-.658-.74l-3.306-.421a.749.749 0 0 1-.626-.537 12.59 12.59 0 0 0-1.104-2.661.746.746 0 0 1 .063-.825l2.04-2.625a.735.735 0 0 0-.05-.981l-2.377-2.378a.738.738 0 0 0-.99-.058l-2.625 2.04a.751.751 0 0 1-.826.063 12.538 12.538 0 0 0-2.662-1.104.749.749 0 0 1-.537-.625l-.42-3.3a.76.76 0 0 0-.742-.668h-3.36c-.37 0-.696.29-.74.659l-.421 3.306a.753.753 0 0 1-.537.627c-.942.27-1.838.642-2.661 1.102a.751.751 0 0 1-.827-.061L8.51 5.093a.736.736 0 0 0-.98.049L5.15 7.521a.742.742 0 0 0-.058.99l2.04 2.625c.184.237.21.563.063.825a12.512 12.512 0 0 0-1.104 2.661.749.749 0 0 1-.626.537l-3.3.42a.758.758 0 0 0-.666.741v3.36c0 .37.29.696.659.74l3.306.421a.749.749 0 0 1 .625.537c.27.939.642 1.834 1.104 2.661a.746.746 0 0 1-.063.825l-2.04 2.625a.735.735 0 0 0 .05.981l2.377 2.378a.741.741 0 0 0 .99.058l2.625-2.04a.773.773 0 0 1 .462-.156z"></path><path d="M18 25.5c-4.136 0-7.5-3.364-7.5-7.5s3.364-7.5 7.5-7.5 7.5 3.364 7.5 7.5-3.364 7.5-7.5 7.5zM18 12c-3.309 0-6 2.691-6 6s2.691 6 6 6 6-2.691 6-6-2.691-6-6-6z"></path></g></svg>