<svg xmlns="http://www.w3.org/2000/svg" xmlns:xlink="http://www.w3.org/1999/xlink" width="24px" height="24px" viewBox="0 0 24 24"><title>social-media-tuenti</title><g id="Page-1" stroke="none" stroke-width="1" fill="none" fill-rule="evenodd"><g id="Sala-Landing-Page" transform="translate(-252.000000, -10808.000000)" fill="#0057FC" fill-rule="nonzero"><g id="body" transform="translate(0.000000, 2904.000000)"><g id="blog-style" transform="translate(0.000000, 7620.000000)"><g id="1" transform="translate(135.000000, 208.000000)"><g id="social-media-tuenti" transform="translate(117.000000, 76.000000)"><path d="M9.3560013,24 C7.0660013,24 4.8670013,23.155 3.1650013,21.622 C1.1530013,19.85 -0.000998702093,17.293 6.48531994e-07,14.608 L6.48531994e-07,9.39 C0.0170012979,4.226 4.2300013,0.014 9.3920013,0 L14.6140013,0 C17.1680013,0 19.6350013,1.056 21.3920013,2.897 C23.0750013,4.651 24.0030013,6.957 24.0040013,9.39 L24.0040013,21.52 C24.0030013,22.888 22.8910013,24 21.5260013,24 L9.3560013,24 Z M9.3950013,1 C4.7810013,1.013 1.0150013,4.777 1.00000057,9.392 L1.00000057,14.608 C0.999001298,17.006 2.0310013,19.29 3.8300013,20.875 C5.3520013,22.246 7.3140013,23 9.3570013,23 L21.5240013,23 C22.3400013,23 23.0030013,22.338 23.0040013,21.523 L23.0040013,9.39 C23.0030013,7.216 22.1740013,5.156 20.6690013,3.588 C19.1000013,1.943 16.8960013,1 14.6240013,1 L9.3950013,1 Z" id="Shape"></path><path d="M14.4650013,18.479 C14.3620013,18.479 14.2630013,18.448 14.1790013,18.389 C13.9530013,18.231 13.8980013,17.919 14.0550013,17.693 C16.3800013,14.366 16.1990013,9.857 13.6140013,6.728 C13.5290013,6.625 13.4890013,6.495 13.5020013,6.362 C13.5150013,6.229 13.5780013,6.109 13.6810013,6.024 C13.7710013,5.95 13.8840013,5.909 13.9990013,5.909 C14.1490013,5.909 14.2890013,5.975 14.3840013,6.091 C17.2540013,9.566 17.4550013,14.572 14.8730013,18.266 C14.7810013,18.399 14.6280013,18.479 14.4650013,18.479 Z" id="Path"></path><path d="M7.2130013,18.479 C7.1220013,18.479 7.0330013,18.454 6.9550013,18.407 C6.7180013,18.263 6.6430013,17.955 6.7860013,17.719 L9.3270013,13.53 C9.4170013,13.382 9.5810013,13.289 9.7550013,13.289 C9.8460013,13.289 9.9360013,13.314 10.0140013,13.361 C10.2500013,13.505 10.3250013,13.813 10.1820013,14.048 L7.6410013,18.237 C7.5510013,18.387 7.3870013,18.479 7.2130013,18.479 Z" id="Path"></path><path d="M9.24499649,10.068 C8.4180013,10.068 7.74499649,9.395 7.74499649,8.568 C7.7440013,8.17 7.8990013,7.795 8.1810013,7.513 C8.4630013,7.23 8.8370013,7.074 9.2350013,7.073 C9.2350013,7.073 9.2480013,7.073 9.2510013,7.073 C9.6650013,7.086 10.0280013,7.234 10.3000013,7.503 C10.5840013,7.783 10.7420013,8.157 10.7449965,8.556 C10.7449965,9.39 10.0720013,10.068 9.24499649,10.068 Z M9.2360013,8.073 C9.1050013,8.073 8.9810013,8.125 8.8880013,8.218 C8.7960013,8.312 8.7450013,8.436 8.7450013,8.567 C8.7450013,8.843 8.9690013,9.068 9.2450013,9.068 C9.5210013,9.068 9.7450013,8.844 9.7450013,8.568 C9.7440013,8.431 9.6930013,8.309 9.5980013,8.215 C9.5090013,8.127 9.3780013,8.073 9.2550013,8.073 L9.2350013,7.823 L9.2360013,8.073 Z" id="Shape"></path></g></g></g></g></g></g></svg>