<svg xmlns="http://www.w3.org/2000/svg" xmlns:xlink="http://www.w3.org/1999/xlink" width="24px" height="24px" viewBox="0 0 24 24"><title>time-clock-three</title><g id="Page-1" stroke="none" stroke-width="1" fill="none" fill-rule="evenodd"><g id="Sala-Landing-Page" transform="translate(-257.000000, -10746.000000)" fill="#0057FC" fill-rule="nonzero"><g id="body" transform="translate(0.000000, 2904.000000)"><g id="blog-style" transform="translate(0.000000, 7620.000000)"><g id="1" transform="translate(135.000000, 208.000000)"><g id="time-clock-three" transform="translate(122.000000, 14.000000)"><path d="M10.3698512,14.1811736 C10.0685797,14.1811736 9.82406953,13.9368211 9.82406953,13.6357438 L9.82406953,0.545429753 C9.82406953,0.244352529 10.0685797,0 10.3698512,0 C14.3322259,0 17.9027294,1.44866142 20.4253321,4.08090541 C22.8780748,6.64006182 24.1431967,10.0413618 23.9871031,13.6597427 C23.9729128,13.9520931 23.7338604,14.1811736 23.4413215,14.1811736 L10.3698512,14.1811736 Z M22.9075747,13.0903141 C22.9140964,9.97154675 21.7581309,7.04913413 19.6361319,4.83468933 C17.4431812,2.54606609 14.3551487,1.22612609 10.9145413,1.10067724 L10.9145413,13.0903141 L22.9075747,13.0903141 Z" id="Shape"></path><path d="M10.9156328,24 C10.6143614,24 10.3698512,23.7556475 10.3698512,23.4545702 L10.3698512,21.2728512 C10.3698512,20.971774 10.6143614,20.7274215 10.9156328,20.7274215 C11.2169043,20.7274215 11.4614145,20.971774 11.4614145,21.2728512 L11.4614145,23.4545702 C11.4614145,23.7556475 11.2158127,24 10.9156328,24 Z" id="Path"></path><path d="M0.545781641,13.6368347 C0.244510175,13.6368347 0,13.3924822 0,13.0914049 C0,12.7903277 0.244510175,12.5459752 0.545781641,12.5459752 L2.7289082,12.5459752 C3.03017967,12.5459752 3.27468984,12.7903277 3.27468984,13.0914049 C3.27468984,13.3924822 3.03017967,13.6368347 2.7289082,13.6368347 L0.545781641,13.6368347 Z" id="Path"></path><path d="M5.12707273,7.85091587 C4.98080325,7.85091587 4.84435784,7.79419117 4.74065933,7.69165038 L3.19718885,6.14917504 C2.98433401,5.93645743 2.98433401,5.59065497 3.19718885,5.37793737 C3.2997958,5.27539657 3.43733277,5.21867188 3.58360225,5.21867188 C3.72987173,5.21867188 3.86631714,5.27430571 3.96892409,5.37793737 L5.51239457,6.92041271 C5.72524941,7.13313031 5.72524941,7.47893278 5.51239457,7.69165038 C5.40978762,7.79419117 5.27225065,7.85091587 5.12707273,7.85091587 Z" id="Path"></path><path d="M16.7052845,7.85091587 C16.559015,7.85091587 16.4225696,7.79419117 16.3188711,7.69165038 C16.1060162,7.47893278 16.1060162,7.13313031 16.3188711,6.92041271 L17.8623415,5.37793737 C17.9649485,5.27539657 18.1024855,5.21867188 18.2487549,5.21867188 C18.3950244,5.21867188 18.5314698,5.27539657 18.6351683,5.37793737 C18.8480232,5.59065497 18.8480232,5.93645743 18.6351683,6.14917504 L17.0916979,7.69165038 C16.9879994,7.79419117 16.8504624,7.85091587 16.7052845,7.85091587 Z" id="Path"></path><path d="M18.2487549,20.964138 C18.1024855,20.964138 17.9660401,20.9074133 17.8623415,20.8048725 L16.3188711,19.2623972 C16.1060162,19.0496796 16.1060162,18.7038771 16.3188711,18.4911595 C16.421478,18.3886187 16.559015,18.331894 16.7052845,18.331894 C16.8515539,18.331894 16.9879994,18.3886187 17.0916979,18.4911595 L18.6351683,20.0336348 C18.8480232,20.2463524 18.8480232,20.5921549 18.6351683,20.8048725 C18.5314698,20.9074133 18.3939329,20.964138 18.2487549,20.964138 Z" id="Path"></path><path d="M3.58360225,20.964138 C3.43733277,20.964138 3.30088736,20.9074133 3.19718885,20.8048725 C2.98433401,20.5921549 2.98433401,20.2463524 3.19718885,20.0336348 L4.74065933,18.4911595 C4.84326628,18.3886187 4.98080325,18.331894 5.12707273,18.331894 C5.27334221,18.331894 5.40978762,18.3886187 5.51348614,18.4911595 C5.72634098,18.7038771 5.72634098,19.0496796 5.51348614,19.2623972 L3.97001566,20.8048725 C3.86631714,20.9074133 3.72878017,20.964138 3.58360225,20.964138 Z" id="Path"></path></g></g></g></g></g></g></svg>