<svg xmlns="http://www.w3.org/2000/svg" xmlns:xlink="http://www.w3.org/1999/xlink" width="26px" height="24px" viewBox="0 0 26 24"><title>ui-webpage-slider</title><g id="Page-1" stroke="none" stroke-width="1" fill="none" fill-rule="evenodd"><g id="Sala-Landing-Page" transform="translate(-313.000000, -11006.000000)" fill="#0057FC" fill-rule="nonzero"><g id="ui-webpage-slider" transform="translate(313.000000, 11006.000000)"><path d="M5.90909091,22.2439024 C5.25790909,22.2439024 4.72727273,21.7194146 4.72727273,21.0731707 L4.72727273,19.902439 L1.18181818,19.902439 C0.530636364,19.902439 0,19.3779512 0,18.7317073 L0,3.51219512 C0,2.86712195 0.530636364,2.34146341 1.18181818,2.34146341 L4.72727273,2.34146341 L4.72727273,1.17073171 C4.72727273,0.525658537 5.25790909,0 5.90909091,0 L20.0909091,0 C20.7432727,0 21.2727273,0.525658537 21.2727273,1.17073171 L21.2727273,2.34146341 L24.8181818,2.34146341 C25.4705455,2.34146341 26,2.86712195 26,3.51219512 L26,19.3170732 C26,19.6401951 25.7352727,19.902439 25.4090909,19.902439 C25.0829091,19.902439 24.8181818,19.6401951 24.8181818,19.3170732 L24.8181818,3.51219512 L21.2727273,3.51219512 L21.2727273,15.2195122 C21.2727273,15.5426341 21.008,15.804878 20.6818182,15.804878 C20.3556364,15.804878 20.0909091,15.5426341 20.0909091,15.2195122 L20.0909091,1.17073171 L5.90909091,1.17073171 L5.90909091,21.0731707 L15.3636364,21.0731707 C15.6898182,21.0731707 15.9545455,21.3354146 15.9545455,21.6585366 C15.9545455,21.9816585 15.6898182,22.2439024 15.3636364,22.2439024 L5.90909091,22.2439024 Z M1.18181818,18.7317073 L4.72727273,18.7317073 L4.72727273,3.51219512 L1.18181818,3.51219512 L1.18181818,18.7317073 Z" id="Shape"></path><path d="M23.6481818,24 C23.4898182,24 23.3420909,23.939122 23.2298182,23.8290732 L21.1415455,21.7603902 L20.1180909,22.7730732 C20.0010909,22.8889756 19.8569091,22.9814634 19.6997273,23.0411707 C19.5661818,23.0903415 19.4267273,23.1160976 19.2849091,23.1160976 C18.7944545,23.1160976 18.3500909,22.8117073 18.1775455,22.3574634 L16.4485455,17.7916098 C16.3480909,17.5258537 16.3480909,17.2331707 16.4485455,16.9674146 C16.6210909,16.5143415 17.0654545,16.2099512 17.5570909,16.2099512 C17.6989091,16.2099512 17.8371818,16.2345366 17.9707273,16.2837073 L22.5798182,17.9964878 C22.7346364,18.0538537 22.8811818,18.1463415 23.0005455,18.2645854 C23.2239091,18.4858537 23.3468182,18.7797073 23.3468182,19.0922927 C23.3468182,19.404878 23.2239091,19.6987317 22.9993636,19.92 L21.9770909,20.9315122 L24.0653636,23.0001951 C24.2958182,23.2284878 24.2958182,23.5996098 24.0653636,23.8279024 C23.9542727,23.939122 23.8065455,24 23.6481818,24 Z M19.2837273,21.9441951 L22.1638182,19.091122 L17.5559091,17.3783415 L19.2837273,21.9441951 Z" id="Shape"></path><path d="M8.27272727,5.85365854 C7.94654545,5.85365854 7.68181818,5.59141463 7.68181818,5.26829268 C7.68181818,4.94517073 7.94654545,4.68292683 8.27272727,4.68292683 L17.7272727,4.68292683 C18.0534545,4.68292683 18.3181818,4.94517073 18.3181818,5.26829268 C18.3181818,5.59141463 18.0534545,5.85365854 17.7272727,5.85365854 L8.27272727,5.85365854 Z" id="Path"></path><path d="M8.27272727,9.36585366 C7.94654545,9.36585366 7.68181818,9.10360976 7.68181818,8.7804878 C7.68181818,8.45736585 7.94654545,8.19512195 8.27272727,8.19512195 L17.7272727,8.19512195 C18.0534545,8.19512195 18.3181818,8.45736585 18.3181818,8.7804878 C18.3181818,9.10360976 18.0534545,9.36585366 17.7272727,9.36585366 L8.27272727,9.36585366 Z" id="Path"></path><path d="M8.27272727,12.8780488 C7.94654545,12.8780488 7.68181818,12.6158049 7.68181818,12.2926829 C7.68181818,11.969561 7.94654545,11.7073171 8.27272727,11.7073171 L14.1818182,11.7073171 C14.508,11.7073171 14.7727273,11.969561 14.7727273,12.2926829 C14.7727273,12.6158049 14.508,12.8780488 14.1818182,12.8780488 L8.27272727,12.8780488 Z" id="Path"></path></g></g></g></svg>