<svg xmlns="http://www.w3.org/2000/svg" width="62" height="60" viewBox="0 0 62 60" fill="none"><path d="M61.6546 11.763C61.759 11.7048 61.8458 11.6211 61.9064 11.5203C61.967 11.4196 61.9993 11.3053 62 11.1887V4.18323C62.0005 4.06556 61.9688 3.94985 61.9081 3.84782C61.8475 3.74579 61.76 3.66107 61.6546 3.60223C61.6117 3.57763 61.5651 3.55961 61.5164 3.5488L55.2992 0.0894715C55.1941 0.0308576 55.075 0 54.9538 0C54.8325 0 54.7134 0.0308576 54.6084 0.0894715L48.3496 3.57551C48.2442 3.63435 48.1567 3.71908 48.0961 3.8211C48.0354 3.92313 48.0038 4.03884 48.0042 4.15652V4.15652V6.9881H35.4661V6.46719C35.4642 5.99722 35.2698 5.54709 34.9254 5.21539C34.581 4.8837 34.1147 4.69746 33.6285 4.69746H28.7929C28.3074 4.69746 27.8417 4.88391 27.4984 5.2158C27.1551 5.54769 26.9622 5.99783 26.9622 6.46719V6.9881H14.0027V4.18323C14.0032 4.06556 13.9715 3.94985 13.9108 3.84782C13.8502 3.74579 13.7627 3.66107 13.6573 3.60223L7.37783 0.0894715C7.27282 0.0308576 7.15369 0 7.03243 0C6.91117 0 6.79204 0.0308576 6.68702 0.0894715L0.490479 3.57551C0.44185 3.58632 0.395244 3.60435 0.352317 3.62894C0.246897 3.68778 0.159431 3.7725 0.0987759 3.87453C0.0381207 3.97656 0.00643025 4.09227 0.00691352 4.20995V11.1887C0.00764119 11.3053 0.0399056 11.4196 0.1005 11.5203C0.161095 11.6211 0.24791 11.7048 0.352317 11.763L6.40379 15.1422V26.2214H5.86496C5.62398 26.2206 5.38519 26.2657 5.16229 26.3542C4.93938 26.4428 4.73676 26.573 4.56604 26.7374C4.39531 26.9018 4.25985 27.0972 4.16742 27.3124C4.07499 27.5275 4.02741 27.7582 4.02741 27.9912V32.6659C4.02741 33.1359 4.22006 33.5867 4.56318 33.9197C4.90629 34.2526 5.3719 34.4406 5.85805 34.4424H6.39688V44.8671L0.483571 48.2062C0.434941 48.217 0.388336 48.235 0.345409 48.2596C0.241002 48.3179 0.154187 48.4016 0.0935922 48.5023C0.0329975 48.6031 0.000733122 48.7174 5.44556e-06 48.834V55.806C-0.000477821 55.9237 0.0312126 56.0394 0.0918678 56.1415C0.152523 56.2435 0.239989 56.3282 0.345409 56.3871L6.56268 59.8664L6.61794 59.9132C6.72322 59.9709 6.84233 60.0008 6.96335 60C7.08436 60.0008 7.20347 59.9709 7.30875 59.9132L7.37092 59.8664L13.5882 56.3871C13.6936 56.3282 13.7811 56.2435 13.8417 56.1415C13.9024 56.0394 13.9341 55.9237 13.9336 55.806V53.2416H26.9622V53.7625C26.9622 53.9949 27.0096 54.225 27.1016 54.4398C27.1936 54.6545 27.3284 54.8496 27.4984 55.0139C27.6684 55.1782 27.8702 55.3086 28.0923 55.3975C28.3144 55.4865 28.5525 55.5322 28.7929 55.5322H33.6285C34.1147 55.5322 34.581 55.346 34.9254 55.0143C35.2698 54.6826 35.4642 54.2325 35.4661 53.7625V53.2416H48.0042V55.806C48.0038 55.9237 48.0354 56.0394 48.0961 56.1415C48.1567 56.2435 48.2442 56.3282 48.3496 56.3871L54.5669 59.8664L54.6291 59.9132C54.7344 59.9709 54.8535 60.0008 54.9745 60C55.0955 60.0008 55.2146 59.9709 55.3199 59.9132L55.3752 59.8664L61.5924 56.3871C61.6978 56.3282 61.7853 56.2435 61.846 56.1415C61.9066 56.0394 61.9383 55.9237 61.9378 55.806V48.8006C61.9371 48.684 61.9048 48.5697 61.8442 48.4689C61.7836 48.3682 61.6968 48.2845 61.5924 48.2262C61.5495 48.2017 61.5029 48.1836 61.4543 48.1728L55.5409 44.8337V34.4424H56.0798C56.5659 34.4406 57.0315 34.2526 57.3747 33.9197C57.7178 33.5867 57.9104 33.1359 57.9104 32.6659V27.9912C57.9104 27.5218 57.7175 27.0717 57.3742 26.7398C57.0309 26.4079 56.5653 26.2214 56.0798 26.2214H55.5409V15.1422L61.6546 11.763ZM60.6184 10.8014L55.7067 13.5461V8.07665L60.6184 5.33857V10.8014ZM49.3859 7.71602V5.33857L54.3044 8.07665V13.5461L49.3859 10.8014V7.71602ZM28.3438 6.49391C28.3438 6.37878 28.3912 6.26837 28.4754 6.18696C28.5596 6.10555 28.6738 6.05982 28.7929 6.05982H33.6285C33.7483 6.05981 33.8632 6.10533 33.9485 6.18655C34.0338 6.26777 34.0826 6.37817 34.0845 6.49391V7.01481H31.9568C31.7736 7.01481 31.5978 7.08517 31.4683 7.21041C31.3387 7.33565 31.266 7.50551 31.266 7.68263C31.266 7.85975 31.3387 8.02962 31.4683 8.15486C31.5978 8.2801 31.7736 8.35046 31.9568 8.35046H34.0845V8.87136C34.0845 8.98826 34.0364 9.10037 33.9509 9.18303C33.8654 9.26569 33.7494 9.31212 33.6285 9.31212H28.7929C28.7333 9.31213 28.6744 9.30069 28.6194 9.27845C28.5645 9.25622 28.5147 9.22365 28.4729 9.18263C28.4311 9.14161 28.3982 9.09297 28.376 9.03953C28.3539 8.98609 28.3429 8.92893 28.3438 8.87136V6.49391ZM6.30017 13.5461L1.38853 10.8014V5.33857L6.30017 8.07665V13.5461ZM2.10006 4.19659L7.03243 1.43848L11.9303 4.16988L6.99789 6.91464L2.10006 4.19659ZM12.6211 5.34525V10.8081L7.70251 13.5528V8.07665L12.6211 5.34525ZM5.86496 33.1067C5.74524 33.1049 5.63104 33.0577 5.54703 32.9753C5.46301 32.8928 5.41592 32.7817 5.41594 32.6659V27.9912C5.41594 27.876 5.46325 27.7656 5.54745 27.6842C5.63166 27.6028 5.74587 27.5571 5.86496 27.5571H6.40379V29.8744C6.40379 30.0516 6.47657 30.2214 6.60613 30.3467C6.73568 30.4719 6.91139 30.5423 7.0946 30.5423C7.27781 30.5423 7.45352 30.4719 7.58308 30.3467C7.71263 30.2214 7.78541 30.0516 7.78541 29.8744V27.5571H8.32424C8.38378 27.5562 8.44292 27.5668 8.49819 27.5882C8.55347 27.6096 8.60379 27.6414 8.64622 27.6818C8.68865 27.7222 8.72235 27.7704 8.74534 27.8235C8.76834 27.8766 8.78018 27.9336 8.78017 27.9912V32.6659C8.78017 32.7828 8.73214 32.8949 8.64663 32.9776C8.56113 33.0603 8.44516 33.1067 8.32424 33.1067H5.86496ZM6.30017 58.1635L1.38853 55.4254V49.9626L6.30017 52.7007V58.1635ZM6.99098 51.5453L2.10006 48.8139L7.03243 46.0625L11.9303 48.7939L6.99098 51.5453ZM12.6142 52.5404C12.6142 52.5404 12.6142 52.5404 12.6142 52.5738V55.4254L7.6956 58.1635V52.7007L12.6142 49.9626V52.5404ZM34.0776 53.7625C34.0757 53.8782 34.0269 53.9886 33.9416 54.0699C33.8563 54.1511 33.7414 54.1966 33.6216 54.1966H28.786C28.727 54.1966 28.6686 54.1854 28.6141 54.1635C28.5597 54.1417 28.5101 54.1098 28.4685 54.0695C28.4268 54.0291 28.3937 53.9813 28.3711 53.9286C28.3486 53.876 28.3369 53.8195 28.3369 53.7625V53.2416H30.734C30.9173 53.2416 31.093 53.1712 31.2225 53.046C31.3521 52.9208 31.4248 52.7509 31.4248 52.5738C31.4248 52.3967 31.3521 52.2268 31.2225 52.1016C31.093 51.9763 30.9173 51.906 30.734 51.906H28.3438V51.3851C28.3429 51.3275 28.3539 51.2703 28.376 51.2169C28.3982 51.1634 28.4311 51.1148 28.4729 51.0738C28.5147 51.0328 28.5645 51.0002 28.6194 50.978C28.6744 50.9557 28.7333 50.9443 28.7929 50.9443H33.6285C33.7494 50.9443 33.8654 50.9907 33.9509 51.0734C34.0364 51.156 34.0845 51.2682 34.0845 51.3851L34.0776 53.7625ZM47.9973 48.7939V51.8993H35.4661V51.3784C35.4643 50.9078 35.2701 50.457 34.9259 50.1242C34.5816 49.7914 34.1153 49.6037 33.6285 49.602H28.7929C28.3067 49.6037 27.8411 49.7917 27.498 50.1246C27.1549 50.4576 26.9622 50.9084 26.9622 51.3784V51.8993H14.0027V48.8006C14.0032 48.6829 13.9715 48.5672 13.9108 48.4652C13.8502 48.3631 13.7627 48.2784 13.6573 48.2196L7.78541 44.9472V34.4424H8.32424C8.81103 34.4406 9.27736 34.2529 9.62157 33.9201C9.96578 33.5873 10.16 33.1365 10.1618 32.6659V27.9912C10.16 27.5212 9.96555 27.0711 9.62115 26.7394C9.27674 26.4077 8.81039 26.2214 8.32424 26.2214H7.78541V15.0421L13.6573 11.763C13.7617 11.7048 13.8485 11.6211 13.9091 11.5203C13.9697 11.4196 14.0019 11.3053 14.0027 11.1887V8.35046H26.9622V8.87136C26.9622 9.34134 27.1549 9.79217 27.498 10.1251C27.8411 10.4581 28.3067 10.646 28.7929 10.6478H33.6285C34.1153 10.646 34.5816 10.4583 34.9259 10.1255C35.2701 9.79277 35.4643 9.34195 35.4661 8.87136V8.35046H48.0042V11.1887C48.005 11.3053 48.0372 11.4196 48.0978 11.5203C48.1584 11.6211 48.2452 11.7048 48.3496 11.763L54.2215 15.0421V26.2214H53.6827C53.1965 26.2214 52.7302 26.4077 52.3858 26.7394C52.0414 27.0711 51.847 27.5212 51.8451 27.9912V32.6659C51.8469 33.1365 52.0411 33.5873 52.3853 33.9201C52.7296 34.2529 53.1959 34.4406 53.6827 34.4424H54.2215V44.9406L48.3496 48.2129C48.2442 48.2717 48.1567 48.3565 48.0961 48.4585C48.0354 48.5605 48.0038 48.6762 48.0042 48.7939H47.9973ZM54.2975 58.1434L49.3789 55.4054V49.9626L54.2975 52.7007V58.1434ZM60.6115 55.4054L55.6998 58.1434V52.7007L60.6115 49.9626V55.4054ZM59.9207 48.7939L55.0297 51.5253L50.0905 48.7739L54.9883 46.0425L59.9207 48.7939ZM56.142 27.5571C56.261 27.5571 56.3752 27.6028 56.4595 27.6842C56.5437 27.7656 56.591 27.876 56.591 27.9912V32.6659C56.591 32.7817 56.5439 32.8928 56.4599 32.9753C56.3759 33.0577 56.2617 33.1049 56.142 33.1067H55.6031V31.0498C55.6031 30.8727 55.5303 30.7028 55.4008 30.5776C55.2712 30.4523 55.0955 30.382 54.9123 30.382C54.7291 30.382 54.5534 30.4523 54.4238 30.5776C54.2943 30.7028 54.2215 30.8727 54.2215 31.0498V33.1067H53.6827C53.5618 33.1067 53.4458 33.0603 53.3603 32.9776C53.2748 32.8949 53.2267 32.7828 53.2267 32.6659V27.9912C53.2267 27.9336 53.2386 27.8766 53.2616 27.8235C53.2846 27.7704 53.3183 27.7222 53.3607 27.6818C53.4031 27.6414 53.4534 27.6096 53.5087 27.5882C53.564 27.5668 53.6231 27.5562 53.6827 27.5571H56.142ZM55.0159 6.91464L50.0767 4.16988L54.9745 1.43848L59.9068 4.18991L55.0159 6.91464Z" fill="#0057FC"></path></svg>