<svg xmlns="http://www.w3.org/2000/svg" xmlns:xlink="http://www.w3.org/1999/xlink" width="24px" height="24px" viewBox="0 0 24 24"><title>video-player-adjust</title><g id="Page-1" stroke="none" stroke-width="1" fill="none" fill-rule="evenodd"><g id="Sala-Landing-Page" transform="translate(-143.000000, -10847.000000)" fill="#0057FC" fill-rule="nonzero"><g id="body" transform="translate(0.000000, 2904.000000)"><g id="blog-style" transform="translate(0.000000, 7620.000000)"><g id="1" transform="translate(135.000000, 208.091603)"><g id="video-player-adjust" transform="translate(8.000000, 114.908397)"><path d="M2.5,24 C1.121,24 0,22.878 0,21.5 L0,2.5 C0,1.121 1.121,0 2.5,0 L21.5,0 C22.878,0 24,1.121 24,2.5 L24,21.5 C24,22.878 22.878,24 21.5,24 L2.5,24 Z M2.5,1 C1.673,1 1,1.673 1,2.5 L1,21.5 C1,22.327 1.673,23 2.5,23 L21.5,23 C22.327,23 23,22.327 23,21.5 L23,2.5 C23,1.673 22.327,1 21.5,1 L2.5,1 Z" id="Shape"></path><path d="M9.041,14.423 C8.948,14.423 8.855,14.41 8.764,14.386 C8.496,14.312 8.273,14.139 8.135,13.897 C8.048,13.741 8,13.564 8,13.385 L8,6.615 C8.001,6.336 8.109,6.075 8.306,5.879 C8.505,5.682 8.76,5.578 9.042,5.577 C9.222,5.577 9.399,5.624 9.555,5.713 L15.477,9.097 C15.974,9.381 16.148,10.017 15.864,10.514 C15.772,10.675 15.638,10.809 15.477,10.901 L9.556,14.285 C9.397,14.376 9.22,14.423 9.041,14.423 Z M9.04,6.577 C9.029,6.577 9.02,6.581 9.012,6.588 C9.004,6.597 9,6.606 9,6.617 L9,13.384 C9.016,13.421 9.035,13.423 9.041,13.423 L14.98,10.034 C15.005,10.001 14.998,9.977 14.98,9.966 L9.059,6.582 L9.04,6.577 Z" id="Shape"></path><path d="M14.5,22 C13.673,22 13,21.327 13,20.5 L13,20 L3.5,20 C3.224,20 3,19.776 3,19.5 C3,19.224 3.224,19 3.5,19 L13,19 L13,18.5 C13,17.673 13.673,17 14.5,17 C15.327,17 16,17.673 16,18.5 L16,19 L20.5,19 C20.776,19 21,19.224 21,19.5 C21,19.776 20.776,20 20.5,20 L16,20 L16,20.5 C16,21.327 15.327,22 14.5,22 Z M14.5,18 C14.224,18 14,18.224 14,18.5 L14,20.5 C14,20.776 14.224,21 14.5,21 C14.776,21 15,20.776 15,20.5 L15,18.5 C15,18.224 14.776,18 14.5,18 Z" id="Shape"></path></g></g></g></g></g></g></svg>