<svg xmlns="http://www.w3.org/2000/svg" width="30" height="34" viewBox="0 0 30 34"><g stroke="#000" fill="none" fill-rule="evenodd" stroke-linecap="round" stroke-linejoin="round"><path d="M1.993 11.126C2.829 5.41 7.825 1.122 13.79 1.002c5.544-.11 10.272 3.518 11.857 8.425M2.373 16.508a66.88 66.88 0 0 0 .706 3.106c.284 1.14.428 2.308.428 3.48v5.412M26.214 20.872c0 4.216-3.533 7.633-7.89 7.634h-4.566M27.114 18.123l1.822 2.895a.415.415 0 0 1 .008.43.443.443 0 0 1-.385.218h-2.345v-.793M16.466 28.506V33H3.507v-4.494"></path><path d="M2.316 11.032h12.451v5.484H2.317c-.728 0-1.317-.57-1.317-1.274v-2.936c0-.704.59-1.274 1.316-1.274z"></path><path d="M16.428 9.426h11.3c.43 0 .778.337.778.752v7.192a.74.74 0 0 1-.228.532.791.791 0 0 1-.55.22h-11.3c-.44 0-.863-.169-1.175-.47a1.581 1.581 0 0 1-.486-1.137v-5.482c0-.888.744-1.607 1.661-1.607z"></path><path d="M27.607 9.426h-4.364v8.697h4.364c.495 0 .897-.39.897-.869v-6.959a.854.854 0 0 0-.262-.614.913.913 0 0 0-.635-.255zM19.72 14.81h3.523v-2.073h-3.522c-.592 0-1.072.464-1.072 1.037h0c0 .573.48 1.037 1.072 1.037h0z"></path></g></svg>