<svg xmlns="http://www.w3.org/2000/svg" width="48" height="60" viewBox="0 0 48 60"><g fill="#111" fill-rule="nonzero"><path d="M23.486 50.54c-7.713 0-13.987-6.251-13.987-13.935 0-.541-.441-.98-.985-.98a.983.983 0 0 0-.985.98c0 8.765 7.158 15.895 15.957 15.895a.982.982 0 0 0 .985-.98c0-.542-.441-.98-.985-.98z"></path><path d="M47.46 1.98A4.034 4.034 0 0 0 43.989 0h-28.25a.984.984 0 0 0-.99.978c0 .54.444.979.99.979h28.25c.723 0 1.397.384 1.76 1.003.363.62.365 1.392.005 2.013L37.29 19.61a.97.97 0 0 0 .232 1.241c4.936 4.004 7.766 9.918 7.766 16.226 0 11.562-9.503 20.968-21.184 20.968-11.68 0-21.184-9.406-21.184-20.968 0-6.277 2.808-12.172 7.703-16.174a.97.97 0 0 0 .226-1.244L2.253 4.983a2.003 2.003 0 0 1-.003-2.018 2.044 2.044 0 0 1 1.763-1.009h4.751c.547 0 .99-.437.99-.978A.984.984 0 0 0 8.764 0H4.013A4.034 4.034 0 0 0 .534 1.99 3.945 3.945 0 0 0 .54 5.962l8.184 13.971C3.766 24.291.94 30.491.94 37.076.94 49.716 11.33 60 24.104 60s23.164-10.284 23.164-22.924c0-6.62-2.851-12.842-7.852-17.2l8.056-13.932a3.947 3.947 0 0 0-.011-3.964z"></path></g></svg>