<svg width="510" height="600" xmlns="http://www.w3.org/2000/svg">
    <g fill-rule="nonzero" fill="none">
        <g transform="matrix(-1 0 0 1 510 23.038)">
            <path d="M500.428 295.733 170.356 478.552a16.087 16.087 0 0 1-12.277 1.38 16.152 16.152 0 0 1-9.653-7.74L12.617 225.148l-9.389-17.076c-4.306-7.835-1.47-17.69 6.334-22.013L339.636 3.24a16.087 16.087 0 0 1 12.277-1.38 16.152 16.152 0 0 1 9.653 7.74l9.438 17.169 135.76 246.95c4.306 7.836 1.47 17.691-6.336 22.014z"/>
            <path d="M162.583 481.803c-1.64 0-3.27-.235-4.844-.693a17.264 17.264 0 0 1-10.385-8.325L11.545 225.74l-9.389-17.076c-4.62-8.43-1.572-19.022 6.814-23.682L339.044 2.163c8.399-4.636 18.952-1.576 23.593 6.843l9.438 17.17 135.762 246.95c4.632 8.429 1.58 19.031-6.817 23.682L170.947 479.627a17.196 17.196 0 0 1-8.364 2.176zM347.407 2.455c-2.512 0-4.983.64-7.18 1.86L10.152 187.136C2.95 191.136.331 200.236 4.3 207.477l9.39 17.076 135.808 247.044a14.926 14.926 0 0 0 8.921 7.152 14.866 14.866 0 0 0 11.347-1.275l330.071-182.818c7.213-3.995 9.835-13.103 5.856-20.344l-135.76-246.95-9.438-17.17a14.925 14.925 0 0 0-13.087-7.738z" fill="#0057FC"/>
            <path d="M371.738 26.769 13.351 225.148l-9.388-17.076c-4.307-7.835-1.471-17.69 6.333-22.013L340.37 3.24a16.087 16.087 0 0 1 12.278-1.38A16.152 16.152 0 0 1 362.3 9.6l9.437 17.169z" fill="#0057FC"/>
            <ellipse fill="#FFF" cx="346.523" cy="19.498" rx="4.999" ry="5.018"/>
            <ellipse fill="#FFF" cx="331.637" cy="27.75" rx="4.999" ry="5.018"/>
            <ellipse fill="#FFF" cx="316.75" cy="36.001" rx="4.999" ry="5.018"/>
        </g>
        <path d="M328.495 45.851s14.124 17.391 30.552 27.023c8.798 5.16 23.708 8.844 46.683 10.318 26.748 1.716 42.04 18.67 41.062 40.78-.674 15.224-7.333 26.286 3.91 46.676 13.621 24.703.489 56.748-33.776 66.45 0 0-127.17-151.14-108.229-192.23l19.798.983z" fill="#131B5F"/>
        <path d="M129.785 145.1c-5.067-9.944 4.158-3.846 10.095 2.694.231-8.792.941-17.564 2.126-26.278 3.666-26.04 6.844-9.581 6.844-9.581s2.933-5.896 5.377 10.809c2.258 15.435 1.222 25.795 1.222 25.795s7.577 9.826 14.91 36.358l98.743 23.829 4.155 34.077c-23.464 8.914-56.083 9.3-97.277-24.005-18.357-14.84-30.797-31.936-34.952-49.624-5.6-12.274-9.19-20.048-11.243-24.075z" fill="#F4ADA2"/>
        <g fill="#131B5F">
            <path d="m140.554 173.112 1.194-.26c-1.896-8.766-1.897-14.91-1.899-22.026 0-2.014 0-4.099-.043-6.353l-1.222.023c.042 2.243.043 4.32.043 6.33.002 7.186.003 13.392 1.927 22.286zM145.306 140.677c.335 0 .607-.27.611-.607.002-.212.285-21.373 3.87-30.74a.615.615 0 0 0-.352-.79.61.61 0 0 0-.789.35c-3.663 9.573-3.94 30.29-3.95 31.166a.613.613 0 0 0 .603.621h.007z"/>
        </g>
        <path d="M262.747 238.206s3.412 2.007 10.397 3.677l-4.042-33.157-6.355 29.48z" fill="#F4ADA2"/>
        <path d="M305.275 351.948s-14.176 25.794-19.797 53.063c-5.622 27.269-1.788 37.03 8.065 38.078 9.854 1.047 30.797-10.072 11.732-91.141zM189.462 493.814s26.623 9.063 51.054.54c24.431-8.522 51.072-2.624 53.516 10.15 2.444 12.775-21.429 40.035-104.57-10.69z" fill="#101A6F"/>
        <path d="m185.769 514.25 44.757 8.362c1.933-5.4 3.852-10.264 5.756-14.595 2.901-6.635 5.726-12.042 8.378-16.287h-54.77s-.157.737-.428 2.083a577.937 577.937 0 0 0-3.693 20.437zM181.105 555.35s34.675 17.14 42.047-9.329c2.424-8.71 4.903-16.5 7.374-23.406v-.003l-44.757-8.362v.002c-1.99 12.256-4.072 27.628-4.664 41.097zM285.966 404.028s5.336.917 13.646 2.005a469.507 469.507 0 0 0 19.4 2.145c12.325 1.1 26.391 1.822 39.023 1.169 31.563-1.634 9.121-35.906 9.121-35.906-6.963-2.508-15.066-4.987-23.987-8.087-7.745-2.693-16.104-5.855-24.862-9.915a212.65 212.65 0 0 1-4.233-2.017s-23.22 38.323-28.108 50.606z" fill="#F4ADA2"/>
        <path d="M364.668 253.928c9.693 26.979-11.487 61.907-31.285 84.508-19.798 22.601-45.706 47.905-47.417 77.138-1.71 29.234 5.133 72.225 8.066 88.93-5.621-15.476-29.574-15.476-54.993-9.826-25.42 5.65-49.577-.864-49.577-.864s14.625-68.659 22.936-97.893c0 0-70.88-54.537-45.706-89.175 25.175-34.639 71.614-57.486 96.055-68.54 24.442-11.055 92.389-10.81 101.921 15.722z" fill="#131B5F"/>
        <g fill="#212D8B">
            <path d="M211.298 398.133a.612.612 0 0 0 .589-.45c4.651-16.862 13.907-42.77 23.576-66.006 8.971-21.557 22.898-52.03 38.3-74.784a.617.617 0 0 0-.46-.963.61.61 0 0 0-.55.272c-15.46 22.84-29.425 53.392-38.418 75.001-7.357 17.678-17.959 45.61-23.626 66.151a.617.617 0 0 0 .589.779zM286.578 423.19a.613.613 0 0 0 .61-.599c.27-10.57.899-35.322 4.393-57.65a.616.616 0 0 0-.218-.577.609.609 0 0 0-.99.385c-3.506 22.408-4.137 47.217-4.406 57.811a.613.613 0 0 0 .595.63h.016z"/>
            <path d="M238.917 321.977a.614.614 0 0 0 .184-1.2c-.194-.062-19.614-6.159-34.968-4.201a.614.614 0 0 0 .154 1.218c15.09-1.926 34.253 4.092 34.445 4.152.06.02.122.03.185.03z"/>
        </g>
        <path d="m269.102 208.726-6.355 29.48s3.412 2.007 10.397 3.677c8.394 2.01 21.944 3.53 40.93.499 26.153-4.176 50.594 11.546 50.594 11.546l-7.821-76.893-28.352-76.892c-6.11 4.176-18.576 15.477-32.019 2.21 1.956-5.404.907-7.843.907-7.843s-14.86-11.573-24.627 14.103c-9.728 25.584-28.448 68.597-49.374 89.08l45.72 11.033z" fill="#0057FC"/>
        <path d="M258.035 50.07c.496 5.197 1.34 21.755 9.48 25.037 3.317 1.339 12.676-1.616 17.085-3.537.069 0 .137.004.206.012 1.534.034 5.675 1.103 8.71 6.227 2.638 4.454 4.439 11.974 2.96 24.545 0 0 11.732 15.722 32.019-2.211 0 0 .977-8.107 6.11-11.792 0 0-18.087-13.757-22.486-35.867-.489-.737-5.663-11.173-5.453-11.178 1.115-.024 2.114-.056 3.011-.093l.372-.015c.088-.002.176-.007.264-.012.156-.005.308-.015.454-.02.335-.017.655-.032.96-.049.12-.007.235-.012.348-.02a93.173 93.173 0 0 0 2.899-.213c.117-.01.23-.022.34-.03.11-.007.214-.022.32-.032l.3-.03c.098-.009.196-.019.291-.026L294.191.18c-.242-.022-.484-.044-.728-.064l-.05-.002a33.206 33.206 0 0 0-11.262 1c-8.232 2.264-14.655 8.227-18.184 15.965-1.467 3.213-2.474 6.618-3.249 10.06a40.953 40.953 0 0 0-.567 3.196c-.2 1.43-.35 2.864-.508 4.297a87.207 87.207 0 0 1-.389 3.073c-.198 1.334-.413 2.955-.997 4.193-.577 1.224-1.652 2.076-2.732 2.833-2.342 1.572.44 4.518 2.51 5.338z" fill="#F4ADA2"/>
        <path d="M284.6 71.57c.069 0 .137.004.206.012 1.534.034 5.675 1.103 8.71 6.227 5.424-5.613 6.11-12.563 4.182-13.533-1.466-.737-3.69 1.186-5.142 2.26-2.923 2.162-5.123 3.636-7.956 5.034zM274.281 35.294c3.52 1.302 5.34 4.47 4.5 6.086-.84 1.617-4.32 1.7-7.54-.23-3.312-1.986-5.326-4.663-4.5-6.087.855-1.476 4.048-1.06 7.54.231zM264.874 60.812c.454.23.952.357 1.46.374.495.02.99-.038 1.467-.172a5.26 5.26 0 0 0 2.524-1.532c.33-.38.607-.807.819-1.265.208-.46.344-.95.404-1.45a4.188 4.188 0 0 0-.653-2.868.547.547 0 0 0-.687-.18.552.552 0 0 0-.289.652l.009.028a4.128 4.128 0 0 1-.3 3.085c-.156.31-.352.599-.582.858a4.603 4.603 0 0 1-1.725 1.172 3.934 3.934 0 0 1-2.07.272l-.032-.006a.552.552 0 0 0-.344 1.032h-.001zM271.529 43.693c-1.407-.767-4.826-2.528-7.673-5.242a.987.987 0 0 0-1.408.043c-.97 1.042-2.24 3.004-.065 4.603 2.674 1.965 7.775 2.457 9.205 1.46a.512.512 0 0 0-.06-.864z" fill="#131B5F"/>
        <path d="M312.98 45.988c.238.054.522.105.848.151 8.344 1.232 44.593.475 46.161-10.049 1.251-8.404-23.286-12.517-34.713-13.97-.445-.057-.867-.108-1.269-.157-2.497-.3-4.143-.452-4.393-.477l-.033-.001-6.601 24.503z" fill="#FF1F25"/>
        <path d="M312.98 45.988c.238.054.522.105.848.151 3.404-1.695 12.982-8.87 11.448-24.02-.445-.057-.867-.108-1.269-.156-2.497-.301-4.143-.453-4.393-.477l-.033-.002s-.38 16.575-6.601 24.504z" fill="#131B5F"/>
        <path d="M260.153 30.335a56.023 56.023 0 0 0 3.81 1.858.12.12 0 0 0 .04.02c2.065.905 4.567 1.886 7.318 2.85.23.082.44.153.627.219l.015.006c9.006 3.122 20.427 6.072 27.717 6.084a299.955 299.955 0 0 0 6.984-.067c1.115-.024 2.115-.055 3.013-.092l.37-.014.265-.012.455-.022c.335-.015.654-.031.96-.049l.347-.02a95.486 95.486 0 0 0 2.9-.212l.338-.03c.11-.011.214-.023.32-.032.105-.01.647-.108.885-.13 9.777-16.705-.46-38.468-22.327-40.514a53.878 53.878 0 0 0-.728-.061c-.016 0-.033-.003-.05-.004a33.222 33.222 0 0 0-11.263.999c-8.231 2.267-14.655 8.227-18.184 15.965a35.19 35.19 0 0 0-.699 1.638 53.899 53.899 0 0 0-2.548 8.423 41.965 41.965 0 0 0-.565 3.197z" fill="#FF1F25"/>
        <path d="M299.68 41.371s5.679-6.296 12.883-4.33c6.797 1.853 6.63 12.147-4.692 18.738-1.74 1.013-4.9 2.246-7.438 2.631l-.752-17.039z" fill="#F4ADA2"/>
        <path d="M303.941 57.731h.043c.274-.019 6.784-.548 12.576-7.77a.616.616 0 0 0-.092-.863.609.609 0 0 0-.86.092c-2.841 3.544-5.872 5.344-7.914 6.23-2.215.96-3.78 1.085-3.795 1.086a.613.613 0 0 0-.569.634c.012.33.282.593.611.593v-.002zM300.664 51.598a.61.61 0 0 0 .557-.363c3.232-7.233 9.47-7.06 9.533-7.056a.613.613 0 0 0 .05-1.227c-.071 0-7.132-.202-10.698 7.78a.617.617 0 0 0 .044.585.61.61 0 0 0 .513.281zM260.153 30.335a56.023 56.023 0 0 0 3.81 1.858.12.12 0 0 0 .04.02c2.065.905 4.567 1.886 7.318 2.85.23.082.44.153.627.219 1.305-2.473 1.952-7.235.417-10.46-1.535-3.225-4.599-5.438-9.097-6.106a53.899 53.899 0 0 0-2.548 8.422 41.094 41.094 0 0 0-.567 3.197z" fill="#131B5F"/>
        <path d="M361.845 475.234c4.873-.734 13.02-5.994 20.363-19.368l35.709-65.043c-23.185-10.133-42.005-14.064-53.553-18.516-2.326 7.512 2.247 10.623.463 18.1-2.067 8.66-5.107 9.121-9.534 30.179-.072.34-.163.67-.245 1.004l-.066.274a90.485 90.485 0 0 0-2.428 17.347c-.853 22.552 8.267 34.726 9.21 35.925v.003c.021.028.041.05.054.065l.027.03z" fill="#FFF"/>
        <path d="M361.846 475.848c.03 0 .06-.002.089-.007 5.272-.793 13.507-6.38 20.808-19.677l35.709-65.043a.617.617 0 0 0-.305-.866c-13.631-5.59-26.739-9.81-39.417-13.892-4.743-1.527-9.223-2.97-13.746-4.485a.615.615 0 0 0-.386 1.165c4.529 1.518 9.012 2.962 13.76 4.49 12.457 4.01 25.332 8.156 38.69 13.6l-35.374 64.435c-6.925 12.614-14.579 18.058-19.574 19-1.573-2.074-10.21-14.484-9.401-35.875a90.323 90.323 0 0 1 2.412-17.228l.066-.273.084-.335c.057-.227.115-.454.163-.685.94-4.47 3.117-11.776 4.314-14.478a.617.617 0 0 0-.063-.61.61.61 0 0 0-1.053.11c-1.222 2.76-3.44 10.191-4.393 14.724-.046.214-.098.425-.152.635-.03.117-.06.234-.088.35l-.068.28a91.544 91.544 0 0 0-2.444 17.463c-.849 22.462 8.579 35.296 9.783 36.839a1.58 1.58 0 0 0 .087.108l.028.032c.116.14.289.223.47.223z" fill="#131B5F"/>
        <path d="M368.978 398.343a.61.61 0 0 0 .494-.252c4.12-5.66 6.188-6.564 10.306-8.365a91.4 91.4 0 0 0 3.797-1.737c6.972-3.415 8.139-6.345 8.184-6.468a.615.615 0 0 0-.352-.79.61.61 0 0 0-.789.35c-.024.056-1.174 2.668-7.578 5.804-1.43.7-2.662 1.24-3.75 1.714-4.183 1.83-6.488 2.838-10.804 8.767a.617.617 0 0 0-.052.64.61.61 0 0 0 .544.337zM359.298 471.906a.607.607 0 0 0 .266-.063c8.575-4.187 15.116-11.128 19.441-20.628 2.814-6.183 4.68-13.477 5.546-21.68.53-5.022 2.35-7.316 4.11-9.534 1.501-1.892 3.053-3.847 3.729-7.34.533-2.753.17-4.964-.182-7.102-.465-2.831-.905-5.506.618-9.45 3.358-8.693 10.673-10.232 10.746-10.246a.617.617 0 0 0 .345-1.006.61.61 0 0 0-.577-.2c-.327.063-8.041 1.657-11.653 11.007-1.645 4.258-1.157 7.226-.684 10.095.349 2.125.679 4.131.188 6.668-.62 3.196-2.011 4.95-3.485 6.808-1.869 2.356-3.802 4.792-4.37 10.17-.851 8.07-2.682 15.236-5.442 21.3-4.204 9.235-10.55 15.975-18.863 20.034a.615.615 0 0 0 .267 1.167z" fill="#131B5F"/>
        <path d="M400.16 408.37a5.75 5.75 0 0 0 2.912-.91c1.608-.961 3.094-2.586 4.186-4.574s1.667-4.12 1.619-5.999c-.051-2-.796-3.498-2.098-4.22-1.301-.721-2.96-.556-4.67.467-1.608.962-3.095 2.586-4.186 4.575-1.092 1.988-1.667 4.118-1.619 5.998.051 2 .796 3.498 2.098 4.22a3.582 3.582 0 0 0 1.758.442zm4.858-14.915c.408-.006.811.093 1.17.288.907.503 1.427 1.63 1.467 3.176.043 1.665-.478 3.573-1.466 5.373-.989 1.8-2.317 3.261-3.741 4.113-1.322.79-2.55.948-3.455.446-.906-.502-1.427-1.63-1.467-3.176-.042-1.665.479-3.573 1.467-5.373.988-1.8 2.317-3.261 3.74-4.113a4.558 4.558 0 0 1 2.285-.734z" fill="#131B5F"/>
        <path d="M353.838 425.966c.468 0 .918-.18 1.258-.502 3.638-3.45 7.817-5.76 12.418-6.868 3.455-.831 5.87-.634 5.893-.632a1.836 1.836 0 0 0 1.99-1.666 1.84 1.84 0 0 0-1.654-2.003c-.453-.042-11.222-.937-21.163 8.488a1.85 1.85 0 0 0-.446 2.02 1.833 1.833 0 0 0 1.704 1.163zM352.625 436.488c.52 0 1.015-.221 1.363-.61 7.688-8.588 18.102-8.326 18.207-8.327h.064a1.838 1.838 0 0 0 1.828-1.811 1.838 1.838 0 0 0-1.767-1.873c-.494-.022-12.238-.305-21.058 9.545a1.85 1.85 0 0 0-.312 1.982c.295.664.95 1.093 1.675 1.093v.001zM352.43 446.424c.527 0 1.03-.228 1.377-.627 6.764-7.74 15.758-7.784 15.849-7.785h.01a1.838 1.838 0 0 0 1.846-1.83 1.838 1.838 0 0 0-1.82-1.855c-.434 0-10.728-.016-18.64 9.039a1.85 1.85 0 0 0-.292 1.975c.296.66.95 1.083 1.67 1.083z" fill="#FFDD0F"/>
        <g>
            <path d="M123.611 590.823c2.994 3.934 11.512 8.563 26.71 8.563h73.91c-2.163-12.756-5.024-33.992-.725-54.902-7.668 1.582-8.168 7.109-15.543 9.151-8.542 2.366-19.431-1.258-39.913 5.02-.33.1-.663.18-.993.27l-.271.073a89.323 89.323 0 0 0-16.284 6.244c-20.057 10.146-26.255 24.053-26.845 25.462 0 0-.002 0-.002.002-.014.033-.023.06-.03.079l-.014.038z" fill="#FFF"/>
            <path d="M150.32 600h73.912a.61.61 0 0 0 .607-.686c-.306-2.615-.618-5.12-.92-7.542-1.994-16.024-3.57-28.68.149-46.767a.612.612 0 1 0-1.198-.248c-3.76 18.285-2.173 31.03-.164 47.167.275 2.207.558 4.484.837 6.848H150.32c-14.333 0-22.773-4.106-26.006-8.047 1.046-2.385 7.686-15.982 26.708-25.604a89.17 89.17 0 0 1 16.173-6.201l.268-.074.334-.089c.225-.058.45-.118.675-.186 4.347-1.333 11.764-2.947 14.696-3.199a.613.613 0 0 0-.104-1.224c-2.996.258-10.54 1.897-14.948 3.248-.209.063-.418.118-.626.172-.117.03-.233.06-.349.092l-.277.076a90.386 90.386 0 0 0-16.392 6.286c-19.993 10.113-26.613 24.628-27.365 26.412a1.517 1.517 0 0 0-.052.127l-.013.035a.62.62 0 0 0 .083.599c3.239 4.257 12.084 8.805 27.196 8.805z" fill="#131B5F"/>
            <path d="M220.881 571.905c.234 0 .37-.011.4-.014a.613.613 0 0 0-.107-1.223c-.044.003-4.433.316-10.363-3.877-1.3-.92-2.365-1.745-3.305-2.472-3.615-2.797-5.607-4.338-12.856-5.272a.61.61 0 0 0-.57.233.617.617 0 0 0 .415.985c6.921.892 8.707 2.274 12.266 5.028.949.734 2.025 1.567 3.348 2.502 5.347 3.783 9.497 4.11 10.772 4.11zM149.047 594.466c1.241 0 2.5-.048 3.777-.145 6.746-.51 14.001-2.392 21.565-5.593 4.63-1.96 7.508-1.466 10.291-.989 2.372.407 4.826.827 8.194-.265 2.657-.86 4.407-2.249 6.1-3.591 2.24-1.778 4.358-3.457 8.53-4.022 9.195-1.246 14.068 4.45 14.116 4.507.22.247.594.274.847.062a.616.616 0 0 0 .091-.848c-.212-.257-5.328-6.277-15.218-4.938-4.503.61-6.853 2.473-9.124 4.275-1.682 1.333-3.27 2.593-5.718 3.387-3.083 1-5.284.622-7.613.223-2.956-.507-6.013-1.032-10.972 1.068-7.441 3.15-14.567 5-21.181 5.5-10.076.765-19.014-1.566-26.566-6.921a.608.608 0 0 0-.96.446.615.615 0 0 0 .256.558c6.83 4.841 14.75 7.285 23.585 7.286z" fill="#131B5F"/>
            <path d="M208.574 595.834c4.862 0 8.67-2.353 8.67-5.358 0-3.005-3.808-5.359-8.67-5.359-4.861 0-8.67 2.354-8.67 5.359 0 3.004 3.809 5.358 8.67 5.358zm0-9.488c4.037 0 7.448 1.891 7.448 4.13 0 2.238-3.41 4.13-7.448 4.13-4.037 0-7.448-1.892-7.448-4.13 0-2.24 3.411-4.13 7.448-4.13z" fill="#131B5F"/>
            <path d="M180.764 574.428a1.83 1.83 0 0 0 1.53-.833 1.85 1.85 0 0 0 .15-1.742c-.183-.42-4.606-10.329-17.62-14.523a1.831 1.831 0 0 0-2.293 1.195 1.844 1.844 0 0 0 1.174 2.314c11.37 3.664 15.341 12.403 15.38 12.491a1.838 1.838 0 0 0 1.68 1.098zM171.784 577.9a1.831 1.831 0 0 0 1.56-.879 1.85 1.85 0 0 0 .073-1.795c-.225-.445-5.646-10.918-18.488-13.92a1.827 1.827 0 0 0-1.766.528 1.85 1.85 0 0 0-.417 1.803c.193.633.71 1.113 1.352 1.257 11.129 2.603 16.004 11.91 16.052 12.004a1.836 1.836 0 0 0 1.634 1.002zM161.423 580.677a1.831 1.831 0 0 0 1.57-.897 1.85 1.85 0 0 0 .043-1.815c-.205-.384-5.168-9.448-16.878-12.036a1.828 1.828 0 0 0-1.747.557 1.85 1.85 0 0 0-.394 1.8 1.837 1.837 0 0 0 1.353 1.242c10.012 2.213 14.397 10.107 14.44 10.186.321.594.94.963 1.613.963z" fill="#FFDD0F"/>
        </g>
        <path d="M364.424 187.599c-14.42-15.968-38.067-59.762-35.93-87.456 2.2-28.497 31.041-14.249 65.26 17.442 14.615 13.536 33.484 22.847 38.373 26.532-11.488-2.457-27.864 9.335-41.062 24.075-5.465 6.102-14.176 16.46-26.641 19.407z" fill="#0057FC"/>
        <g fill="#131B5F">
            <path d="M268.002 210.937c.27 0 .508-.178.585-.438.27-.898 26.807-90.06 29.35-109.416a.612.612 0 0 0-1.212-.16c-2.53 19.257-29.04 108.326-29.308 109.223a.611.611 0 0 0 .587.79l-.002.001zM363.202 188.704a.61.61 0 0 0 .553-.353.617.617 0 0 0-.083-.654c-15.283-18.489-23.846-37.357-28.34-49.93-5.508-15.414-7.975-30.319-6.599-39.87a.616.616 0 0 0-.223-.578.609.609 0 0 0-.986.401c-1.424 9.887 1.003 24.634 6.66 40.46 4.525 12.668 13.152 31.675 28.547 50.303.117.14.29.221.471.221z"/>
        </g>
        <path d="M369.419 186.629c.05 0 .1-.007.15-.02 18.217-4.612 33.099-9.79 44.232-15.39 9.512-4.784 16.096-9.837 19.042-14.612 2.365-3.835 2.725-8.218.895-10.907-1.189-1.748-3.788-3.61-9.422-2.556a.614.614 0 0 0 .223 1.207c3.947-.738 6.78-.031 8.19 2.042 1.561 2.294 1.19 6.139-.925 9.566-6.33 10.26-29.122 20.998-62.534 29.46a.614.614 0 0 0 .149 1.21z" fill="#21A0AA"/>
        <path d="M225.107 168.192c.489 4.667 4.4 6.878 4.4 6.878.733 5.896 4.888 7.124 4.888 7.124s.244 5.896 11.487 4.914c11.244-.983 13.688-8.599 13.688-8.599s6.11-.49 13.127-4.485a5.566 5.566 0 0 1 6.868.972c15.445 16.573 53.87 85.334 105.878 81.389 44.43-3.373 44.293-64.18 34.724-96.7a79.656 79.656 0 0 0-.54-1.78 67.566 67.566 0 0 0-4.02-10.15c-8.003 4.257-16.476 11.539-23.977 19.81-.189.209-.959 1.069-1.03 1.145-4.397 4.93-10.77 12.246-19.367 16.432-.606.32-1.212.61-1.813.872a.158.158 0 0 1-.022-.02l-.018-.014a431.642 431.642 0 0 0-15.166-12.067l-.004-.002c-34.822-26.36-65.509-39.881-92.507-38.277-15.493.921-41.973 19.537-51.994 34.523-10.021 14.985 14.91-1.72 15.398-1.965z" fill="#F4ADA2"/>
        <g fill="#131B5F">
            <path d="M245.272 182.686a.609.609 0 0 0 .283-.07c5.136-2.705 13.36-3.107 16.538-2.88a.61.61 0 0 0 .56-.264.617.617 0 0 0-.473-.961c-3.292-.236-11.824.19-17.192 3.016a.615.615 0 0 0 .284 1.159zM233.783 183.423c.015 0 .029 0 .043-.002a.613.613 0 0 0 .567-.655c-.484-7.062 5.315-12.7 10.428-15.38a.616.616 0 0 0 .26-.83.61.61 0 0 0-.825-.26c-5.44 2.853-11.607 8.9-11.082 16.555a.612.612 0 0 0 .61.572zM228.895 176.299h.022a.61.61 0 0 0 .59-.636c-.106-2.974.924-5.997 3.062-8.985a27.644 27.644 0 0 1 6.693-6.454.615.615 0 0 0-.076-1.068.608.608 0 0 0-.614.054 28.905 28.905 0 0 0-6.995 6.75c-2.3 3.215-3.408 6.494-3.292 9.747.012.33.282.591.61.592zM224.495 169.911c.018 0 .036 0 .054-.002a.613.613 0 0 0 .556-.665c-.358-4.137 2.933-10.82 9.734-15.06a.616.616 0 0 0 .198-.845.61.61 0 0 0-.842-.198c-5.386 3.357-10.829 10.178-10.307 16.21.027.316.29.56.607.56zM388.743 204.304a.617.617 0 0 0 .45-1.029c-.11-.12-11.118-12.165-19.63-18.742a.609.609 0 0 0-.984.404.616.616 0 0 0 .239.57c8.427 6.511 19.365 18.478 19.475 18.598.115.127.279.2.45.2z"/>
        </g>
        <g fill="#FF1F25">
            <path d="m408.418 286.744 32.034-4.269a.488.488 0 0 1 .464.201c.103.148.112.34.023.496l-18.906 33.114a.486.486 0 0 1-.444.241.483.483 0 0 1-.42-.28l-13.127-28.845a.462.462 0 0 1 .02-.42.483.483 0 0 1 .356-.238z"/>
        </g>
        <g fill="#FFDD0F">
            <path d="M206.624 139.12a.632.632 0 0 0 .622-.626l.521-20.639a.635.635 0 0 0-.606-.66.632.632 0 0 0-.64.627l-.52 20.638a.634.634 0 0 0 .605.66h.018zM219.105 145.242c.147 0 .29-.053.402-.152l15.274-13.32a.658.658 0 0 0 .072-.904.61.61 0 0 0-.875-.078l-15.275 13.32a.657.657 0 0 0-.182.712c.09.254.323.422.584.422z"/>
        </g>
        <g fill="#FFDD0F">
            <path d="M84.417 268.574c.414 0 .799-.212 1.024-.561.225-.35.26-.79.092-1.172l-7.666-17.405 18.706-2.576c.433-.058.802-.346.968-.754a1.24 1.24 0 0 0-.166-1.222 1.216 1.216 0 0 0-1.133-.465l-19.938 2.746c-.47.064-.882.348-1.113.766-.231.418-.254.921-.061 1.358l8.17 18.553a1.22 1.22 0 0 0 1.117.732zM114.591 285.476c.056 0 .112-.004.167-.012l19.938-2.745c.47-.065.882-.349 1.113-.767.231-.418.254-.92.061-1.358l-8.17-18.553a1.217 1.217 0 0 0-1.607-.612c-.611.274-.89.993-.626 1.612l7.666 17.406-18.706 2.576a1.23 1.23 0 0 0-1.054 1.304c.043.646.575 1.149 1.218 1.149zM104.638 284.445c.647 0 1.181-.51 1.218-1.162l2.088-37.16a1.228 1.228 0 0 0-1.15-1.299 1.225 1.225 0 0 0-1.289 1.16l-2.087 37.159c-.019.326.092.647.308.89a1.217 1.217 0 0 0 .912.412z"/>
        </g>
        <g>
            <path fill="#FFDD0F" d="m200.79 189.01-12.313-93.437-.013-.101-.19-.1-33.565-16.554 12.922 102.366z"/>
            <path d="M200.787 190.846a1.835 1.835 0 0 0 1.454-.72c.295-.385.425-.873.362-1.356l-12.327-93.538a1.834 1.834 0 0 0-.968-1.387l-.189-.098-33.447-17.414a1.824 1.824 0 0 0-1.888.122 1.837 1.837 0 0 0-.77 1.733l12.8 103.222a1.834 1.834 0 0 0 1.098 1.484c.606.26 1.305.173 1.83-.228a1.837 1.837 0 0 0 .701-1.709l-12.37-99.76 29.702 15.462 12.202 92.592a1.83 1.83 0 0 0 1.81 1.595z" fill="#131B5F"/>
            <path d="M168.724 177.88a3.051 3.051 0 0 0-3.026 2.7 3.057 3.057 0 0 0 2.316 3.332l100.004 24.129a3.042 3.042 0 0 0 2.923-.868 3.065 3.065 0 0 0 .713-2.973 3.052 3.052 0 0 0-2.21-2.106L169.44 177.965a3.045 3.045 0 0 0-.716-.085m0-1.223c.337 0 .673.04 1 .12l100.004 24.129a4.28 4.28 0 0 1 3.242 4.665 4.272 4.272 0 0 1-5.237 3.659L167.729 185.1a4.28 4.28 0 0 1-3.241-4.664 4.272 4.272 0 0 1 4.236-3.778v-.001z"/>
            <path d="M268.732 208.126a3.051 3.051 0 0 0 3.031-2.699 3.057 3.057 0 0 0-2.32-3.333L169.44 177.965a3.041 3.041 0 0 0-2.923.868 3.065 3.065 0 0 0-.713 2.972 3.052 3.052 0 0 0 2.21 2.106l100.004 24.13c.234.056.474.085.714.085z" fill="#131B5F"/>
            <g transform="matrix(-1 0 0 1 185.677 180.817)">
                <ellipse fill="#FFDD0F" cx="13.293" cy="1.101" rx="1.097" ry="1.101"/>
                <path fill="#5B2448" d="M8.295 2.202.98 3.914"/>
                <path d="M.98 4.892A.978.978 0 0 1 .76 2.96l7.313-1.712a.979.979 0 0 1 .443 1.906L1.202 4.865a.98.98 0 0 1-.223.026z" fill="#FFDD0F"/>
            </g>
        </g>
    </g>
</svg>
